<?xml version="1.0" encoding="utf-8"?>
<!-- Generator: Adobe Illustrator 18.1.1, SVG Export Plug-In . SVG Version: 6.00 Build 0)  -->
<svg version="1.1" id="Capa_1" xmlns="http://www.w3.org/2000/svg" xmlns:xlink="http://www.w3.org/1999/xlink" x="0px" y="0px"
	 viewBox="0 0 568 120" enable-background="new 0 0 568 120" xml:space="preserve">
<g>
	<text transform="matrix(1 0 0 1 137.7998 89.623)" fill="#353535" font-family="'SUNN'" font-size="103.4593" letter-spacing="2">Bares &amp; Lugares</text>
	<g>
		<g>
			<path fill="#59BEBE" d="M120.14,103.818c-0.393-0.589-0.331-1.215,0.184-1.878c0.196-0.221,0.724-0.037,1.584,0.552
				c1.031,0.687,2.431,1.805,4.198,3.351c4.935,4.174,7.758,6.175,8.47,6.003c0.098,0.147,2.296-1.841,6.592-5.966
				c2.946-2.504,4.53-3.818,4.751-3.94c1.129-0.442,1.755-0.282,1.878,0.479c0.074,0.491-0.086,0.958-0.479,1.399
				c-0.074,0.074-0.356,0.307-0.847,0.7l-0.737,0.626l-3.02,2.431c-4.959,4.689-7.721,6.911-8.286,6.666
				c-0.663,0.098-4.039-2.32-10.127-7.255L120.14,103.818z"/>
		</g>
		<g>
			<path fill="#59BEBE" d="M151.946,108.969c6.089-4.935,9.465-7.353,10.127-7.255c0.565-0.246,3.327,1.976,8.286,6.666l3.02,2.431
				l0.737,0.626c0.491,0.393,0.773,0.626,0.847,0.7c0.393,0.442,0.552,0.908,0.479,1.399c-0.123,0.761-0.749,0.921-1.878,0.479
				c-0.221-0.123-1.805-1.436-4.751-3.94c-4.296-4.125-6.494-6.113-6.592-5.966c-0.712-0.172-3.535,1.829-8.47,6.003
				c-1.768,1.547-3.167,2.664-4.198,3.351c-0.859,0.589-1.387,0.773-1.584,0.552c-0.516-0.663-0.577-1.289-0.184-1.878
				L151.946,108.969z"/>
		</g>
		<g>
			<path fill="#59BEBE" d="M175.43,103.818c-0.393-0.589-0.331-1.215,0.184-1.878c0.196-0.221,0.724-0.037,1.584,0.552
				c1.031,0.687,2.431,1.805,4.198,3.351c4.935,4.174,7.758,6.175,8.47,6.003c0.098,0.147,2.296-1.841,6.592-5.966
				c2.946-2.504,4.53-3.818,4.751-3.94c1.129-0.442,1.755-0.282,1.878,0.479c0.074,0.491-0.086,0.958-0.479,1.399
				c-0.074,0.074-0.356,0.307-0.847,0.7l-0.737,0.626l-3.02,2.431c-4.959,4.689-7.721,6.911-8.286,6.666
				c-0.663,0.098-4.039-2.32-10.127-7.255L175.43,103.818z"/>
		</g>
		<g>
			<path fill="#59BEBE" d="M207.237,108.969c6.089-4.935,9.465-7.353,10.127-7.255c0.565-0.246,3.327,1.976,8.286,6.666l3.02,2.431
				l0.737,0.626c0.491,0.393,0.773,0.626,0.847,0.7c0.393,0.442,0.552,0.908,0.479,1.399c-0.123,0.761-0.749,0.921-1.878,0.479
				c-0.221-0.123-1.805-1.436-4.751-3.94c-4.296-4.125-6.494-6.113-6.592-5.966c-0.712-0.172-3.535,1.829-8.47,6.003
				c-1.768,1.547-3.167,2.664-4.198,3.351c-0.859,0.589-1.387,0.773-1.584,0.552c-0.516-0.663-0.577-1.289-0.184-1.878
				L207.237,108.969z"/>
		</g>
		<g>
			<path fill="#59BEBE" d="M230.72,103.818c-0.393-0.589-0.331-1.215,0.184-1.878c0.196-0.221,0.724-0.037,1.584,0.552
				c1.031,0.687,2.431,1.805,4.198,3.351c4.935,4.174,7.758,6.175,8.47,6.003c0.098,0.147,2.296-1.841,6.592-5.966
				c2.946-2.504,4.53-3.818,4.751-3.94c1.129-0.442,1.755-0.282,1.878,0.479c0.074,0.491-0.086,0.958-0.479,1.399
				c-0.074,0.074-0.356,0.307-0.847,0.7l-0.737,0.626l-3.02,2.431c-4.959,4.689-7.721,6.911-8.286,6.666
				c-0.663,0.098-4.039-2.32-10.127-7.255L230.72,103.818z"/>
		</g>
		<g>
			<path fill="#59BEBE" d="M262.527,108.969c6.089-4.935,9.465-7.353,10.127-7.255c0.565-0.246,3.327,1.976,8.286,6.666l3.02,2.431
				l0.737,0.626c0.491,0.393,0.773,0.626,0.847,0.7c0.393,0.442,0.552,0.908,0.479,1.399c-0.123,0.761-0.749,0.921-1.878,0.479
				c-0.221-0.123-1.805-1.436-4.751-3.94c-4.296-4.125-6.494-6.113-6.592-5.966c-0.712-0.172-3.535,1.829-8.47,6.003
				c-1.768,1.547-3.167,2.664-4.198,3.351c-0.859,0.589-1.387,0.773-1.584,0.552c-0.516-0.663-0.577-1.289-0.184-1.878
				L262.527,108.969z"/>
		</g>
		<g>
			<path fill="#59BEBE" d="M286.011,103.818c-0.393-0.589-0.331-1.215,0.184-1.878c0.196-0.221,0.724-0.037,1.584,0.552
				c1.031,0.687,2.431,1.805,4.198,3.351c4.935,4.174,7.758,6.175,8.47,6.003c0.098,0.147,2.296-1.841,6.592-5.966
				c2.946-2.504,4.53-3.818,4.751-3.94c1.129-0.442,1.755-0.282,1.878,0.479c0.074,0.491-0.086,0.958-0.479,1.399
				c-0.074,0.074-0.356,0.307-0.847,0.7l-0.737,0.626l-3.02,2.431c-4.959,4.689-7.721,6.911-8.286,6.666
				c-0.663,0.098-4.039-2.32-10.127-7.255L286.011,103.818z"/>
		</g>
		<g>
			<path fill="#59BEBE" d="M317.817,108.969c6.089-4.935,9.465-7.353,10.127-7.255c0.565-0.246,3.327,1.976,8.286,6.666l3.02,2.431
				l0.737,0.626c0.491,0.393,0.773,0.626,0.847,0.7c0.393,0.442,0.552,0.908,0.479,1.399c-0.123,0.761-0.749,0.921-1.878,0.479
				c-0.221-0.123-1.805-1.436-4.751-3.94c-4.296-4.125-6.494-6.113-6.592-5.966c-0.712-0.172-3.535,1.829-8.47,6.003
				c-1.768,1.547-3.167,2.664-4.198,3.351c-0.859,0.589-1.387,0.773-1.584,0.552c-0.516-0.663-0.577-1.289-0.184-1.878
				L317.817,108.969z"/>
		</g>
		<g>
			<path fill="#59BEBE" d="M341.301,103.818c-0.393-0.589-0.331-1.215,0.184-1.878c0.196-0.221,0.724-0.037,1.584,0.552
				c1.031,0.687,2.431,1.805,4.198,3.351c4.935,4.174,7.758,6.175,8.47,6.003c0.098,0.147,2.296-1.841,6.592-5.966
				c2.946-2.504,4.53-3.818,4.751-3.94c1.129-0.442,1.755-0.282,1.878,0.479c0.074,0.491-0.086,0.958-0.479,1.399
				c-0.074,0.074-0.356,0.307-0.847,0.7l-0.737,0.626l-3.02,2.431c-4.959,4.689-7.721,6.911-8.286,6.666
				c-0.663,0.098-4.039-2.32-10.127-7.255L341.301,103.818z"/>
		</g>
		<g>
			<path fill="#59BEBE" d="M373.107,108.969c6.089-4.935,9.465-7.353,10.127-7.255c0.565-0.246,3.327,1.976,8.286,6.666l3.02,2.431
				l0.737,0.626c0.491,0.393,0.773,0.626,0.847,0.7c0.393,0.442,0.552,0.908,0.479,1.399c-0.123,0.761-0.749,0.921-1.878,0.479
				c-0.221-0.123-1.805-1.436-4.751-3.94c-4.296-4.125-6.494-6.113-6.592-5.966c-0.712-0.172-3.535,1.829-8.47,6.003
				c-1.768,1.547-3.167,2.664-4.198,3.351c-0.859,0.589-1.387,0.773-1.584,0.552c-0.516-0.663-0.577-1.289-0.184-1.878
				L373.107,108.969z"/>
		</g>
		<g>
			<path fill="#59BEBE" d="M396.591,103.818c-0.393-0.589-0.331-1.215,0.184-1.878c0.196-0.221,0.724-0.037,1.584,0.552
				c1.031,0.687,2.431,1.805,4.198,3.351c4.935,4.174,7.758,6.175,8.47,6.003c0.098,0.147,2.296-1.841,6.592-5.966
				c2.946-2.504,4.53-3.818,4.751-3.94c1.129-0.442,1.755-0.282,1.878,0.479c0.074,0.491-0.086,0.958-0.479,1.399
				c-0.074,0.074-0.356,0.307-0.847,0.7l-0.737,0.626l-3.02,2.431c-4.959,4.689-7.721,6.911-8.286,6.666
				c-0.663,0.098-4.039-2.32-10.127-7.255L396.591,103.818z"/>
		</g>
		<g>
			<path fill="#59BEBE" d="M428.398,108.969c6.089-4.935,9.465-7.353,10.127-7.255c0.565-0.246,3.327,1.976,8.286,6.666l3.02,2.431
				l0.737,0.626c0.491,0.393,0.773,0.626,0.847,0.7c0.393,0.442,0.552,0.908,0.479,1.399c-0.123,0.761-0.749,0.921-1.878,0.479
				c-0.221-0.123-1.805-1.436-4.751-3.94c-4.296-4.125-6.494-6.113-6.592-5.966c-0.712-0.172-3.535,1.829-8.47,6.003
				c-1.768,1.547-3.167,2.664-4.198,3.351c-0.859,0.589-1.387,0.773-1.584,0.552c-0.516-0.663-0.577-1.289-0.184-1.878
				L428.398,108.969z"/>
		</g>
		<g>
			<path fill="#59BEBE" d="M451.881,103.818c-0.393-0.589-0.331-1.215,0.184-1.878c0.196-0.221,0.724-0.037,1.584,0.552
				c1.031,0.687,2.431,1.805,4.198,3.351c4.935,4.174,7.758,6.175,8.47,6.003c0.098,0.147,2.296-1.841,6.592-5.966
				c2.946-2.504,4.53-3.818,4.751-3.94c1.129-0.442,1.755-0.282,1.878,0.479c0.074,0.491-0.086,0.958-0.479,1.399
				c-0.074,0.074-0.356,0.307-0.847,0.7l-0.737,0.626l-3.02,2.431c-4.959,4.689-7.721,6.911-8.286,6.666
				c-0.663,0.098-4.039-2.32-10.127-7.255L451.881,103.818z"/>
		</g>
		<g>
			<path fill="#59BEBE" d="M483.688,108.969c6.089-4.935,9.465-7.353,10.127-7.255c0.565-0.246,3.327,1.976,8.286,6.666l3.02,2.431
				l0.737,0.626c0.491,0.393,0.773,0.626,0.847,0.7c0.393,0.442,0.552,0.908,0.479,1.399c-0.123,0.761-0.749,0.921-1.878,0.479
				c-0.221-0.123-1.805-1.436-4.751-3.94c-4.296-4.125-6.494-6.113-6.592-5.966c-0.712-0.172-3.535,1.829-8.47,6.003
				c-1.768,1.547-3.167,2.664-4.198,3.351c-0.859,0.589-1.387,0.773-1.584,0.552c-0.516-0.663-0.577-1.289-0.184-1.878
				L483.688,108.969z"/>
		</g>
		<g>
			<path fill="#59BEBE" d="M507.172,103.818c-0.393-0.589-0.331-1.215,0.184-1.878c0.196-0.221,0.724-0.037,1.584,0.552
				c1.031,0.687,2.431,1.805,4.198,3.351c4.935,4.174,7.758,6.175,8.47,6.003c0.098,0.147,2.296-1.841,6.592-5.966
				c2.946-2.504,4.53-3.818,4.751-3.94c1.129-0.442,1.755-0.282,1.878,0.479c0.074,0.491-0.086,0.958-0.479,1.399
				c-0.074,0.074-0.356,0.307-0.847,0.7l-0.737,0.626l-3.02,2.431c-4.959,4.689-7.721,6.911-8.286,6.666
				c-0.663,0.098-4.039-2.32-10.127-7.255L507.172,103.818z"/>
		</g>
		<g>
			<path fill="#59BEBE" d="M538.978,108.969c6.089-4.935,9.465-7.353,10.127-7.255c0.565-0.246,3.327,1.976,8.286,6.666l3.02,2.431
				l0.737,0.626c0.491,0.393,0.773,0.626,0.847,0.7c0.393,0.442,0.552,0.908,0.479,1.399c-0.123,0.761-0.749,0.921-1.878,0.479
				c-0.221-0.123-1.805-1.436-4.751-3.94c-4.297-4.125-6.494-6.113-6.592-5.966c-0.712-0.172-3.535,1.829-8.47,6.003
				c-1.768,1.547-3.167,2.664-4.198,3.351c-0.859,0.589-1.387,0.773-1.584,0.552c-0.516-0.663-0.577-1.289-0.184-1.878
				L538.978,108.969z"/>
		</g>
	</g>
</g>
<g>
	<g>
		<path fill="#353535" d="M98.877,57.965c0,2.142-0.122,4.262-0.392,6.33c-0.276,2.117-0.676,4.205-1.216,6.227
			c-0.55,2.056-1.38,4.01-2.184,5.949c-0.813,1.961-1.757,3.845-2.811,5.666c-1.061,1.834-2.233,3.583-3.518,5.255
			c-1.289,1.677-2.653,3.285-4.146,4.778c-1.493,1.493-3.097,2.863-4.774,4.151c-1.671,1.284-3.439,2.427-5.273,3.488
			c-1.821,1.053-3.697,2.005-5.658,2.818c-1.938,0.804-3.9,1.597-5.956,2.146c-2.022,0.54-4.093,1.015-6.21,1.291
			c-2.069,0.27-4.191,0.289-6.333,0.289c-2.142,0-4.239-0.217-6.307-0.486c-2.117-0.276-4.206-0.583-6.228-1.124
			c-2.056-0.55-4.018-1.331-5.957-2.135c-1.961-0.813-3.864-1.713-5.685-2.767c-1.834-1.061-3.631-2.173-5.303-3.458
			c-1.677-1.289-3.254-2.7-4.747-4.193c-1.493-1.493-2.894-3.078-4.183-4.755c-1.284-1.671-2.45-3.436-3.511-5.27
			c-1.053-1.821-2.034-3.698-2.847-5.659c-0.804-1.938-1.498-3.942-2.047-5.998c-0.54-2.022-0.916-4.107-1.192-6.224
			c-0.27-2.069-0.355-4.179-0.355-6.321c0-2.142,0.19-4.239,0.459-6.308c0.276-2.117,0.518-4.224,1.059-6.245
			c0.55-2.056,1.29-4.045,2.094-5.984c0.813-1.961,1.782-3.842,2.836-5.663c1.061-1.834,2.229-3.596,3.514-5.267
			c1.289-1.677,2.739-3.211,4.232-4.704c1.493-1.493,2.965-3.024,4.642-4.313c1.671-1.284,3.474-2.408,5.308-3.469
			c1.821-1.053,3.755-1.909,5.716-2.722c1.938-0.804,3.921-1.525,5.977-2.074c2.022-0.54,4.089-0.978,6.206-1.254
			c2.069-0.27,4.179-0.309,6.321-0.309c2.142,0,4.257,0.002,6.325,0.272c2.117,0.276,4.174,0.775,6.195,1.315
			c2.056,0.55,4.076,1.173,6.015,1.977c1.961,0.813,3.875,1.724,5.696,2.778c1.834,1.061,3.622,2.209,5.293,3.493
			c1.677,1.289,3.16,2.807,4.653,4.3c1.493,1.493,2.99,2.993,4.278,4.67c1.284,1.671,2.424,3.46,3.485,5.294
			c1.053,1.821,2.063,3.689,2.876,5.65c0.804,1.938,1.48,3.954,2.029,6.01c0.54,2.022,0.964,4.105,1.24,6.221
			C98.762,53.702,98.877,55.823,98.877,57.965z"/>
	</g>
	<g>
		<g>
			<path fill="#FEFFFF" d="M53.693,32.814c0.075,0,0.112,0.052,0.187,0.052c0-0.074-0.003-0.161-0.003-0.235
				c-0.075,0-0.11,0.048-0.185,0.048C53.692,32.753,53.693,32.74,53.693,32.814z"/>
		</g>
		<g>
			<path fill="#FEFFFF" d="M53.557,18.401c0.087-0.025,0.23-0.012,0.233-0.121C53.704,18.305,53.561,18.293,53.557,18.401z"/>
		</g>
		<g>
			<path fill="#FEFFFF" d="M51.329,61.363c0.075,0,0.098,0.016,0.173,0.016c0-0.074,0.073-0.187,0.073-0.261
				c-0.075,0-0.135,0.126-0.21,0.126C51.366,61.318,51.329,61.289,51.329,61.363z"/>
		</g>
		<g>
			<path fill="#FEFFFF" d="M52.8,17.927c0.031,0.031,0.165-0.048,0.106-0.106C52.875,17.79,52.742,17.869,52.8,17.927z"/>
		</g>
		<g>
			<path fill="#FEFFFF" d="M54.125,84.932c0.013-0.211,0.334-0.107,0.3-0.366c-0.13-0.095-0.222-0.08-0.482-0.044
				C53.959,84.73,53.975,84.858,54.125,84.932z"/>
		</g>
		<g>
			<path fill="#FEFFFF" d="M52.518,49.209c-0.087,0.025-0.203-0.016-0.206,0.093C52.399,49.277,52.515,49.318,52.518,49.209z"/>
		</g>
		<g>
			<path fill="#FEFFFF" d="M55.318,27.387c-0.377-0.34-0.345,0.389-0.005-0.025C55.318,27.356,55.318,27.387,55.318,27.387z"/>
		</g>
		<g>
			<path fill="#FEFFFF" d="M54.734,96.137c0,0.075,0.01,0.251,0.01,0.326c0.113-0.001,0.243,0.098,0.334,0.119
				C55.067,96.405,54.973,96.084,54.734,96.137z"/>
		</g>
		<g>
			<path fill="#FEFFFF" d="M53.773,36.457c-0.069-0.033-0.304-0.299-0.321-0.021C53.52,36.469,53.755,36.735,53.773,36.457z"/>
		</g>
		<g>
			<path fill="#FEFFFF" d="M50.239,99.265c0.276,0.174,0.25-0.342,0.033-0.298c-0.007,0.068,0.05,0.254-0.046,0.234
				C50.226,99.274,50.239,99.189,50.239,99.265z"/>
		</g>
		<g>
			<path fill="#FEFFFF" d="M53.195,38.667c0,0.075-0.019,0.197-0.019,0.272c0.112,0,0.179-0.08,0.29-0.08
				C53.482,38.658,53.42,38.629,53.195,38.667z"/>
		</g>
		<g>
			<path fill="#FEFFFF" d="M53.096,92.39c0.075,0,0.205,0.069,0.279,0.069c0-0.075-0.058-0.216-0.058-0.291
				c-0.075,0-0.216-0.058-0.291-0.058C53.026,92.185,53.096,92.314,53.096,92.39z"/>
		</g>
		<g>
			<path fill="#FEFFFF" d="M55.473,83.503c-0.126,0.011-0.172-0.237-0.222-0.074C55.253,83.542,55.446,83.644,55.473,83.503z"/>
		</g>
		<g>
			<path fill="#FEFFFF" d="M51.387,34.785c0.377,0.34,0.311-0.478-0.029-0.064C51.349,34.733,51.387,34.785,51.387,34.785z"/>
		</g>
		<g>
			<path fill="#FEFFFF" d="M60.39,87.676c0.031,0.031,0.199-0.083,0.141-0.141C60.499,87.504,60.331,87.618,60.39,87.676z"/>
		</g>
		<g>
			<path fill="#FEFFFF" d="M51.085,64.98c0,0.062,0.113,0.129,0.134,0.003C51.22,64.92,51.106,64.852,51.085,64.98z"/>
		</g>
		<g>
			<path fill="#FEFFFF" d="M50.782,27.756c0.001,0.113-0.159,0.112-0.181,0.202c0.113-0.001,0.142,0.053,0.233,0.074
				c-0.001-0.112,0.08-0.093,0.101-0.184C50.823,27.849,50.872,27.778,50.782,27.756z"/>
		</g>
		<g>
			<path fill="#FEFFFF" d="M50.158,62.93c0,0.075,0.059,0.12,0.059,0.194c0.112,0,0.08,0.147,0.17,0.168
				C50.377,63.117,50.398,62.878,50.158,62.93z"/>
		</g>
		<g>
			<path fill="#FEFFFF" d="M50.4,97.656c-0.087,0.026-0.264,0.047-0.267,0.156C50.22,97.786,50.397,97.765,50.4,97.656z"/>
		</g>
		<g>
			<path fill="#FEFFFF" d="M50.961,69.789c-0.031-0.031-0.18,0.064-0.122,0.122C50.87,69.941,51.019,69.847,50.961,69.789z"/>
		</g>
		<g>
			<path fill="#FEFFFF" d="M51.953,88.576c0.021-0.244-0.077-0.341-0.321-0.32C51.612,88.5,51.709,88.597,51.953,88.576z"/>
		</g>
		<g>
			<path fill="#FEFFFF" d="M51.639,64.554c0.176-0.166,0.181-0.443-0.168-0.391C51.487,64.372,51.488,64.48,51.639,64.554z"/>
		</g>
		<g>
			<path fill="#FEFFFF" d="M51.993,15.291c0.001-0.062-0.148-0.133-0.17-0.007C51.823,15.347,51.972,15.418,51.993,15.291z"/>
		</g>
		<g>
			<path fill="#FEFFFF" d="M52.136,30.452c0.02-0.244-0.128-0.392-0.373-0.372C51.743,30.324,51.891,30.473,52.136,30.452z"/>
		</g>
		<g>
			<path fill="#FEFFFF" d="M52.291,42.803c-0.185-0.001-0.211-0.357-0.372-0.382C51.823,42.649,52.165,43.162,52.291,42.803z"/>
		</g>
		<g>
			<path fill="#FEFFFF" d="M55.21,97.213c-0.125,0.012-0.131-0.161-0.18,0.002C55.032,97.328,55.182,97.354,55.21,97.213z"/>
		</g>
		<g>
			<path fill="#FEFFFF" d="M58.076,26.085c-0.075,0-0.109-0.066-0.184-0.066c0,0.075,0.055,0.121,0.055,0.195
				c0.075,0,0.172,0.106,0.246,0.106C58.193,26.245,58.076,26.16,58.076,26.085z"/>
		</g>
		<g>
			<path fill="#FEFFFF" d="M58.642,53.498c-0.087,0.025-0.197-0.021-0.2,0.088C58.529,53.561,58.639,53.607,58.642,53.498z"/>
		</g>
		<g>
			<path fill="#FEFFFF" d="M58.345,21.897c-0.125,0.012-0.191-0.172-0.241-0.01C58.105,22,58.318,22.038,58.345,21.897z"/>
		</g>
		<g>
			<path fill="#FEFFFF" d="M58.287,90.896c-0.074,0-0.211,0.031-0.285,0.031c0,0.074,0.07,0.109,0.07,0.184
				c0.074,0,0.112,0.072,0.186,0.072C58.258,91.108,58.287,90.97,58.287,90.896z"/>
		</g>
		<g>
			<path fill="#FEFFFF" d="M57.656,83.441c0,0.062,0.127,0.131,0.149,0.004C57.805,83.383,57.677,83.313,57.656,83.441z"/>
		</g>
		<g>
			<path fill="#FEFFFF" d="M58.465,65.649c-0.075,0-0.126,0.022-0.201,0.022c0,0.075-0.092,0.197-0.092,0.271
				c0.075,0,0.159-0.13,0.234-0.13C58.405,65.739,58.465,65.725,58.465,65.649z"/>
		</g>
		<g>
			<path fill="#FEFFFF" d="M61.135,76.691c0.166,0.059,0.184,0.198,0.35,0.255C61.694,76.574,61.18,76.445,61.135,76.691z"/>
		</g>
		<g>
			<path fill="#FEFFFF" d="M60.921,20.42c0,0.149,0.004,0.326,0.004,0.474C61.355,20.983,61.352,20.332,60.921,20.42z"/>
		</g>
		<g>
			<path fill="#FEFFFF" d="M54.862,56.818c-0.075,0-0.093,0.016-0.167,0.016c0.001,0.112-0.104,0.058-0.125,0.148
				C54.746,56.972,54.915,57.056,54.862,56.818z"/>
		</g>
		<g>
			<path fill="#FEFFFF" d="M60.824,72.6c0,0.075,0.006,0.119,0.006,0.193c0.112,0,0.227,0.029,0.339,0.029
				C61.183,72.62,61.048,72.562,60.824,72.6z"/>
		</g>
		<g>
			<path fill="#FEFFFF" d="M61.63,77.484c-0.031-0.031-0.132,0.016-0.074,0.074C61.587,77.589,61.688,77.542,61.63,77.484z"/>
		</g>
		<g>
			<path fill="#FEFFFF" d="M56.519,33.46c0.031,0.031,0.039,0.078-0.02,0.02C56.469,33.449,56.461,33.402,56.519,33.46z"/>
		</g>
		<g>
			<path fill="#FEFFFF" d="M61.704,95.529c0-0.062,0-0.117-0.021,0.01C61.682,95.601,61.683,95.656,61.704,95.529z"/>
		</g>
		<g>
			<path fill="#FEFFFF" d="M61.046,68.777c-0.212,0.025-0.259-0.129-0.46-0.115C60.406,68.974,61.081,68.975,61.046,68.777z"/>
		</g>
		<g>
			<path fill="#FEFFFF" d="M55.665,47.743c0.031,0.031,0.151-0.035,0.093-0.093C55.727,47.619,55.608,47.685,55.665,47.743z"/>
		</g>
		<g>
			<path fill="#FEFFFF" d="M57.386,18.935c-0.452-0.393-0.27,0.434-0.006,0.074C57.399,18.983,57.386,18.935,57.386,18.935z"/>
		</g>
		<g>
			<path fill="#FEFFFF" d="M56.449,59.941c0.087-0.025,0.221-0.004,0.225-0.113C56.587,59.854,56.452,59.832,56.449,59.941z"/>
		</g>
		<g>
			<path fill="#FEFFFF" d="M54.721,37.608c0.075,0,0.126,0.104,0.2,0.104c0-0.075-0.062-0.168-0.062-0.243
				c-0.075,0-0.104,0.002-0.179,0.002C54.68,37.545,54.721,37.533,54.721,37.608z"/>
		</g>
		<g>
			<path fill="#FEFFFF" d="M54.542,11.151c0.087-0.025,0.171,0.047,0.174-0.062C54.629,11.114,54.545,11.042,54.542,11.151z"/>
		</g>
		<g>
			<path fill="#FEFFFF" d="M57.21,25.01c-0.068-0.033-0.531-0.261-0.548,0.017C56.731,25.059,57.194,25.289,57.21,25.01z"/>
		</g>
		<g>
			<path fill="#FEFFFF" d="M54.804,11.712c0,0.062,0.13,0.131,0.152,0.005C54.956,11.654,54.825,11.585,54.804,11.712z"/>
		</g>
		<g>
			<path fill="#FEFFFF" d="M55.996,67.211c0.017,0.132-0.03,0.28,0.101,0.298c0.006-0.067,0.065-0.066,0.16-0.046
				C56.244,67.326,56.186,67.17,55.996,67.211z"/>
		</g>
		<g>
			<path fill="#FEFFFF" d="M56.256,68.403c0,0.113-0.124,0.067-0.145,0.158c0.143,0.007,0.161,0.145,0.341,0.113
				C56.459,68.482,56.394,68.452,56.256,68.403z"/>
		</g>
		<g>
			<path fill="#FEFFFF" d="M55.902,98.538c0.351,0.06,0.424,0.529,0.961,0.404c-0.008-0.626-0.453-1.031-0.844-1.274
				C55.865,97.811,55.904,98.241,55.902,98.538z"/>
		</g>
		<g>
			<path fill="#FEFFFF" d="M56.963,59.429c-0.031-0.031-0.189,0.072-0.13,0.13C56.863,59.59,57.02,59.487,56.963,59.429z"/>
		</g>
		<g>
			<path fill="#FEFFFF" d="M55.808,14.616c0.024,0.135,0.253,0.096,0.353,0.028C56.16,14.531,55.837,14.475,55.808,14.616z"/>
		</g>
		<g>
			<path fill="#FEFFFF" d="M51.206,53.877c-0.031-0.032-0.224,0.108-0.166,0.166C51.07,54.074,51.263,53.935,51.206,53.877z"/>
		</g>
		<g>
			<path fill="#FEFFFF" d="M43.957,17.585c0.031,0.031,0.094,0.022,0.036-0.036C43.963,17.518,43.899,17.527,43.957,17.585z"/>
		</g>
		<g>
			<path fill="#FEFFFF" d="M44.433,24.943c-0.193-0.006-0.329,0.128-0.378,0.265C44.248,25.215,44.384,25.081,44.433,24.943z"/>
		</g>
		<g>
			<path fill="#FEFFFF" d="M43.995,39.26c0.377,0.339,0.316-0.472-0.024-0.059C43.962,39.213,43.995,39.26,43.995,39.26z"/>
		</g>
		<g>
			<path fill="#FEFFFF" d="M44.129,96.65c0,0.062,0.14,0.132,0.161,0.006C44.291,96.592,44.15,96.522,44.129,96.65z"/>
		</g>
		<g>
			<path fill="#FEFFFF" d="M44.561,51.114c-0.031-0.031-0.167,0.052-0.109,0.111C44.482,51.256,44.619,51.173,44.561,51.114z"/>
		</g>
		<g>
			<path fill="#FEFFFF" d="M44.505,43.607c0-0.062-0.078-0.126-0.099,0.001C44.405,43.671,44.483,43.735,44.505,43.607z"/>
		</g>
		<g>
			<path fill="#FEFFFF" d="M46.412,48.37c-0.031-0.031-0.21,0.094-0.152,0.153C46.29,48.554,46.469,48.428,46.412,48.37z"/>
		</g>
		<g>
			<path fill="#FEFFFF" d="M46.408,102.417c-0.143-0.006-0.093-0.216-0.274-0.184C45.96,102.51,46.452,102.634,46.408,102.417z"/>
		</g>
		<g>
			<path fill="#FEFFFF" d="M46.082,60.562c0.031,0.031,0.163-0.048,0.105-0.106C46.157,60.426,46.025,60.504,46.082,60.562z"/>
		</g>
		<g>
			<path fill="#FEFFFF" d="M46.617,102.473c0.001,0.113,0.171,0.136,0.199-0.005C46.69,102.48,46.667,102.31,46.617,102.473z"/>
		</g>
		<g>
			<path fill="#FEFFFF" d="M46.598,15.618c0.087-0.025,0.274-0.057,0.277-0.165C46.789,15.478,46.601,15.51,46.598,15.618z"/>
		</g>
		<g>
			<path fill="#FEFFFF" d="M46.086,26.089c0.031,0.031,0.141-0.025,0.083-0.082C46.138,25.976,46.028,26.031,46.086,26.089z"/>
		</g>
		<g>
			<path fill="#FEFFFF" d="M46.663,47.738c-0.001,0.062,0.138,0.133,0.159,0.006C46.823,47.682,46.684,47.611,46.663,47.738z"/>
		</g>
		<g>
			<path fill="#FEFFFF" d="M50.268,53.761c-0.032,0.255,0.032,0.405,0.228,0.432C50.673,54.027,50.617,53.709,50.268,53.761z"/>
		</g>
		<g>
			<path fill="#FEFFFF" d="M43.374,13.936c0.001-0.062-0.089-0.126-0.11,0.001C43.264,13.999,43.353,14.063,43.374,13.936z"/>
		</g>
		<g>
			<path fill="#FEFFFF" d="M44.656,27.063c0.127-0.012,0.182,0.135,0.232-0.027C44.887,26.923,44.684,26.922,44.656,27.063z"/>
		</g>
		<g>
			<path fill="#FEFFFF" d="M43.209,75.718c-0.09,0.678,0.532,0.1,0.019,0.024C43.217,75.741,43.209,75.718,43.209,75.718z"/>
		</g>
		<g>
			<path fill="#FEFFFF" d="M42.543,44.489c0.006-0.144,0.142-0.133,0.111-0.314c-0.112,0-0.22-0.026-0.332-0.026
				c0,0.112,0,0.246,0,0.358C42.397,44.507,42.468,44.489,42.543,44.489z"/>
		</g>
		<g>
			<path fill="#FEFFFF" d="M41.647,55.7c0,0.062-0.021,0.115,0-0.013C41.648,55.625,41.668,55.573,41.647,55.7z"/>
		</g>
		<g>
			<path fill="#FEFFFF" d="M41.636,47.658c-0.031-0.031-0.116,0-0.059,0.058C41.609,47.747,41.694,47.716,41.636,47.658z"/>
		</g>
		<g>
			<path fill="#FEFFFF" d="M43.499,37.963c-0.031-0.031-0.194,0.078-0.136,0.136C43.394,38.13,43.557,38.021,43.499,37.963z"/>
		</g>
		<g>
			<path fill="#FEFFFF" d="M43.603,84.678c0,0.062,0.151,0.134,0.173,0.007C43.776,84.624,43.625,84.551,43.603,84.678z"/>
		</g>
		<g>
			<path fill="#FEFFFF" d="M45.003,15.644c-0.031-0.031-0.127,0.011-0.068,0.069C44.965,15.745,45.061,15.702,45.003,15.644z"/>
		</g>
		<g>
			<path fill="#FEFFFF" d="M45.176,87.112c0,0.112-0.144,0.062-0.165,0.152c0.143,0.006,0.116,0.084,0.297,0.053
				C45.314,87.124,45.314,87.16,45.176,87.112z"/>
		</g>
		<g>
			<path fill="#FEFFFF" d="M45.157,89.029c0,0.063,0.239,0.144,0.26,0.017C45.417,88.984,45.178,88.901,45.157,89.029z"/>
		</g>
		<g>
			<path fill="#FEFFFF" d="M45.41,100.068c-0.031-0.031-0.226,0.109-0.168,0.168C45.273,100.266,45.468,100.125,45.41,100.068z"/>
		</g>
		<g>
			<path fill="#FEFFFF" d="M45.052,56.897c-0.151-0.036-0.28-0.18-0.515-0.132C44.358,57.077,45.088,57.095,45.052,56.897z"/>
		</g>
		<g>
			<path fill="#FEFFFF" d="M50.079,76.043c-0.031-0.031-0.255,0.139-0.197,0.197C49.912,76.271,50.137,76.101,50.079,76.043z"/>
		</g>
		<g>
			<path fill="#FEFFFF" d="M48.253,78.39c0.174-0.275-0.36-0.312-0.315-0.095c0.068,0.006,0.13,0.018,0.11,0.112
				C48.122,78.407,48.178,78.39,48.253,78.39z"/>
		</g>
		<g>
			<path fill="#FEFFFF" d="M49.965,18.968c-0.031-0.031-0.255,0.14-0.197,0.197C49.799,19.197,50.023,19.026,49.965,18.968z"/>
		</g>
		<g>
			<path fill="#FEFFFF" d="M47.873,57.003c0.015,0.394,0.628,0.411,0.91,0.541C48.889,57.035,48.186,56.746,47.873,57.003z"/>
		</g>
		<g>
			<path fill="#FEFFFF" d="M49.847,32.181c0.031,0.031,0.215-0.099,0.158-0.158C49.973,31.993,49.789,32.123,49.847,32.181z"/>
		</g>
		<g>
			<path fill="#FEFFFF" d="M47.531,14.35c-0.087,0.025-0.174-0.044-0.177,0.066C47.441,14.39,47.529,14.458,47.531,14.35z"/>
		</g>
		<g>
			<path fill="#FEFFFF" d="M49.865,38.835c-0.149,0-0.165-0.023-0.315-0.023C49.526,39.178,49.943,39.277,49.865,38.835z"/>
		</g>
		<g>
			<path fill="#FEFFFF" d="M49.12,48.238c0.074,0,0.066,0.046,0.141,0.046c0-0.074,0.057-0.168,0.057-0.243
				c-0.075,0-0.234-0.007-0.308-0.007C49.011,48.109,49.12,48.164,49.12,48.238z"/>
		</g>
		<g>
			<path fill="#FEFFFF" d="M49.124,27.387c0.001,0.113,0.069,0.174,0.096,0.033C49.095,27.432,49.173,27.225,49.124,27.387z"/>
		</g>
		<g>
			<path fill="#FEFFFF" d="M49.473,15.653c-0.297,0.001-0.615-0.095-0.627,0.191C48.999,15.999,49.476,15.984,49.473,15.653z"/>
		</g>
		<g>
			<path fill="#FEFFFF" d="M47.252,49.322c-0.087,0.025-0.173-0.046-0.176,0.063C47.164,49.36,47.249,49.431,47.252,49.322z"/>
		</g>
		<g>
			<path fill="#FEFFFF" d="M49.711,26.269c-0.255-0.031-0.375,0.005-0.402,0.202C49.441,26.612,49.729,26.583,49.711,26.269z"/>
		</g>
		<g>
			<path fill="#FEFFFF" d="M47.545,39.184c0.016-0.352-0.286-0.384-0.559-0.447C46.908,39.151,47.163,39.231,47.545,39.184z"/>
		</g>
		<g>
			<path fill="#FEFFFF" d="M47.771,28.994C47.964,29,48,28.966,48.05,28.828C47.873,28.839,47.719,28.755,47.771,28.994z"/>
		</g>
		<g>
			<path fill="#FEFFFF" d="M48.022,47.433c0.031,0.031,0.182-0.066,0.124-0.124C48.115,47.279,47.964,47.376,48.022,47.433z"/>
		</g>
		<g>
			<path fill="#FEFFFF" d="M47.921,54.362c-0.031-0.031-0.141,0.025-0.083,0.082C47.869,54.475,47.978,54.42,47.921,54.362z"/>
		</g>
		<g>
			<path fill="#FEFFFF" d="M48.446,70.357c-0.001,0.062,0.063,0.123,0.085-0.003C48.53,70.291,48.467,70.23,48.446,70.357z"/>
		</g>
		<g>
			<path fill="#FEFFFF" d="M48.12,52.418c-0.001,0.223-0.249,0.15-0.167,0.455c0.255,0.031,0.376,0.007,0.403-0.19
				C48.209,52.682,48.242,52.446,48.12,52.418z"/>
		</g>
		<g>
			<path fill="#FEFFFF" d="M41.843,19.833c0.27-0.269-0.262-0.257-0.231-0.079C41.611,19.747,41.886,19.79,41.843,19.833z"/>
		</g>
		<g>
			<path fill="#FEFFFF" d="M47.711,64.307c-0.143-0.006-0.129-0.115-0.31-0.084C47.226,64.499,47.755,64.524,47.711,64.307z"/>
		</g>
		<g>
			<path fill="#FEFFFF" d="M47.953,48.281c-0.223-0.001-0.128-0.233-0.433-0.152c0,0.112-0.039,0.186-0.039,0.298
				C47.648,48.409,47.918,48.434,47.953,48.281z"/>
		</g>
		<g>
			<path fill="#FEFFFF" d="M47.187,56.141c-0.09,0.678,0.487,0.006-0.026-0.069C47.144,56.07,47.187,56.141,47.187,56.141z"/>
		</g>
		<g>
			<path fill="#FEFFFF" d="M48.742,52.085c-0.087,0.025-0.303,0.085-0.305,0.194C48.524,52.254,48.74,52.194,48.742,52.085z"/>
		</g>
		<g>
			<path fill="#FEFFFF" d="M48.179,43.542c-0.176,0.166-0.204,0.374,0.145,0.321C48.355,43.609,48.376,43.569,48.179,43.542z"/>
		</g>
		<g>
			<path fill="#FEFFFF" d="M48.405,38.231c0.024,0.135,0.055,0.042,0.154-0.027C48.558,38.091,48.432,38.09,48.405,38.231z"/>
		</g>
		<g>
			<path fill="#FEFFFF" d="M48.483,88.584c-0.001-0.113-0.13-0.133-0.157,0.008C48.349,88.727,48.383,88.653,48.483,88.584z"/>
		</g>
		<g>
			<path fill="#FEFFFF" d="M71.787,51.781c-0.285-0.058-0.454-0.184-0.468,0.23C71.574,52.043,71.76,51.977,71.787,51.781z"/>
		</g>
		<g>
			<path fill="#FEFFFF" d="M72.584,88.81c-0.087,0.025-0.27,0.053-0.273,0.162C72.398,88.946,72.581,88.919,72.584,88.81z"/>
		</g>
		<g>
			<path fill="#FEFFFF" d="M70.598,35.957c0.087-0.025,0.22-0.002,0.223-0.111C70.735,35.871,70.601,35.848,70.598,35.957z"/>
		</g>
		<g>
			<path fill="#FEFFFF" d="M71.903,39.018c0.031,0.031,0.127-0.011,0.069-0.069C71.941,38.917,71.845,38.96,71.903,39.018z"/>
		</g>
		<g>
			<path fill="#FEFFFF" d="M71.009,57.141c0.035-0.445-0.24-0.666-0.697-0.621c0,0.149-0.005,0.389-0.005,0.539
				C70.597,57.262,70.674,56.981,71.009,57.141z"/>
		</g>
		<g>
			<path fill="#FEFFFF" d="M73.463,29.73c-0.151-0.036-0.266-0.211-0.5-0.164C72.879,29.947,73.443,30.054,73.463,29.73z"/>
		</g>
		<g>
			<path fill="#FEFFFF" d="M71.64,25.068c-0.087,0.025-0.239,0.022-0.243,0.13C71.484,25.173,71.637,25.177,71.64,25.068z"/>
		</g>
		<g>
			<path fill="#FEFFFF" d="M73.348,57.617c0.022,0.013,0.108,0.162,0.225,0.069C73.651,57.624,72.917,57.367,73.348,57.617z"/>
		</g>
		<g>
			<path fill="#FEFFFF" d="M73.863,20.608c-0.087,0.025-0.228,0.011-0.231,0.119C73.719,20.702,73.86,20.717,73.863,20.608z"/>
		</g>
		<g>
			<path fill="#FEFFFF" d="M73.246,41.593c-0.087,0.025-0.282,0.064-0.285,0.173C73.048,41.741,73.243,41.701,73.246,41.593z"/>
		</g>
		<g>
			<path fill="#FEFFFF" d="M72.471,75.269c-0.087,0.025-0.17-0.048-0.172,0.061C72.386,75.305,72.468,75.378,72.471,75.269z"/>
		</g>
		<g>
			<path fill="#FEFFFF" d="M72.154,51.638c0.031,0.031,0.209-0.093,0.151-0.151C72.274,51.456,72.095,51.58,72.154,51.638z"/>
		</g>
		<g>
			<path fill="#FEFFFF" d="M72.766,78.428c0.089,0.153,0.137,0.011,0.023-0.12C72.671,78.175,72.686,78.29,72.766,78.428z"/>
		</g>
		<g>
			<path fill="#FEFFFF" d="M70.36,61.04c0.132-0.017,0.264,0.072,0.283-0.059C70.511,60.998,70.378,60.909,70.36,61.04z"/>
		</g>
		<g>
			<path fill="#FEFFFF" d="M72.466,15.641c0.78-0.251,1.438,0.607,1.744,0.117c-0.132-0.017-0.403-0.04-0.421-0.171
				c0.389-0.09,0.452,0.203,0.806,0.148c0.098-0.359-0.261-0.19-0.307-0.406c0.321,0.022,0.623-0.091,0.572-0.441
				c-0.634-0.074-1.048,0.241-1.24,0.608c-0.228-0.225-0.244-0.064-0.472-0.002c-0.01-0.176-0.32-0.045-0.258-0.293
				C72.604,15.215,72.48,15.356,72.466,15.641z"/>
		</g>
		<g>
			<path fill="#FEFFFF" d="M72.336,16.426c0.031,0.031,0.252-0.136,0.194-0.194C72.5,16.201,72.278,16.369,72.336,16.426z"/>
		</g>
		<g>
			<path fill="#FEFFFF" d="M71.641,16.243c-0.126,0.012-0.19-0.1-0.24,0.063C71.402,16.418,71.613,16.384,71.641,16.243z"/>
		</g>
		<g>
			<path fill="#FEFFFF" d="M72.486,15.046c-0.031-0.031-0.255,0.14-0.197,0.197C72.319,15.275,72.543,15.104,72.486,15.046z"/>
		</g>
		<g>
			<path fill="#FEFFFF" d="M71.627,13.554c-0.031-0.031-0.113-0.003-0.055,0.055C71.603,13.64,71.685,13.612,71.627,13.554z"/>
		</g>
		<g>
			<path fill="#FEFFFF" d="M71.76,14.64c0.349,0.151,0.449-0.076,0.634-0.155c0.118-0.051,0.286-0.044,0.293-0.201
				c-0.166-0.058-0.256-0.152-0.421-0.21C72.245,14.389,71.843,14.387,71.76,14.64z"/>
		</g>
		<g>
			<path fill="#FEFFFF" d="M71.3,15.223c0.075,0,0.187-0.055,0.262-0.055c0-0.074,0.071-0.202,0.071-0.277
				c-0.075,0-0.233,0.041-0.308,0.041C71.325,15.006,71.3,15.149,71.3,15.223z"/>
		</g>
		<g>
			<path fill="#FEFFFF" d="M69.845,37.011c-0.001-0.113-0.284-0.137-0.312,0.004C69.659,37.004,69.796,37.174,69.845,37.011z"/>
		</g>
		<g>
			<path fill="#FEFFFF" d="M70.179,57.989c-0.112,0-0.242,0.097-0.354,0.097c0,0.112-0.08,0.2-0.08,0.311
				c0.075,0,0.23,0.004,0.304,0.004C70.056,58.258,70.211,58.169,70.179,57.989z"/>
		</g>
		<g>
			<path fill="#FEFFFF" d="M69.825,35.869c0.001,0.113,0.285,0.135,0.312-0.005C70.012,35.875,69.874,35.707,69.825,35.869z"/>
		</g>
		<g>
			<path fill="#FEFFFF" d="M70.059,45.002c0.034-0.295-0.174-0.386-0.467-0.354C69.48,45.021,69.767,45.033,70.059,45.002z"/>
		</g>
		<g>
			<path fill="#FEFFFF" d="M70.309,17.334c0.193,0.006,0.339-0.138,0.388-0.276C70.521,17.068,70.256,17.095,70.309,17.334z"/>
		</g>
		<g>
			<path fill="#FEFFFF" d="M77.888,92.458c-0.453-0.394-0.303,0.414-0.039,0.054C77.869,92.486,77.888,92.458,77.888,92.458z"/>
		</g>
		<g>
			<path fill="#FEFFFF" d="M76.827,17.974c0.001-0.062-0.037-0.121-0.058,0.006C76.769,18.042,76.806,18.101,76.827,17.974z"/>
		</g>
		<g>
			<path fill="#FEFFFF" d="M77.05,91.602c0.032-0.479-0.332-0.426-0.716-0.49C76.284,91.609,76.552,91.653,77.05,91.602z"/>
		</g>
		<g>
			<path fill="#FEFFFF" d="M77.339,89.768c-0.195-0.009-0.264-0.019-0.364,0.068c-0.077,0.301,0.201,0.19,0.305,0.309
				C77.316,89.993,77.386,90.001,77.339,89.768z"/>
		</g>
		<g>
			<path fill="#FEFFFF" d="M76.994,87.314c0.031,0.031,0.225-0.109,0.167-0.167C77.13,87.117,76.936,87.256,76.994,87.314z"/>
		</g>
		<g>
			<path fill="#FEFFFF" d="M77.329,89.106c-0.031-0.031-0.112-0.005-0.054,0.053C77.307,89.189,77.387,89.163,77.329,89.106z"/>
		</g>
		<g>
			<path fill="#FEFFFF" d="M76.916,73.851c0.075,0,0.118-0.095,0.193-0.095c0-0.074,0.095-0.118,0.095-0.192
				c-0.075,0-0.233-0.02-0.308-0.02C76.895,73.617,76.916,73.776,76.916,73.851z"/>
		</g>
		<g>
			<path fill="#FEFFFF" d="M76.753,65.242c0.006-0.193-0.086-0.251-0.224-0.299C76.369,65.106,76.364,65.339,76.753,65.242z"/>
		</g>
		<g>
			<path fill="#FEFFFF" d="M72.215,16.791c0.006-0.143,0.088-0.219,0.056-0.399c-0.075,0-0.133,0.041-0.208,0.041
				c-0.006,0.143-0.132,0.098-0.101,0.278C72.037,16.711,72.14,16.791,72.215,16.791z"/>
		</g>
		<g>
			<path fill="#FEFFFF" d="M78.057,41.039c-0.031-0.031-0.162,0.045-0.104,0.103C77.985,41.173,78.115,41.097,78.057,41.039z"/>
		</g>
		<g>
			<path fill="#FEFFFF" d="M73.305,46.234c0.031,0.031,0.12-0.004,0.062-0.062C73.336,46.142,73.247,46.177,73.305,46.234z"/>
		</g>
		<g>
			<path fill="#FEFFFF" d="M77.962,74.147c-0.165-0.058-0.319-0.198-0.485-0.256C77.369,74.164,78.017,74.295,77.962,74.147z"/>
		</g>
		<g>
			<path fill="#FEFFFF" d="M76.184,74.291c0,0.112,0.025,0.145,0.025,0.256C76.536,74.712,76.511,74.127,76.184,74.291z"/>
		</g>
		<g>
			<path fill="#FEFFFF" d="M78.102,93.545c-0.34,0.378,0.361,0.332-0.053-0.007C78.031,93.524,78.102,93.545,78.102,93.545z"/>
		</g>
		<g>
			<path fill="#FEFFFF" d="M76.211,21.285c-0.031-0.031-0.242,0.127-0.185,0.185C76.057,21.5,76.269,21.343,76.211,21.285z"/>
		</g>
		<g>
			<path fill="#FEFFFF" d="M74.6,19.874c-0.144-0.007-0.144-0.122-0.326-0.091C74.101,20.058,74.645,20.09,74.6,19.874z"/>
		</g>
		<g>
			<path fill="#FEFFFF" d="M74.254,48.196c-0.087,0.025-0.245,0.029-0.248,0.137C74.092,48.308,74.251,48.305,74.254,48.196z"/>
		</g>
		<g>
			<path fill="#FEFFFF" d="M74.426,42.316c-0.031-0.031-0.209,0.094-0.152,0.152C74.306,42.498,74.484,42.374,74.426,42.316z"/>
		</g>
		<g>
			<path fill="#FEFFFF" d="M70.325,18.669c0.179-0.194,0.541-0.194,0.933-0.175c0-0.149-0.025-0.366-0.025-0.515
				c-0.599-0.001-0.923,0.267-1.403,0.384C70.101,18.456,70.184,18.283,70.325,18.669z"/>
		</g>
		<g>
			<path fill="#FEFFFF" d="M74.784,17.029c0.082-0.305-0.192-0.15-0.193-0.373c-0.755,0.083-0.849-0.373-1.382-0.512
				c0.105,0.552-0.152,0.778-0.705,0.673c-0.084,0.42,0.396,0.18,0.416,0.496c-0.478-0.102-0.762,0.103-0.578-0.444
				c-0.462,0.283-0.693-0.434-0.982,0.101c0.132,0.018,0.307-0.022,0.325,0.109c-0.131,0.019-0.122,0.205-0.113,0.364
				c-0.143-0.152-0.502-0.289-0.514-0.004c0.496-0.017-0.115,0.453,0.162,0.585c0.606,0.117,0.85-0.844,1.415-0.395
				c-0.49,0.003-0.015,0.482-0.476,0.57c0.464,0.263,0.796-0.425,1.417-0.366c0.213,0.048,0.244,0.087,0.523,0.07
				c0.01-0.177,0.247,0,0.185-0.247c-0.033-0.233-0.233,0.109-0.266-0.281C74.563,17.547,74.422,17.041,74.784,17.029z"/>
		</g>
		<g>
			<path fill="#FEFFFF" d="M73.331,39.046c-0.031-0.031-0.069-0.047-0.011,0.011C73.351,39.088,73.39,39.104,73.331,39.046z"/>
		</g>
		<g>
			<path fill="#FEFFFF" d="M75.56,17.794c-0.031-0.031-0.061-0.055-0.004,0.003C75.588,17.828,75.619,17.852,75.56,17.794z"/>
		</g>
		<g>
			<path fill="#FEFFFF" d="M74.435,48.687c-0.087,0.025-0.274,0.056-0.277,0.165C74.245,48.827,74.432,48.796,74.435,48.687z"/>
		</g>
		<g>
			<path fill="#FEFFFF" d="M75.36,48.637c-0.001,0.062,0.126,0.13,0.147,0.004C75.508,48.578,75.381,48.509,75.36,48.637z"/>
		</g>
		<g>
			<path fill="#FEFFFF" d="M74.875,15.331c0.245-0.02,0.449,0.095,0.428,0.339c-0.255-0.031-0.459-0.013-0.486,0.184
				c0.373-0.077,0.188,0.318,0.12,0.423c0.715-0.147,0.088,0.248,0.664,0.239c0.046-0.27-0.244-0.276-0.152-0.593
				c0.279-0.094,0.726-0.094,1.133-0.06c-0.374-0.229-0.86-0.415-1.241-0.634C75.201,15.228,74.892,15.009,74.875,15.331z"/>
		</g>
		<g>
			<path fill="#FEFFFF" d="M75.665,35.148c-0.031-0.031-0.188,0.072-0.13,0.13C75.566,35.309,75.723,35.205,75.665,35.148z"/>
		</g>
		<g>
			<path fill="#FEFFFF" d="M75.855,17.179c-0.112,0-0.252,0.112-0.364,0.112C74.839,17.29,75.885,17.48,75.855,17.179z"/>
		</g>
		<g>
			<path fill="#FEFFFF" d="M63.019,69.381c-0.074,0-0.183-0.11-0.257-0.11c0,0.074,0.122,0.171,0.122,0.245
				c0.074,0,0.16,0.112,0.234,0.112C63.119,69.553,63.019,69.455,63.019,69.381z"/>
		</g>
		<g>
			<path fill="#FEFFFF" d="M63.186,10.343c-0.382-0.085-0.447,0.46-0.122,0.48C63.039,10.611,63.2,10.543,63.186,10.343z"/>
		</g>
		<g>
			<path fill="#FEFFFF" d="M62.452,10.667c-0.27,0.375,0.469-0.154,0.093,0.117C62.52,10.799,62.452,10.667,62.452,10.667z"/>
		</g>
		<g>
			<path fill="#FEFFFF" d="M62.588,20.906c0.193,0.006,0.241-0.041,0.291-0.179C62.685,20.722,62.636,20.769,62.588,20.906z"/>
		</g>
		<g>
			<path fill="#FEFFFF" d="M63.662,18.154c-0.087,0.025-0.2-0.018-0.203,0.091C63.546,18.22,63.66,18.262,63.662,18.154z"/>
		</g>
		<g>
			<path fill="#FEFFFF" d="M62.583,52.583c0.087-0.025,0.247-0.03,0.25-0.139C62.746,52.469,62.586,52.474,62.583,52.583z"/>
		</g>
		<g>
			<path fill="#FEFFFF" d="M62.186,13.564c0.176-0.011,0.386,0.05,0.333-0.189c-0.074,0-0.108,0.054-0.182,0.054
				C62.337,13.54,62.207,13.473,62.186,13.564z"/>
		</g>
		<g>
			<path fill="#FEFFFF" d="M62.503,78.866c0-0.149-0.084-0.268-0.084-0.417c-0.13-0.093-0.275-0.219-0.535-0.184
				C61.949,78.574,62.061,78.934,62.503,78.866z"/>
		</g>
		<g>
			<path fill="#FEFFFF" d="M64.615,95.653c-0.087,0.025-0.179-0.039-0.182,0.07C64.52,95.698,64.612,95.762,64.615,95.653z"/>
		</g>
		<g>
			<path fill="#FEFFFF" d="M60.538,46.344c-0.074,0-0.09-0.051-0.164-0.051c0,0.074-0.075,0.215-0.075,0.289
				c0.074,0,0.153-0.136,0.227-0.136C60.527,46.372,60.538,46.418,60.538,46.344z"/>
		</g>
		<g>
			<path fill="#FEFFFF" d="M63.487,70.056c-0.398-0.013-0.339-0.385-0.828-0.307c-0.06,0.304-0.234,0.207-0.369,0.601
				c0.13,0.249,1.105,0.332,1.198,0.247C63.16,70.501,63.554,70.255,63.487,70.056z"/>
		</g>
		<g>
			<path fill="#FEFFFF" d="M65.083,38.909c-0.27,0.375,0.327-0.33-0.049-0.059C65.03,38.854,65.083,38.909,65.083,38.909z"/>
		</g>
		<g>
			<path fill="#FEFFFF" d="M63.904,26.753c-0.075,0-0.247,0.027-0.322,0.027c0,0.074,0.093,0.127,0.093,0.202
				c0.075,0,0.04,0.005,0.114,0.005C63.789,26.912,63.904,26.828,63.904,26.753z"/>
		</g>
		<g>
			<path fill="#FEFFFF" d="M65.823,33.432c-0.001-0.113-0.216-0.198-0.243-0.057C65.706,33.364,65.773,33.595,65.823,33.432z"/>
		</g>
		<g>
			<path fill="#FEFFFF" d="M61.715,58.932c0.087-0.025,0.174,0.044,0.177-0.065C61.806,58.893,61.718,58.824,61.715,58.932z"/>
		</g>
		<g>
			<path fill="#FEFFFF" d="M59.648,66.398c-0.27,0.375,0.41-0.262,0.034,0.009C59.656,66.421,59.648,66.398,59.648,66.398z"/>
		</g>
		<g>
			<path fill="#FEFFFF" d="M59.832,94.228c0,0.074,0.026,0.036,0.026,0.11c0.112,0,0.059,0.149,0.149,0.17
				C59.996,94.333,60.071,94.176,59.832,94.228z"/>
		</g>
		<g>
			<path fill="#FEFFFF" d="M59.85,82.14c0.02-0.244-0.111-0.375-0.356-0.355C59.473,82.029,59.605,82.161,59.85,82.14z"/>
		</g>
		<g>
			<path fill="#FEFFFF" d="M60.394,34.513c-0.087,0.025-0.315,0.098-0.319,0.206C60.163,34.694,60.391,34.622,60.394,34.513z"/>
		</g>
		<g>
			<path fill="#FEFFFF" d="M60.247,87.485c-0.223-0.001-0.107-0.279-0.412-0.197c0,0.112-0.048,0.226-0.048,0.338
				C59.954,87.607,60.212,87.637,60.247,87.485z"/>
		</g>
		<g>
			<path fill="#FEFFFF" d="M59.363,76.525c-0.087,0.078-0.207,0.808,0.042,0.855C59.499,77.17,59.777,76.615,59.363,76.525z"/>
		</g>
		<g>
			<path fill="#FEFFFF" d="M58.894,36.674c0,0.062-0.063,0.11-0.042-0.017C58.853,36.595,58.915,36.547,58.894,36.674z"/>
		</g>
		<g>
			<path fill="#FEFFFF" d="M72.103,16.213c-0.031-0.031-0.119,0.003-0.062,0.061C72.072,16.304,72.16,16.27,72.103,16.213z"/>
		</g>
		<g>
			<path fill="#FEFFFF" d="M59.127,48.538c-0.087,0.025-0.151-0.068-0.154,0.041C59.061,48.553,59.124,48.646,59.127,48.538z"/>
		</g>
		<g>
			<path fill="#FEFFFF" d="M59.178,96.593c-0.149,0-0.184,0.03-0.334,0.03c0,0.074-0.056,0.116-0.056,0.191
				C58.986,96.789,59.291,96.93,59.178,96.593z"/>
		</g>
		<g>
			<path fill="#FEFFFF" d="M59.33,91.533c-0.075,0-0.107-0.021-0.181-0.021c0,0.074,0.01,0.118,0.01,0.192
				c0.074,0,0.096-0.011,0.17-0.011C59.329,91.618,59.33,91.607,59.33,91.533z"/>
		</g>
		<g>
			<path fill="#FEFFFF" d="M58.739,35.495c0.031,0.031,0.223-0.107,0.165-0.165C58.872,35.3,58.681,35.438,58.739,35.495z"/>
		</g>
		<g>
			<path fill="#FEFFFF" d="M58.878,55.725c0.031,0.031,0.21-0.094,0.152-0.152C58.999,55.542,58.819,55.667,58.878,55.725z"/>
		</g>
		<g>
			<path fill="#FEFFFF" d="M67.811,91.111c-0.377-0.341-0.406,0.454-0.066,0.04C67.769,91.123,67.811,91.111,67.811,91.111z"/>
		</g>
		<g>
			<path fill="#FEFFFF" d="M74.545,14.725c-0.099-0.054-0.191-0.121-0.29-0.175c0,0.094,0.001,0.229,0.001,0.322
				C74.368,14.792,74.459,14.738,74.545,14.725z"/>
		</g>
		<g>
			<path fill="#FEFFFF" d="M69.469,74.577c-0.087,0.025-0.26,0.042-0.263,0.151C69.293,74.702,69.466,74.686,69.469,74.577z"/>
		</g>
		<g>
			<path fill="#FEFFFF" d="M68.53,54.362c0.075,0,0.137-0.045,0.211-0.045c0-0.075-0.017-0.074-0.017-0.149
				c-0.075,0-0.062-0.005-0.137-0.005C68.587,54.238,68.53,54.287,68.53,54.362z"/>
		</g>
		<g>
			<path fill="#FEFFFF" d="M68.857,89.509c-0.143-0.007-0.19-0.234-0.37-0.204C68.313,89.581,68.901,89.726,68.857,89.509z"/>
		</g>
		<g>
			<path fill="#FEFFFF" d="M67.422,36.655c0,0.074,0.044,0.099,0.044,0.173c0.112,0,0.166,0.047,0.278,0.047
				C67.758,36.675,67.647,36.616,67.422,36.655z"/>
		</g>
		<g>
			<path fill="#FEFFFF" d="M68.602,16.8c0.087-0.025,0.223-0.005,0.225-0.114C68.741,16.711,68.606,16.691,68.602,16.8z"/>
		</g>
		<g>
			<path fill="#FEFFFF" d="M74.652,58.43c0.031,0.031,0.275-0.159,0.217-0.217C74.839,58.182,74.594,58.373,74.652,58.43z"/>
		</g>
		<g>
			<path fill="#FEFFFF" d="M74.698,24.894c0,0.075,0.05,0.107,0.05,0.182c0.112,0,0.157,0.045,0.269,0.045
				C75.032,24.92,74.923,24.857,74.698,24.894z"/>
		</g>
		<g>
			<path fill="#FEFFFF" d="M76.026,16.702c-0.149,0-0.374,0.047-0.523,0.047C75.426,17.191,76.05,17.069,76.026,16.702z"/>
		</g>
		<g>
			<path fill="#FEFFFF" d="M75.2,16.699c-0.031-0.031-0.073-0.043-0.015,0.014C75.217,16.745,75.258,16.757,75.2,16.699z"/>
		</g>
		<g>
			<path fill="#FEFFFF" d="M74.949,18.121c0,0.075,0.03,0.042,0.03,0.117c0.112,0,0.105,0.027,0.217,0.027
				C75.211,18.064,75.173,18.084,74.949,18.121z"/>
		</g>
		<g>
			<path fill="#FEFFFF" d="M67.197,21.555c0.001,0.113,0.209,0.136,0.236-0.005C67.308,21.562,67.247,21.392,67.197,21.555z"/>
		</g>
		<g>
			<path fill="#FEFFFF" d="M68.032,20.727c-0.031-0.031-0.164,0.048-0.107,0.106C67.957,20.864,68.09,20.784,68.032,20.727z"/>
		</g>
		<g>
			<path fill="#FEFFFF" d="M67.633,22.244c-0.031-0.031-0.157,0.042-0.099,0.1C67.564,22.375,67.691,22.303,67.633,22.244z"/>
		</g>
		<g>
			<path fill="#FEFFFF" d="M68.082,19.554c-0.126,0.011-0.203-0.183-0.254-0.02C67.831,19.646,68.054,19.695,68.082,19.554z"/>
		</g>
		<g>
			<path fill="#FEFFFF" d="M66.846,19.786c0.031,0.031,0.209-0.094,0.152-0.152C66.967,19.603,66.788,19.728,66.846,19.786z"/>
		</g>
		<g>
			<path fill="#FEFFFF" d="M66.149,51.481c-0.087,0.025-0.355,0.137-0.358,0.246C65.878,51.702,66.146,51.59,66.149,51.481z"/>
		</g>
		<g>
			<path fill="#FEFFFF" d="M68.282,20.924c-0.074,0-0.154-0.085-0.228-0.085c0,0.075,0.073,0.167,0.073,0.242
				c0.074,0,0.105,0.011,0.18,0.011C68.306,21.017,68.282,20.999,68.282,20.924z"/>
		</g>
		<g>
			<path fill="#FEFFFF" d="M66.883,93.93c0.155-0.153,0.106-0.715-0.225-0.712C66.418,93.457,66.617,93.868,66.883,93.93z"/>
		</g>
		<g>
			<path fill="#FEFFFF" d="M67.197,65.095c0.031,0.031,0.192-0.076,0.134-0.133C67.299,64.931,67.139,65.038,67.197,65.095z"/>
		</g>
		<g>
			<path fill="#FEFFFF" d="M67.011,27.54c-0.039,0.298-0.349,0.365-0.405,0.645c0.381,0.181,0.906,0.002,1.287-0.127
				C67.876,27.591,67.547,27.488,67.011,27.54z"/>
		</g>
		<g>
			<path fill="#FEFFFF" d="M66.681,91.015c-0.031-0.031-0.281,0.165-0.223,0.223C66.489,91.269,66.738,91.073,66.681,91.015z"/>
		</g>
		<g>
			<path fill="#FEFFFF" d="M65.699,59.093c-0.031-0.031-0.143,0.027-0.085,0.085C65.646,59.209,65.757,59.151,65.699,59.093z"/>
		</g>
		<g>
			<path fill="#FEFFFF" d="M66.791,19.474c0.302,0.264,0.827-0.31,0.523-0.571C67.279,19.166,66.709,19.093,66.791,19.474z"/>
		</g>
		<g>
			<path fill="#FEFFFF" d="M25.864,21.449c-0.075,0-0.13,0.01-0.205,0.01c0,0.074-0.02,0.138-0.02,0.213
				c0.075,0,0.1-0.059,0.175-0.059C25.815,21.538,25.864,21.523,25.864,21.449z"/>
		</g>
		<g>
			<path fill="#FEFFFF" d="M9.814,36.254c-0.031-0.031-0.107-0.009-0.049,0.049C9.796,36.333,9.872,36.312,9.814,36.254z"/>
		</g>
		<g>
			<path fill="#FEFFFF" d="M9.464,37.162c0.031,0.031,0.275-0.16,0.218-0.217C9.65,36.913,9.406,37.104,9.464,37.162z"/>
		</g>
		<g>
			<path fill="#FEFFFF" d="M10.456,58.778c-0.087,0.025-0.085-0.133-0.089-0.024C10.455,58.729,10.453,58.887,10.456,58.778z"/>
		</g>
		<g>
			<path fill="#FEFFFF" d="M9.78,36.511c-0.087,0.025-0.244,0.026-0.247,0.135C9.619,36.621,9.777,36.62,9.78,36.511z"/>
		</g>
		<g>
			<path fill="#FEFFFF" d="M7.334,62.68c-0.031-0.031-0.189,0.073-0.131,0.13C7.234,62.841,7.392,62.738,7.334,62.68z"/>
		</g>
		<g>
			<path fill="#FEFFFF" d="M8.362,54.243c0,0.062,0.054,0.122,0.075-0.004C8.438,54.177,8.383,54.116,8.362,54.243z"/>
		</g>
		<g>
			<path fill="#FEFFFF" d="M7.023,70.601c0.031,0.031,0.133-0.018,0.075-0.075C7.067,70.495,6.965,70.543,7.023,70.601z"/>
		</g>
		<g>
			<path fill="#FEFFFF" d="M13.156,56.041c-0.149-0.146-0.453-0.137-0.484,0.122C12.82,56.309,13.124,56.3,13.156,56.041z"/>
		</g>
		<g>
			<path fill="#FEFFFF" d="M11.258,83.825c-0.271,0.376,0.383-0.246,0.007,0.024C11.238,83.876,11.258,83.825,11.258,83.825z"/>
		</g>
		<g>
			<path fill="#FEFFFF" d="M10.07,79.531c0.087-0.025,0.237-0.019,0.241-0.128C10.223,79.428,10.073,79.422,10.07,79.531z"/>
		</g>
		<g>
			<path fill="#FEFFFF" d="M13.028,39.981c-0.087,0.025-0.193-0.025-0.196,0.083C12.918,40.039,13.025,40.09,13.028,39.981z"/>
		</g>
		<g>
			<path fill="#FEFFFF" d="M10.69,73.316c0.031,0.031,0.281-0.165,0.223-0.223C10.883,73.061,10.633,73.258,10.69,73.316z"/>
		</g>
		<g>
			<path fill="#FEFFFF" d="M10.398,69.02c-0.087,0.025-0.18-0.039-0.183,0.07C10.302,69.065,10.395,69.128,10.398,69.02z"/>
		</g>
		<g>
			<path fill="#FEFFFF" d="M11.488,78.786c-0.087,0.025-0.147-0.071-0.15,0.038C11.425,78.799,11.486,78.895,11.488,78.786z"/>
		</g>
		<g>
			<path fill="#FEFFFF" d="M4.741,51.074c-0.006,0.069-0.092-0.009-0.187-0.031c0,0.075-0.01,0.253-0.01,0.329
				C4.819,51.546,4.958,51.029,4.741,51.074z"/>
		</g>
		<g>
			<path fill="#FEFFFF" d="M4.058,52.322c0,0.063,0.158,0.135,0.179,0.007C4.238,52.268,4.079,52.196,4.058,52.322z"/>
		</g>
		<g>
			<path fill="#FEFFFF" d="M5.166,45.373c-0.087,0.025-0.174-0.044-0.177,0.065C5.076,45.413,5.163,45.482,5.166,45.373z"/>
		</g>
		<g>
			<path fill="#FEFFFF" d="M6.876,38.181c0.031,0.031,0.06,0.056,0.002-0.002C6.847,38.148,6.818,38.123,6.876,38.181z"/>
		</g>
		<g>
			<path fill="#FEFFFF" d="M13.603,50.926c-0.377-0.339-0.338,0.524,0.001,0.11C13.631,51.003,13.603,50.926,13.603,50.926z"/>
		</g>
		<g>
			<path fill="#FEFFFF" d="M3.777,49.549c0.002,0.113,0.077,0.15,0.105,0.009C3.756,49.569,3.827,49.387,3.777,49.549z"/>
		</g>
		<g>
			<path fill="#FEFFFF" d="M4.84,68.083c0.007-0.068,0.036-0.181,0.131-0.16c-0.013-0.137-0.076-0.294-0.266-0.252
				C4.722,67.801,4.709,68.065,4.84,68.083z"/>
		</g>
		<g>
			<path fill="#FEFFFF" d="M6.211,55.395c-0.126,0.011-0.088-0.199-0.138-0.036C6.075,55.472,6.183,55.536,6.211,55.395z"/>
		</g>
		<g>
			<path fill="#FEFFFF" d="M5.511,69.681c-0.001,0.062,0.127,0.132,0.148,0.004C5.659,69.624,5.532,69.554,5.511,69.681z"/>
		</g>
		<g>
			<path fill="#FEFFFF" d="M42.058,50.357c-0.126,0.011-0.155-0.208-0.205-0.045C41.855,50.424,42.031,50.498,42.058,50.357z"/>
		</g>
		<g>
			<path fill="#FEFFFF" d="M6.133,70.05c0.35,0.051,0.41-0.291,0.387-0.611c-0.132,0.017-0.342-0.014-0.36,0.117
				C6.496,69.629,6.026,69.842,6.133,70.05z"/>
		</g>
		<g>
			<path fill="#FEFFFF" d="M6.113,69.072c-0.34,0.377,0.31,0.316-0.104-0.023C5.971,69.018,6.113,69.072,6.113,69.072z"/>
		</g>
		<g>
			<path fill="#FEFFFF" d="M12.255,55.413c-0.075,0-0.132,0.123-0.208,0.123c0,0.074-0.004,0.014-0.004,0.089
				c0.075,0,0.148,0.127,0.223,0.127C12.266,55.677,12.255,55.487,12.255,55.413z"/>
		</g>
		<g>
			<path fill="#FEFFFF" d="M17.262,36.206c0-0.063,0.091-0.107,0.069,0.021C17.331,36.288,17.241,36.332,17.262,36.206z"/>
		</g>
		<g>
			<path fill="#FEFFFF" d="M17.316,23.274c0.087-0.025,0.231-0.014,0.235-0.122C17.464,23.176,17.319,23.165,17.316,23.274z"/>
		</g>
		<g>
			<path fill="#FEFFFF" d="M17.062,42.329c0.031,0.031,0.195-0.08,0.138-0.138C17.168,42.161,17.004,42.272,17.062,42.329z"/>
		</g>
		<g>
			<path fill="#FEFFFF" d="M12.841,53.348c0.001-0.062-0.212-0.141-0.233-0.014C12.608,53.396,12.82,53.475,12.841,53.348z"/>
		</g>
		<g>
			<path fill="#FEFFFF" d="M17.525,33.586c0.075,0,0.024-0.012,0.098-0.012c0-0.075,0.129-0.141,0.129-0.216
				c-0.075,0-0.258,0.011-0.333,0.011C17.418,33.444,17.525,33.511,17.525,33.586z"/>
		</g>
		<g>
			<path fill="#FEFFFF" d="M17.651,38.562c0-0.062-0.141-0.132-0.162-0.006C17.488,38.618,17.63,38.689,17.651,38.562z"/>
		</g>
		<g>
			<path fill="#FEFFFF" d="M17.577,82.8c0.024-0.088,0.136-0.045,0.267-0.027c-0.124-0.211-0.214-0.59-0.505-0.635
				C17.191,82.285,17.328,82.721,17.577,82.8z"/>
		</g>
		<g>
			<path fill="#FEFFFF" d="M19.651,59.836c0-0.063-0.206-0.141-0.228-0.013C19.423,59.885,19.629,59.963,19.651,59.836z"/>
		</g>
		<g>
			<path fill="#FEFFFF" d="M19.421,27.021c-0.188-0.315-0.809,0.234-0.489,0.393C18.962,27.185,19.468,27.33,19.421,27.021z"/>
		</g>
		<g>
			<path fill="#FEFFFF" d="M18.719,30.512c0.001,0.113,0.186,0.131,0.214-0.01C18.807,30.513,18.769,30.35,18.719,30.512z"/>
		</g>
		<g>
			<path fill="#FEFFFF" d="M19.21,83.158c-0.031-0.031-0.123,0.007-0.065,0.064C19.176,83.253,19.268,83.216,19.21,83.158z"/>
		</g>
		<g>
			<path fill="#FEFFFF" d="M19.319,63.023c-0.019,0.281,0.058,0.237,0.222,0.333C19.573,63.064,19.615,62.989,19.319,63.023z"/>
		</g>
		<g>
			<path fill="#FEFFFF" d="M19.589,79.869c-0.193-0.006-0.269,0.068-0.318,0.206C19.464,80.081,19.54,80.006,19.589,79.869z"/>
		</g>
		<g>
			<path fill="#FEFFFF" d="M17.625,47.113c-0.34,0.377,0.365,0.303-0.049-0.036C17.552,47.058,17.625,47.113,17.625,47.113z"/>
		</g>
		<g>
			<path fill="#FEFFFF" d="M14.17,61.888c-0.342-0.081-0.318,0.102-0.66,0.02c-0.085,0.42,0.324,0.366,0.479,0.547
				C14.078,62.247,14.133,62.15,14.17,61.888z"/>
		</g>
		<g>
			<path fill="#FEFFFF" d="M12.711,61.001c0.107-0.412-0.644-0.48-0.654-0.146C12.321,61.019,12.36,61.125,12.711,61.001z"/>
		</g>
		<g>
			<path fill="#FEFFFF" d="M13.852,66.688c-0.031-0.031-0.077-0.04-0.019,0.018C13.865,66.737,13.91,66.746,13.852,66.688z"/>
		</g>
		<g>
			<path fill="#FEFFFF" d="M13.638,75.518c0.031,0.031,0.16-0.044,0.102-0.102C13.709,75.386,13.58,75.461,13.638,75.518z"/>
		</g>
		<g>
			<path fill="#FEFFFF" d="M13.582,27.622c0.23,0.233,0.69-0.065,0.682-0.4C13.912,27.169,13.684,27.426,13.582,27.622z"/>
		</g>
		<g>
			<path fill="#FEFFFF" d="M11.921,70.729c0.143,0.006,0.148,0.252,0.329,0.22c0.006-0.193-0.151-0.364-0.289-0.412
				C11.962,70.649,11.942,70.638,11.921,70.729z"/>
		</g>
		<g>
			<path fill="#FEFFFF" d="M16.507,50.323c-0.001,0.062,0.141,0.133,0.162,0.006C16.67,50.266,16.528,50.196,16.507,50.323z"/>
		</g>
		<g>
			<path fill="#FEFFFF" d="M16.856,85.622c-0.087,0.025-0.227,0.008-0.23,0.117C16.713,85.713,16.853,85.73,16.856,85.622z"/>
		</g>
		<g>
			<path fill="#FEFFFF" d="M16.932,82.775c-0.001,0.062,0.07,0.124,0.091-0.003C17.022,82.71,16.953,82.648,16.932,82.775z"/>
		</g>
		<g>
			<path fill="#FEFFFF" d="M15.579,58.806c-0.001-0.113-0.057-0.157-0.084-0.016C15.62,58.778,15.53,58.969,15.579,58.806z"/>
		</g>
		<g>
			<path fill="#FEFFFF" d="M15.522,47.672c-0.074,0-0.102-0.035-0.176-0.035c0,0.074,0.031,0.105,0.031,0.18
				c0.075,0,0.094,0.02,0.168,0.02C15.545,47.763,15.522,47.747,15.522,47.672z"/>
		</g>
		<g>
			<path fill="#FEFFFF" d="M16.167,55.297c-0.096,0.228-0.023,0.652,0.104,0.293C16.086,55.588,16.329,55.323,16.167,55.297z"/>
		</g>
		<g>
			<path fill="#FEFFFF" d="M89.99,28.894c0,0.149-0.057,0.253-0.057,0.403c0.286-0.013,0.619-0.075,0.603-0.39
				C90.266,28.952,90.307,28.801,89.99,28.894z"/>
		</g>
		<g>
			<path fill="#FEFFFF" d="M93.66,44c-0.28-0.014-0.301-0.191-0.399,0.134c0.223,0.002,0.125,0.419,0.431,0.338
				C93.692,44.359,93.66,44.112,93.66,44z"/>
		</g>
		<g>
			<path fill="#FEFFFF" d="M92.889,38.516c-0.152-0.035-0.077-0.151-0.311-0.104C92.399,38.724,92.925,38.714,92.889,38.516z"/>
		</g>
		<g>
			<path fill="#FEFFFF" d="M95.016,44.221c0.126-0.011,0.227,0.099,0.276-0.064C95.29,44.044,95.043,44.08,95.016,44.221z"/>
		</g>
		<g>
			<path fill="#FEFFFF" d="M93.659,75.476c-0.031-0.031-0.187,0.071-0.129,0.129C93.561,75.636,93.717,75.534,93.659,75.476z"/>
		</g>
		<g>
			<path fill="#FEFFFF" d="M91.91,32.63c-0.001,0.062,0.069,0.125,0.09-0.003C92,32.565,91.931,32.502,91.91,32.63z"/>
		</g>
		<g>
			<path fill="#FEFFFF" d="M83.784,62.061c-0.089-0.208-0.509-0.341-0.543-0.004c0.243,0.064,0.83,0.28,1.033,0.012
				C84.06,61.86,84.063,62.05,83.784,62.061z"/>
		</g>
		<g>
			<path fill="#FEFFFF" d="M92.13,61.784c-0.031-0.031-0.135,0.019-0.078,0.077C92.083,61.892,92.188,61.842,92.13,61.784z"/>
		</g>
		<g>
			<path fill="#FEFFFF" d="M96.929,61.243c0.031,0.031,0.256-0.14,0.198-0.198C97.096,61.014,96.871,61.185,96.929,61.243z"/>
		</g>
		<g>
			<path fill="#FEFFFF" d="M97.046,58.104c-0.031-0.032-0.155,0.039-0.097,0.097C96.98,58.232,97.104,58.161,97.046,58.104z"/>
		</g>
		<g>
			<path fill="#FEFFFF" d="M95.67,37.992c0.014,0.014,0.087,0.038,0.117,0.019c-0.012-0.028-0.082-0.019-0.094-0.046
				C95.651,37.987,95.635,37.957,95.67,37.992z"/>
		</g>
		<g>
			<path fill="#FEFFFF" d="M78.23,17.012c0.066-0.005,0.176,0.057,0.233,0.041c-0.053-0.036-0.208-0.134-0.261-0.169
				C78.185,16.921,78.225,16.954,78.23,17.012z"/>
		</g>
		<g>
			<path fill="#FEFFFF" d="M95.84,40.539c-0.097,0.424,0.239,0.43,0.427,0.24C96.319,40.429,96.161,40.517,95.84,40.539z"/>
		</g>
		<g>
			<path fill="#FEFFFF" d="M97.095,52.906c-0.031-0.031-0.172,0.056-0.114,0.114C97.012,53.051,97.153,52.965,97.095,52.906z"/>
		</g>
		<g>
			<path fill="#FEFFFF" d="M92.292,49.983c-0.031-0.031-0.113-0.003-0.055,0.055C92.267,50.069,92.35,50.041,92.292,49.983z"/>
		</g>
		<g>
			<path fill="#FEFFFF" d="M89.239,35.092c0.002,0.113,0.19,0.174,0.218,0.033C89.331,35.136,89.289,34.929,89.239,35.092z"/>
		</g>
		<g>
			<path fill="#FEFFFF" d="M87.523,82.727c0.087-0.026,0.282-0.064,0.285-0.173C87.721,82.58,87.526,82.618,87.523,82.727z"/>
		</g>
		<g>
			<path fill="#FEFFFF" d="M88.996,30.11c-0.087,0.025-0.313,0.095-0.316,0.204C88.767,30.288,88.993,30.219,88.996,30.11z"/>
		</g>
		<g>
			<path fill="#FEFFFF" d="M87.767,36.038c-0.031-0.031-0.117,0.001-0.058,0.059C87.74,36.128,87.825,36.096,87.767,36.038z"/>
		</g>
		<g>
			<path fill="#FEFFFF" d="M86.393,67.879c-0.001,0.062,0.168,0.136,0.19,0.009C86.582,67.825,86.414,67.752,86.393,67.879z"/>
		</g>
		<g>
			<path fill="#FEFFFF" d="M85.766,63.778c-0.087,0.025-0.195-0.024-0.198,0.085C85.656,63.838,85.763,63.886,85.766,63.778z"/>
		</g>
		<g>
			<path fill="#FEFFFF" d="M91.633,44.15c-0.031-0.031-0.246,0.13-0.189,0.188C91.475,44.37,91.691,44.208,91.633,44.15z"/>
		</g>
		<g>
			<path fill="#FEFFFF" d="M90.999,81.241c0.085-0.381-0.406-0.498-0.426-0.174C90.724,81.102,90.764,81.289,90.999,81.241z"/>
		</g>
		<g>
			<path fill="#FEFFFF" d="M89.593,29.514c-0.031-0.031-0.187,0.072-0.129,0.129C89.495,29.674,89.651,29.572,89.593,29.514z"/>
		</g>
		<g>
			<path fill="#FEFFFF" d="M91.516,46.07c-0.271,0.375,0.384-0.256,0.008,0.015C91.521,46.087,91.516,46.07,91.516,46.07z"/>
		</g>
		<g>
			<path fill="#FEFFFF" d="M90.818,31.737c0.001-0.062-0.145-0.133-0.167-0.006C90.651,31.794,90.797,31.864,90.818,31.737z"/>
		</g>
		<g>
			<path fill="#FEFFFF" d="M18.72,41.354c0.149,0,0.31,0.026,0.46,0.026C19.204,41.013,18.643,40.912,18.72,41.354z"/>
		</g>
		<g>
			<path fill="#FEFFFF" d="M14.667,61.173c-0.197,0.065-0.681-0.081-0.694,0.167C14.397,61.258,14.597,61.802,14.667,61.173z"/>
		</g>
		<g>
			<path fill="#FEFFFF" d="M79.403,35.543c-0.119,0.65,0.494,0.053,0.009,0.006C79.407,35.549,79.403,35.543,79.403,35.543z"/>
		</g>
		<g>
			<path fill="#FEFFFF" d="M79.802,58.43c0-0.075,0.036-0.069,0.036-0.143c-0.075,0-0.129-0.024-0.203-0.024
				c0,0.074,0.073,0.079,0.073,0.155C79.782,58.417,79.727,58.43,79.802,58.43z"/>
		</g>
		<g>
			<path fill="#FEFFFF" d="M79.306,28.394c0,0.074,0.049,0.056,0.049,0.131c0.112,0,0.218,0.112,0.33,0.112
				C79.699,28.436,79.531,28.356,79.306,28.394z"/>
		</g>
		<g>
			<path fill="#FEFFFF" d="M79.519,47.525c-0.087,0.025-0.24,0.022-0.243,0.131C79.363,47.631,79.516,47.634,79.519,47.525z"/>
		</g>
		<g>
			<path fill="#FEFFFF" d="M79.06,36.44c0.024,0.135,0.052,0.021,0.152-0.048C79.21,36.279,79.087,36.299,79.06,36.44z"/>
		</g>
		<g>
			<path fill="#FEFFFF" d="M79.086,77.614c0.087-0.025,0.142,0.076,0.145-0.033C79.144,77.606,79.09,77.505,79.086,77.614z"/>
		</g>
		<g>
			<path fill="#FEFFFF" d="M51.335,67.091c-0.002-0.113-0.12-0.131-0.148,0.01C51.313,67.09,51.285,67.254,51.335,67.091z"/>
		</g>
		<g>
			<path fill="#FEFFFF" d="M13.754,60.387c-0.016,0.118,0.054,0.284,0.08,0.107C13.851,60.377,13.78,60.209,13.754,60.387z"/>
		</g>
		<g>
			<path fill="#FEFFFF" d="M84.053,79.42c0.001-0.062-0.223-0.143-0.245-0.015C83.808,79.467,84.032,79.547,84.053,79.42z"/>
		</g>
		<g>
			<path fill="#FEFFFF" d="M14.175,73.751c-0.031-0.031-0.186,0.071-0.128,0.128C14.077,73.91,14.233,73.809,14.175,73.751z"/>
		</g>
		<g>
			<path fill="#FEFFFF" d="M14.154,41.781c0.112,0,0.115-0.003,0.228-0.003c0.031-0.256,0.008-0.437-0.19-0.464
				C14.157,41.464,14.107,41.546,14.154,41.781z"/>
		</g>
		<g>
			<path fill="#FEFFFF" d="M13.838,26.604c-0.045-0.005-0.091-0.077-0.131-0.077c-0.088,0.108-0.089,0.229-0.176,0.337
				C13.731,26.829,13.869,26.872,13.838,26.604z"/>
		</g>
		<g>
			<path fill="#FEFFFF" d="M50.717,105.174c-0.014,0.118-0.154,0.341-0.042,0.422c0.018,0,0.106,0.003,0.124,0.003
				C50.832,105.477,50.903,105.251,50.717,105.174z"/>
		</g>
		<g>
			<path fill="#FEFFFF" d="M82.514,82.243c0,0.149,0.081,0.341,0.081,0.491c0.152,0.035,0.094,0.268,0.328,0.221
				c-0.125,0.161-0.04,0.224,0.192,0.286C83.163,83.084,83.063,82.157,82.514,82.243z"/>
		</g>
		<g>
			<path fill="#FEFFFF" d="M82.002,81.863c0.087-0.025,0.165,0.053,0.168-0.056C82.083,81.832,82.005,81.754,82.002,81.863z"/>
		</g>
		<g>
			<path fill="#FEFFFF" d="M83.12,70.786c0.075,0,0.119-0.007,0.193-0.007c0-0.075,0.05-0.161,0.05-0.235
				c-0.074,0-0.117,0.093-0.192,0.093C83.171,70.711,83.12,70.711,83.12,70.786z"/>
		</g>
		<g>
			<path fill="#FEFFFF" d="M83.381,65.878c0.001-0.062-0.117-0.129-0.138-0.003C83.243,65.938,83.36,66.006,83.381,65.878z"/>
		</g>
		<g>
			<path fill="#FEFFFF" d="M83.12,85.805c0.006-0.193-0.037-0.237-0.175-0.286C82.939,85.711,82.982,85.756,83.12,85.805z"/>
		</g>
		<g>
			<path fill="#FEFFFF" d="M82.541,83.563c0.075,0,0.176,0.011,0.25,0.011c0-0.074,0.033-0.22,0.033-0.294
				c-0.075,0-0.247,0.006-0.322,0.006C82.502,83.36,82.541,83.489,82.541,83.563z"/>
		</g>
		<g>
			<path fill="#FEFFFF" d="M78.409,22.46c-0.222,0.211-0.017,0.469,0.037,0.723c0.276,0.015,0.447,0.056,0.579-0.073
				c-0.037-0.261-0.039-0.5-0.129-0.709C78.746,22.401,78.558,22.46,78.409,22.46z"/>
		</g>
		<g>
			<path fill="#FEFFFF" d="M80.619,36.31c-0.271,0.375,0.393-0.265,0.017,0.006C80.623,36.324,80.619,36.31,80.619,36.31z"/>
		</g>
		<g>
			<path fill="#FEFFFF" d="M78.403,80.42c0,0.074,0.021,0.121,0.021,0.195c0.112,0,0.18,0.155,0.271,0.176
				C78.684,80.617,78.642,80.368,78.403,80.42z"/>
		</g>
		<g>
			<path fill="#FEFFFF" d="M81.383,35.813c-0.031-0.031-0.165,0.049-0.106,0.107C81.308,35.951,81.441,35.871,81.383,35.813z"/>
		</g>
		<g>
			<path fill="#FEFFFF" d="M81.006,36.19c0.031,0.031,0.153-0.037,0.095-0.095C81.07,36.065,80.948,36.133,81.006,36.19z"/>
		</g>
		<g>
			<path fill="#FEFFFF" d="M81.115,90.554c-0.161,0.164-0.13,0.452,0.259,0.353C81.38,90.716,81.253,90.603,81.115,90.554z"/>
		</g>
		<g>
			<path fill="#FEFFFF" d="M5.948,44.276c0,0.063-0.016,0.115,0.005-0.012C5.954,44.202,5.969,44.149,5.948,44.276z"/>
		</g>
		<g>
			<path fill="#FEFFFF" d="M36.814,38.971c0.006-0.193-0.033-0.189-0.171-0.238C36.483,38.897,36.425,39.068,36.814,38.971z"/>
		</g>
		<g>
			<path fill="#FEFFFF" d="M34.706,96.536c-0.001,0.062,0.169,0.135,0.191,0.009C34.897,96.482,34.727,96.409,34.706,96.536z"/>
		</g>
		<g>
			<path fill="#FEFFFF" d="M35.005,49.232c-0.41,0-0.889,0.065-1.299,0.065c-0.211,0.198,0.139,0.435-0.238,0.535
				c-0.026-0.198,0.167-0.572-0.17-0.46c-0.219,0.209,0.005,0.352,0.04,0.614c-0.063,0.273-0.577,0.289-0.479,0.722
				c0.369,0.141,0.908,0.268,0.652,0.723c0.359-0.023,0.137,0.449,0.515,0.407c0.137-0.198,0.42-0.19,0.52-0.425
				c0.021,0.165,0.272,0.078,0.45,0.087c0.148-0.28-0.486-0.33-0.155-0.427c0.159,0.045,0.078,0.036,0.225-0.099
				c-0.033-0.664,0.584-0.695,0.53-1.096C35.396,49.666,35.049,49.599,35.005,49.232z"/>
		</g>
		<g>
			<path fill="#FEFFFF" d="M34.877,81.83c-0.075,0-0.149,0.094-0.224,0.094c0,0.074-0.018,0.073-0.018,0.147
				c0.075,0,0.158,0.067,0.233,0.067C34.868,82.065,34.877,81.904,34.877,81.83z"/>
		</g>
		<g>
			<path fill="#FEFFFF" d="M33.865,92.129c0.031,0.032,0.1,0.016,0.042-0.042C33.876,92.056,33.808,92.071,33.865,92.129z"/>
		</g>
		<g>
			<path fill="#FEFFFF" d="M34.318,68.093c0.16,0.027,0.124,0.18,0.271,0.22C34.687,68.083,34.363,67.815,34.318,68.093z"/>
		</g>
		<g>
			<path fill="#FEFFFF" d="M36.929,24.726c-0.143-0.006-0.132-0.187-0.313-0.156c0,0.112,0.054,0.199,0.054,0.311
				c0.074,0,0.02-0.022,0.094-0.022C36.765,24.747,36.908,24.816,36.929,24.726z"/>
		</g>
		<g>
			<path fill="#FEFFFF" d="M37.133,88.641c-0.087,0.025-0.342,0.124-0.345,0.233C36.875,88.848,37.13,88.75,37.133,88.641z"/>
		</g>
		<g>
			<path fill="#FEFFFF" d="M35.259,64.553c0.327,0.165,0.388-0.474,0.061-0.309C35.32,64.355,35.259,64.441,35.259,64.553z"/>
		</g>
		<g>
			<path fill="#FEFFFF" d="M32.141,50.876c0.005,0.154-0.104,0.264-0.163,0.354c0.132,0.128,0.456,0.115,0.731,0.1
				C32.688,51.015,32.506,50.847,32.141,50.876z"/>
		</g>
		<g>
			<path fill="#FEFFFF" d="M36.782,78.003c-0.34,0.377,0.429,0.218,0.015-0.121C36.772,77.861,36.782,78.003,36.782,78.003z"/>
		</g>
		<g>
			<path fill="#FEFFFF" d="M35.798,44.09c0.087-0.025,0.237-0.018,0.24-0.127C35.951,43.988,35.801,43.981,35.798,44.09z"/>
		</g>
		<g>
			<path fill="#FEFFFF" d="M35.852,84.775c-0.001,0.062,0.162,0.136,0.183,0.009C36.035,84.721,35.873,84.647,35.852,84.775z"/>
		</g>
		<g>
			<path fill="#FEFFFF" d="M35.567,63.793c-0.075,0-0.233,0.047-0.307,0.047c0,0.074-0.031,0.218-0.031,0.292
				c0.075,0,0.264,0.016,0.338,0.016C35.567,64.074,35.567,63.868,35.567,63.793z"/>
		</g>
		<g>
			<path fill="#FEFFFF" d="M31.78,29.086c-0.353,0.128-0.215-0.12-0.391-0.168c0,0.112-0.023,0.114-0.023,0.227
				C31.647,29.16,31.683,29.412,31.78,29.086z"/>
		</g>
		<g>
			<path fill="#FEFFFF" d="M35.643,28.835c-0.118,0.65,0.455,0.059-0.03,0.013C35.598,28.847,35.643,28.835,35.643,28.835z"/>
		</g>
		<g>
			<path fill="#FEFFFF" d="M30.085,49.986c-0.22-0.297-0.575-0.302-0.586,0.172C29.804,49.969,29.937,50.387,30.085,49.986z"/>
		</g>
		<g>
			<path fill="#FEFFFF" d="M31.094,92.598c0.006-0.144,0.222-0.156,0.191-0.336c-0.075,0-0.233-0.003-0.308-0.003
				c-0.006,0.143-0.083,0.171-0.052,0.352C31,92.611,31.019,92.598,31.094,92.598z"/>
		</g>
		<g>
			<path fill="#FEFFFF" d="M31.616,59.011c0.031,0.031,0.203-0.086,0.145-0.144C31.73,58.837,31.558,58.953,31.616,59.011z"/>
		</g>
		<g>
			<path fill="#FEFFFF" d="M34.679,18.6c0,0.112-0.004,0.32-0.004,0.432C35.002,19.197,35.006,18.436,34.679,18.6z"/>
		</g>
		<g>
			<path fill="#FEFFFF" d="M34.234,23.942c-0.031-0.031-0.143,0.027-0.085,0.085C34.181,24.058,34.292,24,34.234,23.942z"/>
		</g>
		<g>
			<path fill="#FEFFFF" d="M32.241,42.272c0.112,0,0.197,0.129,0.287,0.15c0-0.112,0.001-0.144,0.022-0.235
				c-0.112,0-0.084-0.12-0.175-0.142C32.375,42.157,32.262,42.182,32.241,42.272z"/>
		</g>
		<g>
			<path fill="#FEFFFF" d="M32.965,41.316c0-0.149-0.023-0.375-0.023-0.524c-0.112,0-0.151,0.057-0.263,0.057
				C32.648,41.142,32.67,41.35,32.965,41.316z"/>
		</g>
		<g>
			<path fill="#FEFFFF" d="M32.667,85.354c-0.001,0.063-0.026,0.114-0.005-0.013C32.663,85.279,32.689,85.228,32.667,85.354z"/>
		</g>
		<g>
			<path fill="#FEFFFF" d="M32.666,61.213c0.377,0.339,0.43-0.408,0.091,0.006C32.739,61.239,32.666,61.213,32.666,61.213z"/>
		</g>
		<g>
			<path fill="#FEFFFF" d="M33.374,67.44c0.18-0.311-0.527-0.276-0.492-0.078C33.035,67.398,33.14,67.489,33.374,67.44z"/>
		</g>
		<g>
			<path fill="#FEFFFF" d="M35.37,21.349c-0.255-0.032-0.477,0.039-0.504,0.236C35.032,21.76,35.422,21.697,35.37,21.349z"/>
		</g>
		<g>
			<path fill="#FEFFFF" d="M39.94,92.892c0.341,0.306-0.218-0.419,0.089-0.079C40.046,92.84,39.94,92.892,39.94,92.892z"/>
		</g>
		<g>
			<path fill="#FEFFFF" d="M40.562,75.405c0.067-0.29,0.005-0.353-0.286-0.285C40.199,75.42,40.457,75.285,40.562,75.405z"/>
		</g>
		<g>
			<path fill="#FEFFFF" d="M40.67,55.113c-0.031-0.031-0.181,0.066-0.123,0.123C40.579,55.268,40.728,55.171,40.67,55.113z"/>
		</g>
		<g>
			<path fill="#FEFFFF" d="M39.944,88.573c0.336,0.073-0.159,0.228-0.052,0.436C40.346,89.205,40.134,88.064,39.944,88.573z"/>
		</g>
		<g>
			<path fill="#FEFFFF" d="M39.646,55.014c-0.006,0.144-0.205,0.195-0.173,0.376c0.074,0,0.195-0.058,0.269-0.058
				C39.867,55.171,39.878,55.077,39.646,55.014z"/>
		</g>
		<g>
			<path fill="#FEFFFF" d="M39.282,47.044c0,0.112,0.027,0.253,0.027,0.365c0.075,0,0.09-0.035,0.165-0.035
				c0.006-0.144,0.25-0.157,0.219-0.337C39.581,47.036,39.394,47.044,39.282,47.044z"/>
		</g>
		<g>
			<path fill="#FEFFFF" d="M39.803,35.238c-0.038-0.091-0.139-0.137-0.178-0.003C39.551,35.494,39.904,35.48,39.803,35.238z"/>
		</g>
		<g>
			<path fill="#FEFFFF" d="M40.673,42.501c0-0.112-0.025-0.235-0.025-0.347c-0.112,0-0.243-0.033-0.354-0.033
				c0,0.112,0.04,0.235,0.04,0.347C40.445,42.469,40.561,42.501,40.673,42.501z"/>
		</g>
		<g>
			<path fill="#FEFFFF" d="M41.203,77.971c0.031,0.031,0.112,0.004,0.054-0.053C41.226,77.887,41.145,77.913,41.203,77.971z"/>
		</g>
		<g>
			<path fill="#FEFFFF" d="M41.419,74.84c-0.075,0-0.109-0.002-0.184-0.002c-0.006,0.143-0.237,0.203-0.206,0.383
				c0.112,0,0.238-0.119,0.349-0.119C41.378,74.989,41.419,74.952,41.419,74.84z"/>
		</g>
		<g>
			<path fill="#FEFFFF" d="M40.302,17.602c0.001,0.112-0.047,0.136-0.068,0.227c0.143,0.007,0.154,0.199,0.335,0.167
				C40.574,17.803,40.44,17.651,40.302,17.602z"/>
		</g>
		<g>
			<path fill="#FEFFFF" d="M40.94,84.39c0.031,0.031,0.252-0.136,0.194-0.194C41.102,84.165,40.882,84.332,40.94,84.39z"/>
		</g>
		<g>
			<path fill="#FEFFFF" d="M38.082,54.566c-0.112,0-0.263-0.031-0.375-0.031c0,0.112-0.01,0.303-0.01,0.415
				c0.112,0,0.196-0.116,0.308-0.116C38.006,54.722,38.082,54.677,38.082,54.566z"/>
		</g>
		<g>
			<path fill="#FEFFFF" d="M38.112,44.952c0.001,0.113,0.153,0.141,0.181,0.001C38.167,44.964,38.163,44.789,38.112,44.952z"/>
		</g>
		<g>
			<path fill="#FEFFFF" d="M38.536,79.198c0.085-0.382-0.405-0.455-0.426-0.131C38.262,79.102,38.302,79.245,38.536,79.198z"/>
		</g>
		<g>
			<path fill="#FEFFFF" d="M37.87,41.909c0.087-0.025,0.262-0.043,0.265-0.152C38.048,41.781,37.872,41.8,37.87,41.909z"/>
		</g>
		<g>
			<path fill="#FEFFFF" d="M37.699,37.379c0.074,0,0.17-0.066,0.245-0.066c0-0.074,0.077-0.18,0.077-0.255
				c-0.075,0-0.183,0.075-0.257,0.075C37.764,37.207,37.699,37.304,37.699,37.379z"/>
		</g>
		<g>
			<path fill="#FEFFFF" d="M38.611,50.338c-0.125,0.011-0.119-0.178-0.169-0.015C38.444,50.435,38.584,50.478,38.611,50.338z"/>
		</g>
		<g>
			<path fill="#FEFFFF" d="M36.648,77.151c-0.255-0.032-0.402,0.007-0.429,0.204C36.418,77.329,36.76,77.488,36.648,77.151z"/>
		</g>
		<g>
			<path fill="#FEFFFF" d="M38.224,48.041c0.377,0.34,0.317-0.367-0.023,0.047C38.186,48.107,38.224,48.041,38.224,48.041z"/>
		</g>
		<g>
			<path fill="#FEFFFF" d="M38.523,14.167c-0.012-0.136-0.004-0.236-0.194-0.195c0.018,0.132-0.068,0.23,0.063,0.248
				C38.399,14.152,38.428,14.147,38.523,14.167z"/>
		</g>
		<g>
			<path fill="#FEFFFF" d="M37.332,76.504c0.023,0.135,0.281,0.114,0.381,0.046C37.711,76.437,37.36,76.363,37.332,76.504z"/>
		</g>
		<g>
			<path fill="#FEFFFF" d="M37.785,70.979c-0.031-0.031-0.195,0.079-0.138,0.137C37.678,71.147,37.843,71.037,37.785,70.979z"/>
		</g>
		<g>
			<path fill="#FEFFFF" d="M36.681,79.461c-0.378-0.339-0.42,0.462-0.08,0.048C36.629,79.475,36.681,79.461,36.681,79.461z"/>
		</g>
		<g>
			<path fill="#FEFFFF" d="M39.023,51.485c0.031-0.255,0.103-0.291-0.094-0.318C38.955,51.366,38.687,51.598,39.023,51.485z"/>
		</g>
		<g>
			<path fill="#FEFFFF" d="M23.624,64.079c-0.271,0.375,0.332-0.337-0.044-0.066C23.577,64.015,23.624,64.079,23.624,64.079z"/>
		</g>
		<g>
			<path fill="#FEFFFF" d="M23.352,41.918c-0.001,0.062,0.098,0.128,0.12,0.001C23.472,41.856,23.374,41.791,23.352,41.918z"/>
		</g>
		<g>
			<path fill="#FEFFFF" d="M23.36,23.295c0.126-0.012,0.166,0.225,0.216,0.062C23.575,23.244,23.388,23.154,23.36,23.295z"/>
		</g>
		<g>
			<path fill="#FEFFFF" d="M23.17,44.062c-0.001,0.063-0.102,0.105-0.081-0.022C23.09,43.978,23.191,43.935,23.17,44.062z"/>
		</g>
		<g>
			<path fill="#FEFFFF" d="M22.309,69.334c-0.234-0.32-0.86,0.353-0.571,0.531C21.827,69.619,22.276,69.636,22.309,69.334z"/>
		</g>
		<g>
			<path fill="#FEFFFF" d="M23.248,41.297c-0.112,0-0.25-0.083-0.362-0.083c-0.02,0.245,0.144,0.362,0.388,0.342
				C23.274,41.443,23.248,41.409,23.248,41.297z"/>
		</g>
		<g>
			<path fill="#FEFFFF" d="M22.472,41.624c0.031,0.031,0.166-0.05,0.108-0.109C22.549,41.484,22.414,41.566,22.472,41.624z"/>
		</g>
		<g>
			<path fill="#FEFFFF" d="M21.722,77.4c-0.001,0.062,0.07,0.124,0.091-0.002C21.813,77.335,21.743,77.273,21.722,77.4z"/>
		</g>
		<g>
			<path fill="#FEFFFF" d="M25.261,90.83c0.024,0.136,0.052,0.064,0.152-0.006C25.411,90.713,25.288,90.689,25.261,90.83z"/>
		</g>
		<g>
			<path fill="#FEFFFF" d="M25.195,91.049c-0.006,0.143-0.185,0.185-0.154,0.366c0.075,0,0.211-0.002,0.287-0.002
				C25.453,91.251,25.428,91.111,25.195,91.049z"/>
		</g>
		<g>
			<path fill="#FEFFFF" d="M25.135,97.158c-0.176,0.011-0.333-0.07-0.281,0.168C25.048,97.332,25.087,97.296,25.135,97.158z"/>
		</g>
		<g>
			<path fill="#FEFFFF" d="M23.403,69.282c-0.341,0.167-0.366-0.031-0.603,0.117c-0.191,0.36,0.049,1.042,0.744,0.874
				C23.521,69.923,23.59,69.467,23.403,69.282z"/>
		</g>
		<g>
			<path fill="#FEFFFF" d="M23.799,65.591c-0.031-0.031-0.166,0.05-0.108,0.108C23.721,65.73,23.857,65.649,23.799,65.591z"/>
		</g>
		<g>
			<path fill="#FEFFFF" d="M18.766,44.544c-0.075,0-0.054,0.004-0.129,0.004c0,0.074,0.023,0.026,0.023,0.101
				c0.075,0,0.016,0.012,0.091,0.012C18.751,44.586,18.766,44.618,18.766,44.544z"/>
		</g>
		<g>
			<path fill="#FEFFFF" d="M20.962,83.402c-0.435-0.024-0.654,0.11-0.735,0.439c0.335,0.032,0.112,0.355,0.352,0.451
				c0.001,0,0.264-0.169,0.526-0.12C21.115,83.825,21.049,83.651,20.962,83.402z"/>
		</g>
		<g>
			<path fill="#FEFFFF" d="M21.75,26.951c-0.34,0.377,0.341,0.374-0.073,0.035C21.664,26.975,21.75,26.951,21.75,26.951z"/>
		</g>
		<g>
			<path fill="#FEFFFF" d="M22.035,52.127c-0.125,0.011-0.092-0.171-0.142-0.009C21.895,52.231,22.008,52.267,22.035,52.127z"/>
		</g>
		<g>
			<path fill="#FEFFFF" d="M21.807,26.221c-0.038-0.091-0.355-0.093-0.393,0.042C21.339,26.522,21.908,26.463,21.807,26.221z"/>
		</g>
		<g>
			<path fill="#FEFFFF" d="M21.316,69.459c0,0.062,0.142,0.133,0.163,0.006C21.48,69.402,21.337,69.332,21.316,69.459z"/>
		</g>
		<g>
			<path fill="#FEFFFF" d="M25.292,32.585c0-0.075-0.044-0.071-0.044-0.145C25.041,32.068,24.745,32.696,25.292,32.585z"/>
		</g>
		<g>
			<path fill="#FEFFFF" d="M18.928,57.599c-0.006,0.068-0.045,0.082-0.14,0.061c0,0.075,0.012,0.205,0.012,0.28
				C19.076,58.114,19.145,57.555,18.928,57.599z"/>
		</g>
		<g>
			<path fill="#FEFFFF" d="M22.111,30.502c0.001-0.062,0.028-0.113,0.007,0.014C22.118,30.578,22.09,30.629,22.111,30.502z"/>
		</g>
		<g>
			<path fill="#FEFFFF" d="M21.446,84.392c-0.087,0.025-0.21-0.008-0.213,0.101C21.32,84.468,21.444,84.501,21.446,84.392z"/>
		</g>
		<g>
			<path fill="#FEFFFF" d="M20.474,93.609c0.031-0.255,0.04-0.354-0.157-0.381C20.343,93.427,20.136,93.722,20.474,93.609z"/>
		</g>
		<g>
			<path fill="#FEFFFF" d="M20.886,84.504c0.031,0.031,0.139-0.023,0.081-0.081C20.935,84.393,20.828,84.447,20.886,84.504z"/>
		</g>
		<g>
			<path fill="#FEFFFF" d="M21.085,55.992c-0.031-0.031-0.199,0.083-0.14,0.141C20.975,56.164,21.143,56.05,21.085,55.992z"/>
		</g>
		<g>
			<path fill="#FEFFFF" d="M20.886,75.216c0.031,0.031,0.159-0.043,0.101-0.101C20.955,75.084,20.828,75.158,20.886,75.216z"/>
		</g>
		<g>
			<path fill="#FEFFFF" d="M29.103,68.234c-0.125,0.012-0.239-0.188-0.289-0.025C28.815,68.322,29.075,68.375,29.103,68.234z"/>
		</g>
		<g>
			<path fill="#FEFFFF" d="M29.336,67.663c-0.001-0.113-0.171-0.155-0.199-0.015C29.263,67.637,29.286,67.825,29.336,67.663z"/>
		</g>
		<g>
			<path fill="#FEFFFF" d="M28.886,84.458c-0.031-0.031-0.153,0.036-0.094,0.094C28.822,84.583,28.943,84.516,28.886,84.458z"/>
		</g>
		<g>
			<path fill="#FEFFFF" d="M28.48,84.79c0,0.062-0.005,0.116,0.016-0.011C28.497,84.718,28.501,84.663,28.48,84.79z"/>
		</g>
		<g>
			<path fill="#FEFFFF" d="M28.907,27.516c0,0.113-0.05,0.037-0.072,0.128c0.143,0.007,0.112,0.219,0.293,0.188
				C29.134,27.639,29.045,27.565,28.907,27.516z"/>
		</g>
		<g>
			<path fill="#FEFFFF" d="M24.913,40.641c0.031,0.031,0.21-0.094,0.153-0.152C25.034,40.458,24.855,40.583,24.913,40.641z"/>
		</g>
		<g>
			<path fill="#FEFFFF" d="M28.651,43.621c-0.031-0.031-0.088-0.028-0.031,0.03C28.651,43.682,28.709,43.679,28.651,43.621z"/>
		</g>
		<g>
			<path fill="#FEFFFF" d="M28.682,72.912c0-0.062,0.003-0.116-0.019,0.011C28.662,72.985,28.66,73.039,28.682,72.912z"/>
		</g>
		<g>
			<path fill="#FEFFFF" d="M29.534,24.944c-0.031-0.031-0.211,0.095-0.153,0.154C29.412,25.128,29.592,25.002,29.534,24.944z"/>
		</g>
		<g>
			<path fill="#FEFFFF" d="M30.15,38.007c0.023,0.135,0.045,0.039,0.145-0.03C30.294,37.865,30.177,37.867,30.15,38.007z"/>
		</g>
		<g>
			<path fill="#FEFFFF" d="M30.163,25.659c-0.087,0.025-0.284,0.067-0.288,0.175C29.962,25.81,30.16,25.768,30.163,25.659z"/>
		</g>
		<g>
			<path fill="#FEFFFF" d="M30.315,41.958c-0.074,0-0.126-0.045-0.201-0.045c0,0.074,0.011,0.16,0.011,0.236
				c0.074,0,0.153,0.003,0.227,0.003C30.352,42.076,30.315,42.032,30.315,41.958z"/>
		</g>
		<g>
			<path fill="#FEFFFF" d="M30.293,71.412c-0.087,0.025-0.339,0.123-0.342,0.231C30.038,71.618,30.29,71.521,30.293,71.412z"/>
		</g>
		<g>
			<path fill="#FEFFFF" d="M29.597,51.091c0,0.063,0.135,0.132,0.156,0.005C29.755,51.034,29.618,50.965,29.597,51.091z"/>
		</g>
		<g>
			<path fill="#FEFFFF" d="M24.561,90.595c-0.09,0.678,0.584,0.123,0.071,0.048C24.593,90.638,24.561,90.595,24.561,90.595z"/>
		</g>
		<g>
			<path fill="#FEFFFF" d="M24.322,64.732c0.075,0,0.183,0.078,0.258,0.078c0-0.074-0.084-0.175-0.084-0.251
				c-0.075,0-0.118-0.026-0.192-0.026C24.303,64.608,24.322,64.657,24.322,64.732z"/>
		</g>
		<g>
			<path fill="#FEFFFF" d="M25.233,87.716c0.058-0.327-0.512-0.615-0.67-0.357C24.733,87.54,24.974,87.963,25.233,87.716z"/>
		</g>
		<g>
			<path fill="#FEFFFF" d="M26.052,38.271c-0.031-0.031-0.221,0.104-0.162,0.162C25.921,38.464,26.11,38.329,26.052,38.271z"/>
		</g>
		<g>
			<path fill="#FEFFFF" d="M24.832,68.245c-0.126,0.012-0.231-0.2-0.28-0.037C24.553,68.321,24.804,68.386,24.832,68.245z"/>
		</g>
		<g>
			<path fill="#FEFFFF" d="M24.488,32.784c-0.031-0.031-0.11-0.006-0.053,0.052C24.466,32.867,24.546,32.842,24.488,32.784z"/>
		</g>
		<g>
			<path fill="#FEFFFF" d="M25.604,90.166c0,0.062,0.018,0.119,0.039-0.008C25.644,90.096,25.625,90.039,25.604,90.166z"/>
		</g>
		<g>
			<path fill="#FEFFFF" d="M26.785,73.352c-0.031-0.031-0.206,0.09-0.148,0.148C26.668,73.53,26.842,73.409,26.785,73.352z"/>
		</g>
		<g>
			<path fill="#FEFFFF" d="M27.661,56.472c0.125-0.011,0.25,0.176,0.3,0.013C27.96,56.373,27.688,56.332,27.661,56.472z"/>
		</g>
		<g>
			<path fill="#FEFFFF" d="M28.079,82.544c-0.001,0.063,0.047,0.122,0.068-0.005C28.147,82.478,28.1,82.418,28.079,82.544z"/>
		</g>
		<g>
			<path fill="#FEFFFF" d="M25.605,57.855c-0.031-0.031-0.117,0.001-0.059,0.059C25.577,57.945,25.663,57.912,25.605,57.855z"/>
		</g>
		<g>
			<path fill="#FEFFFF" d="M26.833,68.716c-0.074,0-0.163,0.12-0.237,0.12c0,0.075-0.087,0.129-0.087,0.204
				c0.074,0,0.191-0.024,0.265-0.024C26.773,68.94,26.833,68.791,26.833,68.716z"/>
		</g>
	</g>
	<g>
		<g>
			<path fill="#FFFFFF" d="M50.113,55.501c0.099,0.876-0.05,0.638-0.074,1.758c-0.011,0.498-0.008,1.092-0.023,1.765
				c-0.012,0.539-0.019,1.13-0.032,1.765c-0.012,0.556,0.066,1.148,0.053,1.767c-0.012,0.565-0.021,1.153-0.034,1.762
				c-0.012,0.571-0.018,1.16-0.031,1.764c-0.012,0.576-0.128,1.163-0.141,1.763c-0.013,0.58,0.073,1.171,0.06,1.768
				c-0.013,0.582-0.016,1.172-0.029,1.765c-0.013,0.585-0.101,1.173-0.114,1.765c-0.013,0.588,0.006,1.179-0.007,1.769
				c-0.013,0.59,0.008,1.181-0.005,1.769c-0.013,0.593-0.125,1.181-0.137,1.767c-0.013,0.595,0.019,1.187,0.006,1.771
				c-0.013,0.599-0.079,1.189-0.092,1.77c-0.013,0.602,0.097,1.196,0.084,1.775c-0.013,0.606-0.05,1.197-0.062,1.77
				c-0.013,0.61-0.016,1.201-0.028,1.767c-0.013,0.62-0.095,1.21-0.107,1.768c-0.013,0.635-0.074,1.226-0.086,1.766
				c-0.014,0.673,0.071,1.267,0.06,1.766c-0.022,1.058-0.071,1.69-0.071,1.761c0,0.649,0.196,1.48,0.714,2.071
				c0.439,0.501,1.128,0.866,2.008,0.866c0.599,0,1.084-0.215,1.496-0.443c0.483-0.267,0.888-0.613,1.126-1.065
				c0.246-0.468,0.29-1.013,0.285-1.53c-0.001-0.069-0.019-0.701-0.058-1.759c-0.018-0.497-0.057-1.088-0.082-1.759
				c-0.02-0.538,0.043-1.13,0.02-1.763c-0.02-0.555-0.077-1.143-0.1-1.76c-0.02-0.563-0.042-1.151-0.063-1.758
				c-0.021-0.57-0.042-1.157-0.064-1.759c-0.02-0.575-0.095-1.161-0.116-1.759c-0.02-0.578,0.065-1.17,0.044-1.766
				c-0.02-0.581-0.034-1.169-0.054-1.761c-0.02-0.584-0.14-1.169-0.16-1.759c-0.02-0.587,0.08-1.179,0.06-1.768
				c-0.019-0.589-0.176-1.173-0.195-1.759c-0.019-0.591,0.071-1.184,0.052-1.768c-0.019-0.594-0.016-1.184-0.034-1.767
				c-0.018-0.597-0.066-1.186-0.083-1.766c-0.018-0.601-0.073-1.191-0.089-1.768c-0.017-0.605-0.022-1.195-0.037-1.768
				c-0.016-0.609,0.027-1.199,0.014-1.764c-0.014-0.619-0.071-1.208-0.082-1.765c-0.012-0.634-0.036-1.224-0.043-1.762
				c-0.009-0.671,0.005-1.262,0.005-1.759c0-1.037,0.054-1.631,0.103-1.713c0.101-0.167,0.562-0.598,1.338-1.195
				c0.412-0.317,0.883-0.7,1.385-1.168c0.408-0.38,0.83-0.809,1.257-1.301c0.376-0.433,0.826-0.851,1.189-1.378
				c0.329-0.477,0.675-0.982,0.974-1.542c0.274-0.513,0.474-1.093,0.708-1.68c0.216-0.541,0.478-1.096,0.648-1.703
				c0.157-0.562,0.284-1.162,0.392-1.784c0.101-0.576,0.1-1.189,0.152-1.818c0.048-0.584,0.072-1.189,0.072-1.82
				c0-0.596-0.005-1.173-0.032-1.733c-0.029-0.596-0.032-1.175-0.091-1.729c-0.063-0.595-0.12-1.173-0.215-1.721
				c-0.102-0.591-0.317-1.136-0.453-1.674c-0.148-0.582-0.295-1.136-0.48-1.658c-0.201-0.568-0.409-1.104-0.65-1.601
				c-0.263-0.543-0.558-1.036-0.864-1.497c-0.332-0.502-0.698-0.941-1.073-1.348c-0.406-0.44-0.775-0.893-1.221-1.226
				c-0.476-0.354-0.99-0.634-1.501-0.869c-0.531-0.244-1.089-0.406-1.646-0.527c-0.564-0.122-1.139-0.203-1.716-0.203
				c-0.614,0-1.245,0.059-1.846,0.243c-0.574,0.176-1.097,0.532-1.644,0.863c-0.509,0.309-1.004,0.671-1.477,1.104
				c-0.44,0.402-0.88,0.834-1.279,1.334c-0.373,0.467-0.769,0.949-1.099,1.495c-0.311,0.514-0.533,1.099-0.8,1.676
				c-0.252,0.547-0.537,1.098-0.744,1.697c-0.197,0.571-0.397,1.162-0.548,1.776c-0.145,0.588-0.188,1.212-0.286,1.836
				c-0.095,0.6-0.244,1.207-0.292,1.836c-0.046,0.606,0.017,1.229,0.017,1.86c0,0.612,0.064,1.201,0.129,1.783
				c0.068,0.607,0.052,1.216,0.181,1.788c0.134,0.595,0.384,1.147,0.571,1.703c0.195,0.579,0.322,1.174,0.563,1.71
				c0.251,0.558,0.639,1.033,0.925,1.543c0.301,0.537,0.571,1.071,0.893,1.551c0.348,0.517,0.717,0.989,1.069,1.438
				c0.395,0.503,0.743,0.996,1.115,1.408c0.453,0.502,0.94,0.871,1.308,1.23C49.594,54.908,50.012,55.375,50.113,55.501z"/>
		</g>
		<g>
			<path fill="#FFFFFF" d="M68.907,65.032c-0.088,0.874-0.232,0.617-0.653,1.641c-0.19,0.462-0.433,1.002-0.687,1.62
				c-0.205,0.499-0.421,1.046-0.66,1.627c-0.212,0.515-0.474,1.044-0.707,1.611c-0.216,0.524-0.494,1.046-0.724,1.605
				c-0.218,0.53-0.423,1.081-0.651,1.635c-0.22,0.535-0.458,1.072-0.684,1.622c-0.22,0.538-0.375,1.108-0.598,1.653
				c-0.223,0.543-0.516,1.06-0.738,1.604c-0.224,0.547-0.378,1.12-0.599,1.66c-0.225,0.551-0.476,1.085-0.695,1.622
				c-0.226,0.555-0.448,1.101-0.664,1.633c-0.228,0.56-0.372,1.137-0.585,1.663c-0.231,0.57-0.524,1.087-0.733,1.605
				c-0.236,0.584-0.384,1.161-0.586,1.663c-0.248,0.619-0.493,1.158-0.676,1.624c-0.361,0.917-0.584,1.501-0.618,1.638
				c-0.112,0.33-0.284,0.892-0.311,1.525c-0.022,0.51,0.018,1.059,0.198,1.544c0.178,0.481,0.47,0.943,0.973,1.207
				c0.528,0.277,1.101,0.227,1.638,0.132c0.546-0.097,1.104-0.259,1.542-0.599c0.466-0.362,0.87-0.825,1.076-1.292
				c0.072-0.117,0.172-0.736,0.461-1.705c0.141-0.473,0.379-1.016,0.569-1.662c0.15-0.512,0.3-1.08,0.479-1.69
				c0.155-0.528,0.286-1.102,0.461-1.697c0.158-0.535,0.38-1.079,0.554-1.664c0.161-0.541,0.278-1.117,0.452-1.697
				c0.164-0.545,0.326-1.108,0.501-1.684c0.167-0.548,0.38-1.096,0.557-1.669c0.17-0.55,0.306-1.122,0.485-1.693
				c0.172-0.55,0.408-1.091,0.588-1.659c0.175-0.551,0.302-1.126,0.484-1.692c0.178-0.552,0.347-1.113,0.532-1.677
				c0.181-0.551,0.382-1.103,0.569-1.664c0.184-0.553,0.304-1.133,0.494-1.694c0.186-0.551,0.48-1.07,0.672-1.628
				c0.19-0.553,0.307-1.136,0.503-1.695c0.194-0.553,0.369-1.116,0.568-1.673c0.204-0.572,0.43-1.142,0.641-1.722
				c0.208-0.57,0.494-1.115,0.707-1.691c0.212-0.57,0.434-1.14,0.65-1.715c0.215-0.571,0.392-1.159,0.611-1.732
				c0.218-0.572,0.43-1.148,0.65-1.721c0.22-0.573,0.426-1.151,0.647-1.722c0.222-0.573,0.514-1.118,0.736-1.689
				c0.223-0.574,0.447-1.146,0.669-1.716c0.225-0.575,0.398-1.167,0.62-1.735c0.225-0.576,0.421-1.159,0.643-1.726
				c0.226-0.576,0.418-1.16,0.639-1.726c0.225-0.577,0.465-1.143,0.684-1.707c0.225-0.579,0.462-1.145,0.679-1.709
				c0.225-0.582,0.496-1.136,0.71-1.699c0.223-0.586,0.365-1.19,0.576-1.752c0.221-0.59,0.418-1.172,0.624-1.733
				c0.218-0.595,0.495-1.147,0.693-1.706c0.213-0.601,0.41-1.182,0.597-1.736c0.207-0.614,0.435-1.186,0.607-1.736
				c0.197-0.634,0.369-1.225,0.512-1.764c0.18-0.677,0.242-1.293,0.327-1.804c0.143-0.871,0.132-1.442-0.051-1.756
				c-0.325-0.214-0.904-0.243-1.716,0.089c-0.466,0.191-0.969,0.533-1.553,0.926c-0.451,0.303-0.982,0.606-1.488,1.038
				c-0.426,0.365-0.838,0.813-1.294,1.275c-0.401,0.406-0.781,0.878-1.199,1.362c-0.377,0.436-0.737,0.919-1.123,1.421
				c-0.354,0.461-0.773,0.903-1.132,1.422c-0.332,0.481-0.632,1.009-0.965,1.541c-0.312,0.498-0.708,0.969-1.018,1.512
				c-0.299,0.518-0.48,1.093-0.746,1.614c-0.273,0.533-0.615,1.025-0.854,1.558c-0.246,0.546-0.471,1.095-0.684,1.639
				c-0.219,0.558-0.371,1.132-0.558,1.685c-0.192,0.568-0.351,1.136-0.511,1.696c-0.165,0.577-0.347,1.139-0.482,1.704
				c-0.139,0.585-0.306,1.155-0.415,1.724c-0.114,0.593-0.108,1.195-0.193,1.767c-0.089,0.6-0.162,1.186-0.223,1.759
				c-0.064,0.607-0.17,1.191-0.207,1.762c-0.039,0.612-0.03,1.203-0.043,1.768c-0.015,0.623-0.048,1.215-0.038,1.772
				c0.011,0.637-0.036,1.232-0.004,1.77c0.04,0.673,0.162,1.259,0.215,1.753C68.751,64.399,68.995,64.156,68.907,65.032z"/>
		</g>
		<g>
			<path fill="#FFFFFF" d="M46.888,91.892c0.229,0.656,0.434,1.27,0.501,1.845c0.084,0.718,0.03,1.375-0.166,1.902
				c-0.226,0.611-0.665,1.1-1.308,1.352c-0.635,0.248-1.249,0.323-1.808,0.255c-0.573-0.07-1.102-0.337-1.595-0.829
				c-0.367-0.366-0.772-0.827-1.095-1.47c-0.121-0.199-0.341-0.799-0.655-1.688c-0.171-0.484-0.285-1.085-0.502-1.735
				c-0.175-0.524-0.361-1.098-0.562-1.713c-0.176-0.541-0.369-1.112-0.563-1.714c-0.177-0.55-0.396-1.111-0.585-1.703
				c-0.177-0.556-0.328-1.14-0.513-1.728c-0.177-0.561-0.351-1.138-0.535-1.722c-0.178-0.565-0.413-1.123-0.595-1.704
				c-0.178-0.568-0.297-1.161-0.478-1.74c-0.179-0.571-0.364-1.145-0.545-1.722c-0.179-0.574-0.392-1.139-0.572-1.715
				c-0.18-0.576-0.403-1.138-0.582-1.712c-0.18-0.578-0.3-1.173-0.478-1.745c-0.181-0.581-0.405-1.144-0.583-1.713
				c-0.183-0.584-0.394-1.151-0.572-1.718c-0.184-0.587-0.313-1.18-0.49-1.744c-0.186-0.591-0.306-1.186-0.482-1.745
				c-0.188-0.594-0.387-1.164-0.563-1.715c-0.193-0.605-0.41-1.17-0.585-1.713c-0.2-0.618-0.342-1.208-0.516-1.732
				c-0.216-0.653-0.422-1.223-0.59-1.703c-0.35-1.004-0.631-1.574-0.714-1.631c-0.209-0.143-0.805-0.235-1.597-0.342
				c-0.487-0.066-1.041-0.149-1.618-0.289c-0.515-0.126-1.023-0.332-1.535-0.568c-0.49-0.226-0.987-0.456-1.41-0.825
				c-0.396-0.346-0.777-0.749-1.062-1.256c-0.211-0.375-0.492-0.951-0.756-1.691c-0.184-0.515-0.372-1.11-0.574-1.758
				c-0.171-0.551-0.228-1.18-0.407-1.805c-0.164-0.57-0.378-1.151-0.546-1.765c-0.158-0.581-0.261-1.192-0.42-1.798
				c-0.155-0.59-0.346-1.179-0.498-1.781c-0.152-0.598-0.389-1.177-0.537-1.775c-0.15-0.605-0.186-1.233-0.329-1.825
				c-0.148-0.613-0.357-1.2-0.495-1.784c-0.148-0.624-0.282-1.23-0.415-1.805c-0.149-0.641-0.347-1.233-0.474-1.79
				c-0.154-0.68-0.211-1.306-0.325-1.822c-0.227-1.032-0.34-1.689-0.355-1.801c0.011-0.199,0.236-0.778,0.748-0.273
				c0.098,0.096,0.289,0.729,0.641,1.643c0.182,0.472,0.369,1.036,0.596,1.653c0.189,0.514,0.389,1.069,0.598,1.65
				c0.192,0.533,0.393,1.088,0.595,1.655c0.195,0.545,0.426,1.089,0.624,1.646c0.198,0.557,0.418,1.106,0.613,1.654
				c0.202,0.566,0.383,1.128,0.574,1.663c0.208,0.581,0.368,1.153,0.556,1.671c0.222,0.612,0.55,1.125,0.73,1.605
				c0.295,0.785,0.523,1.35,0.655,1.617c0.393,0.64,1.516,0.594,1.294-0.618c-0.046-0.25-0.233-0.841-0.505-1.668
				c-0.159-0.483-0.363-1.039-0.574-1.654c-0.178-0.517-0.378-1.07-0.582-1.65c-0.187-0.534-0.388-1.087-0.588-1.652
				c-0.193-0.545-0.385-1.101-0.583-1.656c-0.198-0.555-0.319-1.137-0.515-1.682c-0.203-0.565-0.376-1.13-0.568-1.663
				c-0.209-0.581-0.441-1.126-0.627-1.641c-0.222-0.616-0.465-1.161-0.637-1.639c-0.309-0.862-0.436-1.483-0.497-1.673
				c-0.09-0.439,0.461-0.866,0.844-0.244c0.112,0.197,0.346,0.784,0.692,1.609c0.196,0.468,0.445,1.007,0.692,1.612
				c0.207,0.506,0.415,1.057,0.646,1.628c0.212,0.525,0.412,1.079,0.636,1.636c0.216,0.537,0.457,1.075,0.677,1.622
				c0.22,0.547,0.472,1.081,0.688,1.618c0.225,0.558,0.432,1.111,0.645,1.636c0.232,0.574,0.37,1.156,0.577,1.663
				c0.249,0.608,0.553,1.125,0.748,1.59c0.389,0.926,0.616,1.55,0.685,1.618c0.358,0.354,1.665,0.887,1.409-0.578
				c-0.042-0.243-0.3-0.814-0.593-1.637c-0.17-0.476-0.356-1.036-0.584-1.643c-0.191-0.51-0.375-1.066-0.594-1.638
				c-0.201-0.526-0.436-1.064-0.651-1.621c-0.208-0.537-0.424-1.082-0.638-1.628c-0.214-0.547-0.345-1.126-0.555-1.662
				c-0.219-0.558-0.473-1.089-0.679-1.614c-0.226-0.573-0.423-1.128-0.623-1.636c-0.24-0.608-0.477-1.15-0.661-1.619
				c-0.357-0.911-0.605-1.509-0.639-1.624c-0.078-0.266,0.269-1.04,0.868-0.387c0.05,0.055,0.331,0.64,0.76,1.585
				c0.211,0.465,0.505,0.991,0.776,1.596c0.225,0.504,0.421,1.069,0.675,1.639c0.233,0.523,0.489,1.062,0.735,1.617
				c0.237,0.535,0.453,1.092,0.695,1.637c0.242,0.546,0.539,1.067,0.776,1.603c0.247,0.557,0.53,1.085,0.763,1.609
				c0.254,0.573,0.416,1.156,0.642,1.663c0.271,0.607,0.5,1.164,0.711,1.63c0.426,0.942,0.724,1.553,0.773,1.61
				c0.256,0.303,1.589,0.316,1.282-0.694c-0.055-0.18-0.336-0.754-0.675-1.615c-0.185-0.471-0.404-1.022-0.646-1.63
				c-0.202-0.507-0.348-1.084-0.577-1.656c-0.211-0.525-0.484-1.05-0.708-1.607c-0.216-0.537-0.478-1.066-0.698-1.613
				c-0.22-0.547-0.325-1.14-0.542-1.677c-0.224-0.557-0.442-1.105-0.653-1.631c-0.23-0.573-0.456-1.119-0.66-1.629
				c-0.243-0.607-0.509-1.141-0.696-1.614c-0.327-0.826-0.557-1.412-0.633-1.634c-0.08-0.236,0.431-0.931,0.879-0.35
				c0.091,0.118,0.421,0.668,0.893,1.539c0.242,0.447,0.543,0.968,0.856,1.563c0.256,0.486,0.493,1.037,0.784,1.6
				c0.261,0.504,0.507,1.047,0.788,1.599c0.261,0.514,0.63,0.994,0.903,1.538c0.262,0.523,0.412,1.114,0.678,1.654
				c0.261,0.53,0.64,1.008,0.9,1.546c0.26,0.537,0.464,1.102,0.717,1.637c0.257,0.544,0.47,1.103,0.716,1.636
				c0.255,0.553,0.563,1.069,0.799,1.6c0.251,0.566,0.413,1.149,0.636,1.678c0.245,0.58,0.516,1.114,0.717,1.633
				c0.238,0.614,0.424,1.183,0.585,1.684c0.232,0.719,0.429,1.297,0.463,1.713c0.054,0.66-0.024,1.258-0.118,1.799
				c-0.112,0.65-0.273,1.23-0.514,1.725C34.43,53.981,34,54.42,33.664,54.825c-0.577,0.696-1.082,1.161-1.124,1.408
				c-0.013,0.076,0.255,0.7,0.644,1.728c0.183,0.483,0.446,1.04,0.699,1.688c0.203,0.521,0.323,1.131,0.565,1.742
				c0.212,0.535,0.526,1.067,0.762,1.66c0.217,0.544,0.458,1.104,0.693,1.689c0.22,0.55,0.368,1.148,0.602,1.727
				c0.223,0.554,0.44,1.125,0.672,1.701c0.225,0.558,0.487,1.111,0.719,1.683c0.227,0.56,0.52,1.1,0.751,1.67
				c0.228,0.562,0.386,1.156,0.616,1.722c0.23,0.566,0.448,1.139,0.679,1.705c0.231,0.568,0.426,1.148,0.655,1.711
				c0.232,0.57,0.502,1.121,0.731,1.682c0.234,0.573,0.43,1.155,0.658,1.713c0.236,0.577,0.496,1.132,0.723,1.687
				c0.237,0.58,0.468,1.148,0.693,1.699c0.239,0.585,0.564,1.112,0.787,1.656c0.243,0.594,0.389,1.197,0.608,1.731
				c0.249,0.608,0.51,1.163,0.722,1.681c0.264,0.644,0.462,1.227,0.658,1.704C46.617,91.283,46.564,91.039,46.888,91.892z"/>
		</g>
	</g>
</g>
</svg>
