<?xml version="1.0" encoding="utf-8"?>
<!-- Generator: Adobe Illustrator 18.1.1, SVG Export Plug-In . SVG Version: 6.00 Build 0)  -->
<svg version="1.1" id="Capa_1" xmlns="http://www.w3.org/2000/svg" xmlns:xlink="http://www.w3.org/1999/xlink" x="0px" y="0px"
	 viewBox="0 0 568 120" enable-background="new 0 0 568 120" xml:space="preserve">
<g>
	<text transform="matrix(1 0 0 1 141.2465 86.5509)" font-family="'SUNN'" font-size="102.96" letter-spacing="2">Bares &amp; Lugares</text>
	<g>
		<g>
			<path fill="#59BEBE" d="M123.671,100.677c-0.391-0.586-0.33-1.209,0.183-1.869c0.195-0.22,0.721-0.037,1.576,0.55
				c1.026,0.684,2.419,1.796,4.178,3.335c4.911,4.154,7.721,6.145,8.429,5.974c0.098,0.147,2.284-1.832,6.56-5.937
				c2.932-2.492,4.508-3.799,4.728-3.921c1.124-0.44,1.747-0.281,1.869,0.476c0.073,0.489-0.086,0.953-0.476,1.393
				c-0.073,0.073-0.354,0.305-0.843,0.696l-0.733,0.623l-3.005,2.419c-4.935,4.667-7.684,6.878-8.246,6.634
				c-0.66,0.098-4.019-2.309-10.079-7.22L123.671,100.677z"/>
		</g>
		<g>
			<path fill="#59BEBE" d="M155.325,105.804c6.059-4.911,9.419-7.318,10.079-7.22c0.562-0.244,3.311,1.967,8.246,6.634l3.005,2.419
				l0.733,0.623c0.489,0.391,0.77,0.623,0.843,0.696c0.391,0.44,0.55,0.904,0.476,1.393c-0.122,0.757-0.745,0.916-1.869,0.476
				c-0.22-0.122-1.796-1.429-4.728-3.921c-4.276-4.105-6.463-6.084-6.56-5.937c-0.709-0.171-3.518,1.82-8.429,5.974
				c-1.759,1.539-3.152,2.651-4.178,3.335c-0.855,0.586-1.38,0.77-1.576,0.55c-0.513-0.66-0.574-1.283-0.183-1.869L155.325,105.804z
				"/>
		</g>
		<g>
			<path fill="#59BEBE" d="M178.695,100.677c-0.391-0.586-0.33-1.209,0.183-1.869c0.195-0.22,0.721-0.037,1.576,0.55
				c1.026,0.684,2.419,1.796,4.178,3.335c4.911,4.154,7.721,6.145,8.429,5.974c0.098,0.147,2.284-1.832,6.56-5.937
				c2.932-2.492,4.508-3.799,4.728-3.921c1.124-0.44,1.747-0.281,1.869,0.476c0.073,0.489-0.086,0.953-0.476,1.393
				c-0.073,0.073-0.354,0.305-0.843,0.696l-0.733,0.623l-3.005,2.419c-4.935,4.667-7.684,6.878-8.246,6.634
				c-0.66,0.098-4.019-2.309-10.079-7.22L178.695,100.677z"/>
		</g>
		<g>
			<path fill="#59BEBE" d="M210.348,105.804c6.059-4.911,9.419-7.318,10.079-7.22c0.562-0.244,3.311,1.967,8.246,6.634l3.005,2.419
				l0.733,0.623c0.489,0.391,0.77,0.623,0.843,0.696c0.391,0.44,0.55,0.904,0.476,1.393c-0.122,0.757-0.745,0.916-1.869,0.476
				c-0.22-0.122-1.796-1.429-4.728-3.921c-4.276-4.105-6.463-6.084-6.56-5.937c-0.709-0.171-3.518,1.82-8.429,5.974
				c-1.759,1.539-3.152,2.651-4.178,3.335c-0.855,0.586-1.38,0.77-1.576,0.55c-0.513-0.66-0.574-1.283-0.183-1.869L210.348,105.804z
				"/>
		</g>
		<g>
			<path fill="#59BEBE" d="M233.718,100.677c-0.391-0.586-0.33-1.209,0.183-1.869c0.195-0.22,0.721-0.037,1.576,0.55
				c1.026,0.684,2.419,1.796,4.178,3.335c4.911,4.154,7.721,6.145,8.429,5.974c0.098,0.147,2.284-1.832,6.56-5.937
				c2.932-2.492,4.508-3.799,4.728-3.921c1.124-0.44,1.747-0.281,1.869,0.476c0.073,0.489-0.086,0.953-0.476,1.393
				c-0.073,0.073-0.354,0.305-0.843,0.696l-0.733,0.623l-3.005,2.419c-4.935,4.667-7.684,6.878-8.246,6.634
				c-0.66,0.098-4.019-2.309-10.079-7.22L233.718,100.677z"/>
		</g>
		<g>
			<path fill="#59BEBE" d="M265.371,105.804c6.059-4.911,9.419-7.318,10.079-7.22c0.562-0.244,3.311,1.967,8.246,6.634l3.005,2.419
				l0.733,0.623c0.489,0.391,0.77,0.623,0.843,0.696c0.391,0.44,0.55,0.904,0.476,1.393c-0.122,0.757-0.745,0.916-1.869,0.476
				c-0.22-0.122-1.796-1.429-4.728-3.921c-4.276-4.105-6.462-6.084-6.56-5.937c-0.709-0.171-3.518,1.82-8.429,5.974
				c-1.759,1.539-3.152,2.651-4.178,3.335c-0.855,0.586-1.38,0.77-1.576,0.55c-0.513-0.66-0.574-1.283-0.183-1.869L265.371,105.804z
				"/>
		</g>
		<g>
			<path fill="#59BEBE" d="M288.742,100.677c-0.391-0.586-0.33-1.209,0.183-1.869c0.195-0.22,0.721-0.037,1.576,0.55
				c1.026,0.684,2.419,1.796,4.178,3.335c4.911,4.154,7.721,6.145,8.429,5.974c0.098,0.147,2.284-1.832,6.56-5.937
				c2.932-2.492,4.508-3.799,4.728-3.921c1.124-0.44,1.747-0.281,1.869,0.476c0.073,0.489-0.086,0.953-0.476,1.393
				c-0.073,0.073-0.354,0.305-0.843,0.696l-0.733,0.623l-3.005,2.419c-4.935,4.667-7.684,6.878-8.246,6.634
				c-0.66,0.098-4.019-2.309-10.079-7.22L288.742,100.677z"/>
		</g>
		<g>
			<path fill="#59BEBE" d="M320.395,105.804c6.059-4.911,9.419-7.318,10.079-7.22c0.562-0.244,3.311,1.967,8.246,6.634l3.005,2.419
				l0.733,0.623c0.489,0.391,0.77,0.623,0.843,0.696c0.391,0.44,0.55,0.904,0.476,1.393c-0.122,0.757-0.745,0.916-1.869,0.476
				c-0.22-0.122-1.796-1.429-4.728-3.921c-4.276-4.105-6.463-6.084-6.56-5.937c-0.709-0.171-3.518,1.82-8.429,5.974
				c-1.759,1.539-3.152,2.651-4.178,3.335c-0.855,0.586-1.38,0.77-1.576,0.55c-0.513-0.66-0.574-1.283-0.183-1.869L320.395,105.804z
				"/>
		</g>
		<g>
			<path fill="#59BEBE" d="M343.765,100.677c-0.391-0.586-0.33-1.209,0.183-1.869c0.195-0.22,0.721-0.037,1.576,0.55
				c1.026,0.684,2.419,1.796,4.178,3.335c4.911,4.154,7.721,6.145,8.429,5.974c0.098,0.147,2.284-1.832,6.56-5.937
				c2.932-2.492,4.508-3.799,4.728-3.921c1.124-0.44,1.747-0.281,1.869,0.476c0.073,0.489-0.086,0.953-0.476,1.393
				c-0.073,0.073-0.354,0.305-0.843,0.696l-0.733,0.623l-3.005,2.419c-4.935,4.667-7.684,6.878-8.246,6.634
				c-0.66,0.098-4.019-2.309-10.079-7.22L343.765,100.677z"/>
		</g>
		<g>
			<path fill="#59BEBE" d="M375.418,105.804c6.059-4.911,9.419-7.318,10.079-7.22c0.562-0.244,3.311,1.967,8.246,6.634l3.005,2.419
				l0.733,0.623c0.489,0.391,0.77,0.623,0.843,0.696c0.391,0.44,0.55,0.904,0.476,1.393c-0.122,0.757-0.745,0.916-1.869,0.476
				c-0.22-0.122-1.796-1.429-4.728-3.921c-4.276-4.105-6.462-6.084-6.56-5.937c-0.709-0.171-3.518,1.82-8.429,5.974
				c-1.759,1.539-3.152,2.651-4.178,3.335c-0.855,0.586-1.38,0.77-1.576,0.55c-0.513-0.66-0.574-1.283-0.183-1.869L375.418,105.804z
				"/>
		</g>
		<g>
			<path fill="#59BEBE" d="M398.789,100.677c-0.391-0.586-0.33-1.209,0.183-1.869c0.195-0.22,0.721-0.037,1.576,0.55
				c1.026,0.684,2.419,1.796,4.178,3.335c4.911,4.154,7.721,6.145,8.429,5.974c0.098,0.147,2.284-1.832,6.56-5.937
				c2.932-2.492,4.508-3.799,4.728-3.921c1.124-0.44,1.747-0.281,1.869,0.476c0.073,0.489-0.086,0.953-0.476,1.393
				c-0.073,0.073-0.354,0.305-0.843,0.696l-0.733,0.623l-3.005,2.419c-4.935,4.667-7.684,6.878-8.246,6.634
				c-0.66,0.098-4.019-2.309-10.079-7.22L398.789,100.677z"/>
		</g>
		<g>
			<path fill="#59BEBE" d="M430.442,105.804c6.059-4.911,9.419-7.318,10.079-7.22c0.562-0.244,3.311,1.967,8.246,6.634l3.005,2.419
				l0.733,0.623c0.489,0.391,0.77,0.623,0.843,0.696c0.391,0.44,0.55,0.904,0.476,1.393c-0.122,0.757-0.745,0.916-1.869,0.476
				c-0.22-0.122-1.796-1.429-4.728-3.921c-4.276-4.105-6.462-6.084-6.56-5.937c-0.709-0.171-3.518,1.82-8.429,5.974
				c-1.759,1.539-3.152,2.651-4.178,3.335c-0.855,0.586-1.38,0.77-1.576,0.55c-0.513-0.66-0.574-1.283-0.183-1.869L430.442,105.804z
				"/>
		</g>
		<g>
			<path fill="#59BEBE" d="M453.812,100.677c-0.391-0.586-0.33-1.209,0.183-1.869c0.195-0.22,0.721-0.037,1.576,0.55
				c1.026,0.684,2.419,1.796,4.178,3.335c4.911,4.154,7.721,6.145,8.429,5.974c0.098,0.147,2.284-1.832,6.56-5.937
				c2.932-2.492,4.508-3.799,4.728-3.921c1.124-0.44,1.747-0.281,1.869,0.476c0.073,0.489-0.086,0.953-0.476,1.393
				c-0.073,0.073-0.354,0.305-0.843,0.696l-0.733,0.623l-3.005,2.419c-4.935,4.667-7.684,6.878-8.246,6.634
				c-0.66,0.098-4.019-2.309-10.079-7.22L453.812,100.677z"/>
		</g>
		<g>
			<path fill="#59BEBE" d="M485.465,105.804c6.059-4.911,9.419-7.318,10.079-7.22c0.562-0.244,3.311,1.967,8.246,6.634l3.005,2.419
				l0.733,0.623c0.489,0.391,0.77,0.623,0.843,0.696c0.391,0.44,0.55,0.904,0.476,1.393c-0.122,0.757-0.745,0.916-1.869,0.476
				c-0.22-0.122-1.796-1.429-4.728-3.921c-4.276-4.105-6.462-6.084-6.56-5.937c-0.709-0.171-3.518,1.82-8.429,5.974
				c-1.759,1.539-3.152,2.651-4.178,3.335c-0.855,0.586-1.38,0.77-1.576,0.55c-0.513-0.66-0.574-1.283-0.183-1.869L485.465,105.804z
				"/>
		</g>
		<g>
			<path fill="#59BEBE" d="M508.835,100.677c-0.391-0.586-0.33-1.209,0.183-1.869c0.195-0.22,0.721-0.037,1.576,0.55
				c1.026,0.684,2.419,1.796,4.178,3.335c4.911,4.154,7.721,6.145,8.429,5.974c0.098,0.147,2.284-1.832,6.56-5.937
				c2.932-2.492,4.508-3.799,4.728-3.921c1.124-0.44,1.747-0.281,1.869,0.476c0.073,0.489-0.086,0.953-0.476,1.393
				c-0.073,0.073-0.354,0.305-0.843,0.696l-0.733,0.623l-3.005,2.419c-4.935,4.667-7.684,6.878-8.246,6.634
				c-0.66,0.098-4.019-2.309-10.079-7.22L508.835,100.677z"/>
		</g>
		<g>
			<path fill="#59BEBE" d="M540.489,105.804c6.059-4.911,9.419-7.318,10.079-7.22c0.562-0.244,3.311,1.967,8.246,6.634l3.005,2.419
				l0.733,0.623c0.489,0.391,0.77,0.623,0.843,0.696c0.391,0.44,0.55,0.904,0.476,1.393c-0.122,0.757-0.745,0.916-1.869,0.476
				c-0.22-0.122-1.796-1.429-4.728-3.921c-4.276-4.105-6.463-6.084-6.56-5.937c-0.709-0.171-3.518,1.82-8.429,5.974
				c-1.759,1.539-3.152,2.651-4.178,3.335c-0.855,0.586-1.38,0.77-1.576,0.55c-0.513-0.66-0.574-1.283-0.183-1.869L540.489,105.804z
				"/>
		</g>
	</g>
</g>
<g>
	<g>
		<path fill="#5ABEBE" d="M102.375,55.046c0,2.132-0.028,4.236-0.297,6.294c-0.275,2.107-0.697,4.173-1.235,6.185
			c-0.547,2.046-1.321,4.003-2.121,5.932c-0.809,1.952-1.728,3.835-2.777,5.648c-1.056,1.825-2.129,3.639-3.407,5.302
			c-1.282,1.669-2.689,3.244-4.175,4.729c-1.486,1.486-3.082,2.864-4.751,4.147c-1.663,1.278-3.434,2.417-5.259,3.473
			c-1.812,1.048-3.685,2.007-5.637,2.817c-1.929,0.8-3.915,1.505-5.961,2.052c-2.012,0.538-4.094,0.848-6.2,1.123
			c-2.059,0.268-4.149,0.382-6.281,0.382c-2.132,0-4.232-0.042-6.29-0.31c-2.107-0.275-4.146-0.78-6.158-1.318
			c-2.046-0.547-4.054-1.156-5.984-1.956c-1.952-0.809-3.86-1.699-5.673-2.748c-1.825-1.056-3.559-2.253-5.222-3.531
			c-1.669-1.282-3.286-2.636-4.771-4.122c-1.486-1.486-2.776-3.152-4.058-4.821c-1.278-1.663-2.474-3.386-3.53-5.211
			c-1.048-1.812-2.086-3.649-2.895-5.6c-0.8-1.929-1.467-3.934-2.014-5.98c-0.538-2.012-0.968-4.08-1.242-6.187
			c-0.268-2.059-0.354-4.167-0.354-6.299c0-2.132,0.234-4.221,0.503-6.279c0.275-2.107,0.687-4.16,1.224-6.172
			c0.547-2.046,1.052-4.099,1.852-6.028c0.809-1.952,1.874-3.778,2.923-5.59c1.056-1.825,2.141-3.634,3.419-5.297
			c1.282-1.669,2.77-3.164,4.256-4.65c1.486-1.486,3.006-2.941,4.675-4.223c1.663-1.278,3.38-2.511,5.205-3.567
			c1.812-1.048,3.724-1.952,5.675-2.761c1.929-0.8,3.922-1.502,5.968-2.049c2.012-0.538,4.107-0.785,6.213-1.06
			c2.059-0.268,4.146-0.447,6.278-0.447c2.132,0,4.227,0.115,6.286,0.384c2.107,0.275,4.181,0.631,6.193,1.169
			c2.046,0.547,4.038,1.236,5.968,2.036c1.952,0.809,3.823,1.774,5.635,2.823c1.825,1.056,3.532,2.278,5.195,3.556
			c1.669,1.282,3.272,2.635,4.757,4.121c1.486,1.486,2.931,3.018,4.213,4.687c1.278,1.663,2.474,3.403,3.53,5.228
			c1.048,1.812,1.891,3.745,2.7,5.696c0.8,1.929,1.466,3.918,2.013,5.964c0.538,2.012,0.945,4.069,1.22,6.175
			C102.253,50.822,102.375,52.914,102.375,55.046z"/>
	</g>
	<g>
		<g>
			<path fill="#FEFFFF" d="M57.518,30.044c0.074,0,0.168,0.054,0.243,0.054c0-0.074-0.011-0.212-0.011-0.286
				c-0.075,0-0.112,0.09-0.186,0.09C57.564,29.975,57.518,29.97,57.518,30.044z"/>
		</g>
		<g>
			<path fill="#FEFFFF" d="M57.379,15.704c0.087-0.025,0.181,0.037,0.184-0.072C57.476,15.657,57.383,15.595,57.379,15.704z"/>
		</g>
		<g>
			<path fill="#FEFFFF" d="M55.124,58.497c0.075,0,0.251,0.03,0.326,0.03c0-0.074-0.089-0.193-0.089-0.267
				c-0.074,0-0.094,0.009-0.168,0.009C55.192,58.344,55.124,58.423,55.124,58.497z"/>
		</g>
		<g>
			<path fill="#FEFFFF" d="M56.663,15.195c0.031,0.031,0.211-0.095,0.153-0.153C56.785,15.011,56.605,15.137,56.663,15.195z"/>
		</g>
		<g>
			<path fill="#FEFFFF" d="M57.94,81.841c0.013-0.21,0.294-0.031,0.26-0.288c-0.129-0.094-0.251-0.217-0.509-0.182
				C57.707,81.578,57.79,81.768,57.94,81.841z"/>
		</g>
		<g>
			<path fill="#FEFFFF" d="M56.346,46.361c-0.086,0.025-0.183-0.035-0.185,0.074C56.247,46.41,56.343,46.469,56.346,46.361z"/>
		</g>
		<g>
			<path fill="#FEFFFF" d="M59.136,24.644c-0.375-0.338-0.317,0.358,0.02-0.054C59.174,24.569,59.136,24.644,59.136,24.644z"/>
		</g>
		<g>
			<path fill="#FEFFFF" d="M58.624,93.113c0,0.075,0.002,0.117,0.002,0.192c0.112-0.001,0.175,0.133,0.265,0.154
				C58.881,93.283,58.862,93.061,58.624,93.113z"/>
		</g>
		<g>
			<path fill="#FEFFFF" d="M57.682,33.632c-0.068-0.032-0.29-0.3-0.307-0.023C57.444,33.641,57.665,33.908,57.682,33.632z"/>
		</g>
		<g>
			<path fill="#FEFFFF" d="M54.012,96.253c0.275,0.173,0.336-0.466,0.12-0.421c-0.007,0.068,0.012,0.188-0.084,0.168
				C54.048,96.073,54.012,96.178,54.012,96.253z"/>
		</g>
		<g>
			<path fill="#FEFFFF" d="M57.061,35.862c0,0.075-0.001,0.134-0.001,0.208c0.111,0,0.135-0.047,0.247-0.047
				C57.321,35.822,57.284,35.824,57.061,35.862z"/>
		</g>
		<g>
			<path fill="#FEFFFF" d="M56.891,89.363c0.074,0,0.194-0.06,0.268-0.06c0-0.075,0.018-0.152,0.018-0.227
				c-0.074,0-0.126,0.045-0.2,0.045C56.978,89.196,56.891,89.289,56.891,89.363z"/>
		</g>
		<g>
			<path fill="#FEFFFF" d="M59.452,80.358c-0.125,0.011-0.171-0.109-0.221,0.053C59.233,80.523,59.425,80.498,59.452,80.358z"/>
		</g>
		<g>
			<path fill="#FEFFFF" d="M55.278,31.947c0.375,0.338,0.378-0.366,0.041,0.046C55.316,31.996,55.278,31.947,55.278,31.947z"/>
		</g>
		<g>
			<path fill="#FEFFFF" d="M64.234,84.588c0.03,0.031,0.125-0.009,0.067-0.067C64.271,84.49,64.176,84.53,64.234,84.588z"/>
		</g>
		<g>
			<path fill="#FEFFFF" d="M54.967,62.028c0,0.061,0.069,0.123,0.09-0.002C55.059,61.964,54.988,61.902,54.967,62.028z"/>
		</g>
		<g>
			<path fill="#FEFFFF" d="M54.563,24.898c0.001,0.112-0.031,0.151-0.053,0.242c0.112-0.001,0.175,0.171,0.265,0.192
				c-0.001-0.112-0.03-0.134-0.009-0.224C54.656,25.109,54.654,24.92,54.563,24.898z"/>
		</g>
		<g>
			<path fill="#FEFFFF" d="M54.078,60.082c0,0.075,0.003,0.032,0.003,0.106c0.112,0,0.16,0.177,0.25,0.198
				C54.32,60.211,54.316,60.03,54.078,60.082z"/>
		</g>
		<g>
			<path fill="#FEFFFF" d="M54.233,94.581c-0.086,0.026-0.241,0.025-0.244,0.134C54.075,94.689,54.23,94.689,54.233,94.581z"/>
		</g>
		<g>
			<path fill="#FEFFFF" d="M54.823,66.816c-0.031-0.031-0.209,0.094-0.151,0.152C54.702,66.999,54.88,66.874,54.823,66.816z"/>
		</g>
		<g>
			<path fill="#FEFFFF" d="M55.88,85.576c0.021-0.243-0.177-0.44-0.42-0.42C55.44,85.399,55.637,85.596,55.88,85.576z"/>
		</g>
		<g>
			<path fill="#FEFFFF" d="M55.518,61.663c0.176-0.165,0.103-0.578-0.244-0.527C55.289,61.344,55.369,61.59,55.518,61.663z"/>
		</g>
		<g>
			<path fill="#FEFFFF" d="M55.736,12.564c0.001-0.061-0.057-0.122-0.078,0.004C55.657,12.63,55.715,12.691,55.736,12.564z"/>
		</g>
		<g>
			<path fill="#FEFFFF" d="M55.877,27.546c0.02-0.243-0.064-0.327-0.308-0.307C55.549,27.482,55.633,27.567,55.877,27.546z"/>
		</g>
		<g>
			<path fill="#FEFFFF" d="M55.974,39.985c-0.184-0.001,0.075-0.247-0.086-0.272C55.793,39.941,55.848,40.343,55.974,39.985z"/>
		</g>
		<g>
			<path fill="#FEFFFF" d="M59.131,94.048c-0.125,0.012-0.34-0.127-0.389,0.035C58.743,94.195,59.103,94.188,59.131,94.048z"/>
		</g>
		<g>
			<path fill="#FEFFFF" d="M61.98,23.247c-0.074,0-0.106,0.082-0.181,0.082c0,0.075-0.032,0.056-0.032,0.13
				c0.075,0,0.186,0.098,0.261,0.098C62.028,23.483,61.98,23.322,61.98,23.247z"/>
		</g>
		<g>
			<path fill="#FEFFFF" d="M62.53,50.54c-0.086,0.025-0.214-0.003-0.218,0.106C62.4,50.621,62.527,50.649,62.53,50.54z"/>
		</g>
		<g>
			<path fill="#FEFFFF" d="M62.196,19.136c-0.125,0.012-0.277-0.167-0.326-0.006C61.871,19.243,62.169,19.276,62.196,19.136z"/>
		</g>
		<g>
			<path fill="#FEFFFF" d="M62.104,87.831c-0.074,0-0.199,0.015-0.273,0.015c0,0.074,0.07,0.113,0.07,0.188
				c0.074,0,0.08,0.037,0.154,0.037C62.056,87.996,62.104,87.905,62.104,87.831z"/>
		</g>
		<g>
			<path fill="#FEFFFF" d="M61.421,80.391c0,0.061,0.205,0.139,0.226,0.013C61.648,80.342,61.442,80.264,61.421,80.391z"/>
		</g>
		<g>
			<path fill="#FEFFFF" d="M62.332,62.656c-0.074,0-0.235-0.012-0.31-0.012c0,0.075,0.03,0.217,0.03,0.291
				c0.074,0,0.211,0.024,0.286,0.024C62.338,62.885,62.332,62.731,62.332,62.656z"/>
		</g>
		<g>
			<path fill="#FEFFFF" d="M64.832,73.729c0.165,0.059,0.357,0.213,0.522,0.271C65.561,73.628,64.877,73.483,64.832,73.729z"/>
		</g>
		<g>
			<path fill="#FEFFFF" d="M64.723,17.655c0,0.149,0.057,0.281,0.057,0.429C65.209,18.172,65.152,17.567,64.723,17.655z"/>
		</g>
		<g>
			<path fill="#FEFFFF" d="M58.644,53.939c-0.074,0-0.121-0.082-0.196-0.082c0.001,0.111-0.018,0.138-0.039,0.228
				C58.584,54.075,58.696,54.176,58.644,53.939z"/>
		</g>
		<g>
			<path fill="#FEFFFF" d="M64.665,69.657c0,0.075-0.003,0.048-0.003,0.122c0.112,0,0.278,0.093,0.389,0.093
				C65.066,69.672,64.889,69.62,64.665,69.657z"/>
		</g>
		<g>
			<path fill="#FEFFFF" d="M65.395,74.519c-0.031-0.031-0.205,0.089-0.147,0.147C65.279,74.697,65.453,74.577,65.395,74.519z"/>
		</g>
		<g>
			<path fill="#FEFFFF" d="M60.275,30.741c0.031,0.031,0.139-0.023,0.081-0.081C60.326,30.629,60.218,30.684,60.275,30.741z"/>
		</g>
		<g>
			<path fill="#FEFFFF" d="M65.57,92.434c0-0.061-0.068-0.124-0.089,0.003C65.48,92.498,65.549,92.561,65.57,92.434z"/>
		</g>
		<g>
			<path fill="#FEFFFF" d="M64.82,65.866c-0.211,0.025-0.257-0.238-0.457-0.224C64.184,65.953,64.856,66.063,64.82,65.866z"/>
		</g>
		<g>
			<path fill="#FEFFFF" d="M59.578,44.803c0.031,0.031,0.061,0.054,0.004-0.004C59.551,44.769,59.52,44.746,59.578,44.803z"/>
		</g>
		<g>
			<path fill="#FEFFFF" d="M61.176,16.255c-0.45-0.391-0.186,0.408,0.077,0.049C61.254,16.302,61.176,16.255,61.176,16.255z"/>
		</g>
		<g>
			<path fill="#FEFFFF" d="M60.31,56.991c0.086-0.025,0.246-0.029,0.25-0.137C60.473,56.878,60.313,56.882,60.31,56.991z"/>
		</g>
		<g>
			<path fill="#FEFFFF" d="M58.503,34.852c0.074,0,0.206,0.054,0.281,0.054c0-0.075,0.012-0.272,0.012-0.347
				c-0.074,0-0.237,0.047-0.311,0.047C58.484,34.681,58.503,34.777,58.503,34.852z"/>
		</g>
		<g>
			<path fill="#FEFFFF" d="M58.376,8.471c0.086-0.025,0.19,0.027,0.193-0.081C58.482,8.415,58.379,8.362,58.376,8.471z"/>
		</g>
		<g>
			<path fill="#FEFFFF" d="M61.046,22.25c-0.068-0.032-0.458-0.272-0.475,0.005C60.639,22.287,61.03,22.527,61.046,22.25z"/>
		</g>
		<g>
			<path fill="#FEFFFF" d="M58.571,9.006c0,0.061,0.189,0.137,0.21,0.011C58.781,8.956,58.592,8.88,58.571,9.006z"/>
		</g>
		<g>
			<path fill="#FEFFFF" d="M59.866,64.276c0.017,0.131-0.016,0.366,0.114,0.383c0.006-0.067,0.016-0.187,0.111-0.167
				C60.079,64.358,60.056,64.236,59.866,64.276z"/>
		</g>
		<g>
			<path fill="#FEFFFF" d="M60.078,65.393c0,0.112-0.136,0.145-0.157,0.235c0.143,0.007,0.253,0.158,0.433,0.127
				C60.361,65.564,60.215,65.442,60.078,65.393z"/>
		</g>
		<g>
			<path fill="#FEFFFF" d="M59.675,95.49c0.349,0.06,0.425,0.414,0.959,0.289c-0.008-0.623-0.4-0.901-0.789-1.143
				C59.692,94.779,59.677,95.194,59.675,95.49z"/>
		</g>
		<g>
			<path fill="#FEFFFF" d="M60.763,56.538c-0.031-0.031-0.265,0.15-0.207,0.207C60.587,56.776,60.821,56.596,60.763,56.538z"/>
		</g>
		<g>
			<path fill="#FEFFFF" d="M59.777,11.908c0.024,0.134,0.031,0.042,0.13-0.026C59.906,11.77,59.805,11.768,59.777,11.908z"/>
		</g>
		<g>
			<path fill="#FEFFFF" d="M55.11,50.938c-0.031-0.032-0.179,0.063-0.122,0.121C55.019,51.09,55.167,50.996,55.11,50.938z"/>
		</g>
		<g>
			<path fill="#FEFFFF" d="M47.866,14.85c0.031,0.031,0.14-0.025,0.083-0.083C47.918,14.737,47.809,14.793,47.866,14.85z"/>
		</g>
		<g>
			<path fill="#FEFFFF" d="M48.412,22.102c-0.192-0.006-0.372,0.172-0.42,0.309C48.183,22.417,48.363,22.239,48.412,22.102z"/>
		</g>
		<g>
			<path fill="#FEFFFF" d="M47.951,36.368c0.375,0.338,0.327-0.348-0.011,0.063C47.923,36.452,47.951,36.368,47.951,36.368z"/>
		</g>
		<g>
			<path fill="#FEFFFF" d="M48.029,93.544c0,0.061,0.091,0.126,0.112,0C48.141,93.481,48.05,93.417,48.029,93.544z"/>
		</g>
		<g>
			<path fill="#FEFFFF" d="M48.4,48.284c-0.031-0.031-0.091-0.023-0.034,0.035C48.397,48.351,48.458,48.343,48.4,48.284z"/>
		</g>
		<g>
			<path fill="#FEFFFF" d="M48.347,40.751c0-0.062-0.119-0.13-0.14-0.003C48.206,40.809,48.326,40.878,48.347,40.751z"/>
		</g>
		<g>
			<path fill="#FEFFFF" d="M50.262,45.534c-0.031-0.031-0.215,0.1-0.158,0.158C50.135,45.723,50.32,45.591,50.262,45.534z"/>
		</g>
		<g>
			<path fill="#FEFFFF" d="M50.296,99.283c-0.143-0.006-0.147-0.277-0.327-0.245C49.795,99.312,50.34,99.499,50.296,99.283z"/>
		</g>
		<g>
			<path fill="#FEFFFF" d="M50.066,57.535c0.031,0.031,0.173-0.058,0.115-0.115C50.151,57.39,50.008,57.478,50.066,57.535z"/>
		</g>
		<g>
			<path fill="#FEFFFF" d="M50.51,99.34c0.001,0.113,0.242,0.075,0.27-0.065C50.654,99.286,50.559,99.177,50.51,99.34z"/>
		</g>
		<g>
			<path fill="#FEFFFF" d="M50.437,12.951c0.087-0.025,0.29-0.073,0.292-0.181C50.643,12.795,50.44,12.843,50.437,12.951z"/>
		</g>
		<g>
			<path fill="#FEFFFF" d="M49.889,23.41c0.031,0.031,0.265-0.15,0.208-0.208C50.066,23.172,49.832,23.352,49.889,23.41z"/>
		</g>
		<g>
			<path fill="#FEFFFF" d="M50.5,44.863c-0.001,0.062,0.125,0.131,0.146,0.004C50.646,44.806,50.521,44.736,50.5,44.863z"/>
		</g>
		<g>
			<path fill="#FEFFFF" d="M54.184,50.921c-0.032,0.254-0.011,0.357,0.185,0.384C54.545,51.139,54.531,50.869,54.184,50.921z"/>
		</g>
		<g>
			<path fill="#FEFFFF" d="M47.379,11.241c0.001-0.062-0.098-0.127-0.119-0.001C47.26,11.302,47.358,11.368,47.379,11.241z"/>
		</g>
		<g>
			<path fill="#FEFFFF" d="M48.546,24.298c0.126-0.012,0.159,0.124,0.209-0.037C48.753,24.148,48.574,24.157,48.546,24.298z"/>
		</g>
		<g>
			<path fill="#FEFFFF" d="M47.047,72.704c-0.09,0.674,0.598,0.086,0.087,0.011C47.091,72.709,47.047,72.704,47.047,72.704z"/>
		</g>
		<g>
			<path fill="#FEFFFF" d="M46.502,41.664c0.006-0.143,0.186-0.238,0.154-0.418c-0.111,0-0.331,0.033-0.443,0.033
				c0,0.111,0.083,0.217,0.083,0.328C46.37,41.608,46.427,41.664,46.502,41.664z"/>
		</g>
		<g>
			<path fill="#FEFFFF" d="M45.463,52.781c0,0.061,0.072,0.125,0.094-0.002C45.557,52.716,45.484,52.654,45.463,52.781z"/>
		</g>
		<g>
			<path fill="#FEFFFF" d="M45.569,44.766c-0.031-0.031-0.203,0.087-0.145,0.145C45.454,44.942,45.626,44.824,45.569,44.766z"/>
		</g>
		<g>
			<path fill="#FEFFFF" d="M47.294,35.247c-0.031-0.031-0.064-0.051-0.007,0.007C47.318,35.284,47.351,35.304,47.294,35.247z"/>
		</g>
		<g>
			<path fill="#FEFFFF" d="M47.558,81.636c0,0.061-0.002,0.116,0.02-0.011C47.578,81.564,47.579,81.51,47.558,81.636z"/>
		</g>
		<g>
			<path fill="#FEFFFF" d="M48.866,12.96c-0.03-0.031-0.188,0.072-0.13,0.13C48.767,13.122,48.924,13.018,48.866,12.96z"/>
		</g>
		<g>
			<path fill="#FEFFFF" d="M49.056,84.023c0,0.111-0.071,0.016-0.092,0.107c0.143,0.006,0.034,0.139,0.213,0.108
				C49.183,84.045,49.193,84.071,49.056,84.023z"/>
		</g>
		<g>
			<path fill="#FEFFFF" d="M49.174,85.973c0,0.062,0.067,0.124,0.088-0.003C49.263,85.909,49.196,85.847,49.174,85.973z"/>
		</g>
		<g>
			<path fill="#FEFFFF" d="M49.254,96.993c-0.031-0.031-0.184,0.068-0.126,0.126C49.159,97.149,49.312,97.05,49.254,96.993z"/>
		</g>
		<g>
			<path fill="#FEFFFF" d="M48.89,54.028c-0.15-0.035-0.167-0.16-0.4-0.112C48.311,54.226,48.926,54.224,48.89,54.028z"/>
		</g>
		<g>
			<path fill="#FEFFFF" d="M53.925,73.06c-0.031-0.031-0.108-0.008-0.05,0.05C53.905,73.14,53.983,73.117,53.925,73.06z"/>
		</g>
		<g>
			<path fill="#FEFFFF" d="M52.099,75.342c0.173-0.273-0.308-0.29-0.264-0.074c0.068,0.006,0.182-0.013,0.162,0.08
				C52.072,75.348,52.025,75.342,52.099,75.342z"/>
		</g>
		<g>
			<path fill="#FEFFFF" d="M53.842,16.231c-0.031-0.031-0.205,0.09-0.148,0.148C53.724,16.41,53.899,16.289,53.842,16.231z"/>
		</g>
		<g>
			<path fill="#FEFFFF" d="M51.901,54.156c0.015,0.392,0.461,0.325,0.741,0.454C52.749,54.103,52.213,53.9,51.901,54.156z"/>
		</g>
		<g>
			<path fill="#FEFFFF" d="M53.661,29.442c0.031,0.031,0.182-0.067,0.124-0.125C53.755,29.287,53.603,29.384,53.661,29.442z"/>
		</g>
		<g>
			<path fill="#FEFFFF" d="M51.411,11.644c-0.086,0.025-0.08-0.137-0.083-0.028C51.414,11.591,51.408,11.752,51.411,11.644z"/>
		</g>
		<g>
			<path fill="#FEFFFF" d="M53.888,35.929c-0.149,0-0.413,0.01-0.561,0.01C53.302,36.304,53.965,36.37,53.888,35.929z"/>
		</g>
		<g>
			<path fill="#FEFFFF" d="M52.875,45.485c0.074,0,0.154-0.105,0.229-0.105c0-0.074,0.102-0.15,0.102-0.225
				c-0.074,0-0.23,0.024-0.304,0.024C52.902,45.254,52.875,45.411,52.875,45.485z"/>
		</g>
		<g>
			<path fill="#FEFFFF" d="M52.935,24.604c0.001,0.113,0.253,0.092,0.28-0.048C53.091,24.568,52.984,24.442,52.935,24.604z"/>
		</g>
		<g>
			<path fill="#FEFFFF" d="M53.353,12.931c-0.296,0.001-0.548-0.111-0.561,0.174C52.945,13.259,53.356,13.26,53.353,12.931z"/>
		</g>
		<g>
			<path fill="#FEFFFF" d="M51.148,46.432c-0.087,0.025-0.291,0.074-0.294,0.182C50.94,46.589,51.144,46.54,51.148,46.432z"/>
		</g>
		<g>
			<path fill="#FEFFFF" d="M53.598,23.49c-0.254-0.031-0.346,0.004-0.373,0.2C53.356,23.831,53.615,23.803,53.598,23.49z"/>
		</g>
		<g>
			<path fill="#FEFFFF" d="M51.322,36.25c0.016-0.35-0.274-0.371-0.546-0.434C50.699,36.228,50.941,36.296,51.322,36.25z"/>
		</g>
		<g>
			<path fill="#FEFFFF" d="M51.644,26.222c0.192,0.006,0.274-0.073,0.323-0.21C51.792,26.022,51.592,25.985,51.644,26.222z"/>
		</g>
		<g>
			<path fill="#FEFFFF" d="M51.915,44.552c0.031,0.031,0.151-0.036,0.093-0.093C51.977,44.428,51.857,44.495,51.915,44.552z"/>
		</g>
		<g>
			<path fill="#FEFFFF" d="M51.838,51.422c-0.031-0.031-0.204,0.088-0.146,0.145C51.723,51.598,51.896,51.48,51.838,51.422z"/>
		</g>
		<g>
			<path fill="#FEFFFF" d="M52.266,67.371c-0.001,0.061,0.007,0.116,0.028-0.01C52.294,67.3,52.287,67.245,52.266,67.371z"/>
		</g>
		<g>
			<path fill="#FEFFFF" d="M52.074,49.573c-0.001,0.221-0.388,0.169-0.307,0.473c0.254,0.031,0.53-0.113,0.557-0.309
				C52.177,49.734,52.195,49.6,52.074,49.573z"/>
		</g>
		<g>
			<path fill="#FEFFFF" d="M45.765,17.11c0.268-0.268-0.371-0.251-0.34-0.074C45.423,17.029,45.807,17.067,45.765,17.11z"/>
		</g>
		<g>
			<path fill="#FEFFFF" d="M51.621,61.333c-0.142-0.006-0.247-0.195-0.427-0.163C51.019,61.444,51.665,61.549,51.621,61.333z"/>
		</g>
		<g>
			<path fill="#FEFFFF" d="M51.83,45.412c-0.222-0.001-0.133-0.25-0.438-0.169c0,0.111-0.02,0.181-0.02,0.292
				C51.54,45.517,51.796,45.564,51.83,45.412z"/>
		</g>
		<g>
			<path fill="#FEFFFF" d="M50.96,53.216c-0.09,0.674,0.58,0.13,0.069,0.055C50.991,53.266,50.96,53.216,50.96,53.216z"/>
		</g>
		<g>
			<path fill="#FEFFFF" d="M52.533,49.28c-0.086,0.025-0.106-0.111-0.108-0.003C52.51,49.252,52.53,49.388,52.533,49.28z"/>
		</g>
		<g>
			<path fill="#FEFFFF" d="M52.063,40.705c-0.176,0.165-0.112,0.478,0.235,0.425C52.328,40.877,52.259,40.732,52.063,40.705z"/>
		</g>
		<g>
			<path fill="#FEFFFF" d="M52.21,35.406c0.023,0.134,0.137,0.048,0.236-0.02C52.445,35.273,52.238,35.266,52.21,35.406z"/>
		</g>
		<g>
			<path fill="#FEFFFF" d="M52.41,85.544c-0.001-0.112-0.203-0.159-0.23-0.019C52.203,85.659,52.311,85.612,52.41,85.544z"/>
		</g>
		<g>
			<path fill="#FEFFFF" d="M75.494,48.949c-0.284-0.058-0.44-0.217-0.454,0.196C75.295,49.176,75.467,49.145,75.494,48.949z"/>
		</g>
		<g>
			<path fill="#FEFFFF" d="M76.292,85.794c-0.086,0.025-0.184-0.033-0.187,0.076C76.192,85.845,76.29,85.903,76.292,85.794z"/>
		</g>
		<g>
			<path fill="#FEFFFF" d="M74.331,33.182c0.086-0.025,0.209,0.008,0.212-0.101C74.456,33.106,74.334,33.073,74.331,33.182z"/>
		</g>
		<g>
			<path fill="#FEFFFF" d="M75.666,36.192c0.031,0.031,0.208-0.092,0.15-0.15C75.785,36.01,75.608,36.134,75.666,36.192z"/>
		</g>
		<g>
			<path fill="#FEFFFF" d="M74.749,54.19c0.034-0.443-0.206-0.615-0.661-0.57c0,0.149,0.002,0.365,0.002,0.514
				C74.381,54.336,74.417,54.03,74.749,54.19z"/>
		</g>
		<g>
			<path fill="#FEFFFF" d="M77.235,26.942c-0.151-0.035-0.249-0.183-0.483-0.136C76.668,27.185,77.214,27.264,77.235,26.942z"/>
		</g>
		<g>
			<path fill="#FEFFFF" d="M75.37,22.343c-0.086,0.025-0.235,0.019-0.239,0.127C75.218,22.445,75.367,22.452,75.37,22.343z"/>
		</g>
		<g>
			<path fill="#FEFFFF" d="M77.159,54.608c0.022,0.013,0.036,0.229,0.152,0.136C77.387,54.682,76.729,54.359,77.159,54.608z"/>
		</g>
		<g>
			<path fill="#FEFFFF" d="M77.633,17.854c-0.087,0.025-0.242,0.025-0.245,0.133C77.475,17.962,77.63,17.962,77.633,17.854z"/>
		</g>
		<g>
			<path fill="#FEFFFF" d="M77.029,38.728c-0.087,0.025-0.168-0.048-0.171,0.06C76.944,38.763,77.025,38.836,77.029,38.728z"/>
		</g>
		<g>
			<path fill="#FEFFFF" d="M76.263,72.236c-0.086,0.025-0.271,0.054-0.274,0.163C76.075,72.374,76.26,72.345,76.263,72.236z"/>
		</g>
		<g>
			<path fill="#FEFFFF" d="M75.929,48.737c0.031,0.031,0.102,0.013,0.045-0.044C75.943,48.661,75.871,48.679,75.929,48.737z"/>
		</g>
		<g>
			<path fill="#FEFFFF" d="M76.524,75.411c0.088,0.153,0.093,0.049-0.021-0.081C76.386,75.198,76.445,75.274,76.524,75.411z"/>
		</g>
		<g>
			<path fill="#FEFFFF" d="M74.083,58.154c0.131-0.017,0.281,0.055,0.299-0.076C74.251,58.095,74.101,58.024,74.083,58.154z"/>
		</g>
		<g>
			<path fill="#FEFFFF" d="M76.226,12.966c0.776-0.25,1.287,0.514,1.591,0.026c-0.131-0.017-0.2,0.102-0.219-0.029
				c0.387-0.089,0.353,0.064,0.705,0.01c0.098-0.357-0.255-0.196-0.3-0.411c0.32,0.022,0.572,0.1,0.521-0.249
				c-0.631-0.074-0.968,0.072-1.159,0.437c-0.227-0.224-0.281,0.069-0.508,0.131c-0.01-0.175-0.269-0.147-0.207-0.394
				C76.366,12.501,76.24,12.683,76.226,12.966z"/>
		</g>
		<g>
			<path fill="#FEFFFF" d="M76.146,13.66c0.031,0.031,0.142-0.027,0.084-0.084C76.2,13.545,76.088,13.603,76.146,13.66z"/>
		</g>
		<g>
			<path fill="#FEFFFF" d="M75.361,13.559c-0.125,0.012-0.273-0.157-0.323,0.005C75.039,13.677,75.333,13.7,75.361,13.559z"/>
		</g>
		<g>
			<path fill="#FEFFFF" d="M76.243,12.338c-0.031-0.031-0.148,0.032-0.09,0.09C76.184,12.459,76.301,12.395,76.243,12.338z"/>
		</g>
		<g>
			<path fill="#FEFFFF" d="M75.396,10.845c-0.031-0.031-0.06-0.056-0.002,0.002C75.425,10.878,75.454,10.903,75.396,10.845z"/>
		</g>
		<g>
			<path fill="#FEFFFF" d="M75.503,11.945c0.347,0.15,0.395-0.261,0.58-0.34c0.117-0.051,0.308,0.163,0.316,0.007
				c-0.165-0.058-0.17-0.161-0.334-0.219C76.044,11.706,75.585,11.692,75.503,11.945z"/>
		</g>
		<g>
			<path fill="#FEFFFF" d="M75.099,12.479c0.075,0,0.157-0.022,0.232-0.022c0-0.074-0.046-0.089-0.046-0.163
				c-0.075,0-0.109-0.065-0.183-0.065C75.101,12.303,75.099,12.405,75.099,12.479z"/>
		</g>
		<g>
			<path fill="#FEFFFF" d="M73.643,34.197c-0.001-0.112-0.292-0.151-0.319-0.011C73.449,34.175,73.594,34.359,73.643,34.197z"/>
		</g>
		<g>
			<path fill="#FEFFFF" d="M73.923,55.092c-0.111,0-0.327-0.042-0.439-0.042c0,0.111,0.005,0.335,0.005,0.446
				c0.075,0,0.129-0.09,0.204-0.09C73.699,55.264,73.954,55.271,73.923,55.092z"/>
		</g>
		<g>
			<path fill="#FEFFFF" d="M73.587,33.054c0.001,0.112,0.237,0.181,0.265,0.041C73.727,33.106,73.636,32.893,73.587,33.054z"/>
		</g>
		<g>
			<path fill="#FEFFFF" d="M73.763,42.076c0.034-0.294-0.097-0.308-0.388-0.276C73.263,42.171,73.472,42.106,73.763,42.076z"/>
		</g>
		<g>
			<path fill="#FEFFFF" d="M74.154,14.537c0.192,0.006,0.269-0.07,0.318-0.207C74.297,14.341,74.101,14.299,74.154,14.537z"/>
		</g>
		<g>
			<path fill="#FEFFFF" d="M81.633,89.361c-0.451-0.392-0.296,0.434-0.033,0.076C81.624,89.405,81.633,89.361,81.633,89.361z"/>
		</g>
		<g>
			<path fill="#FEFFFF" d="M80.489,15.238c0.001-0.062,0.022-0.113,0.001,0.013C80.49,15.313,80.467,15.364,80.489,15.238z"/>
		</g>
		<g>
			<path fill="#FEFFFF" d="M80.772,88.503c0.032-0.477-0.399-0.492-0.781-0.556C79.942,88.441,80.276,88.553,80.772,88.503z"/>
		</g>
		<g>
			<path fill="#FEFFFF" d="M81.092,86.679c-0.194-0.008-0.361-0.042-0.46,0.044c-0.077,0.299,0.269,0.163,0.373,0.282
				C81.04,86.855,81.139,86.912,81.092,86.679z"/>
		</g>
		<g>
			<path fill="#FEFFFF" d="M80.854,84.133c0.031,0.031,0.113,0.002,0.055-0.055C80.878,84.047,80.796,84.076,80.854,84.133z"/>
		</g>
		<g>
			<path fill="#FEFFFF" d="M81.176,85.927c-0.031-0.031-0.261,0.146-0.203,0.203C81.004,86.161,81.234,85.984,81.176,85.927z"/>
		</g>
		<g>
			<path fill="#FEFFFF" d="M80.619,70.892c0.075,0,0.24-0.046,0.315-0.046c0-0.074,0.034-0.229,0.034-0.303
				c-0.075,0-0.143,0.12-0.218,0.12C80.75,70.737,80.619,70.818,80.619,70.892z"/>
		</g>
		<g>
			<path fill="#FEFFFF" d="M80.446,62.222c0.006-0.192-0.101-0.351-0.239-0.398C80.048,61.986,80.059,62.319,80.446,62.222z"/>
		</g>
		<g>
			<path fill="#FEFFFF" d="M75.889,14.02c0.006-0.142,0.21-0.188,0.179-0.368c-0.075,0-0.185,0.051-0.26,0.051
				c-0.006,0.143-0.103,0.102-0.072,0.281C75.81,13.985,75.815,14.02,75.889,14.02z"/>
		</g>
		<g>
			<path fill="#FEFFFF" d="M81.808,38.185c-0.031-0.031-0.185,0.07-0.128,0.127C81.712,38.343,81.866,38.242,81.808,38.185z"/>
		</g>
		<g>
			<path fill="#FEFFFF" d="M77.077,43.358c0.031,0.031,0.068,0.049,0.01-0.009C77.055,43.318,77.019,43.3,77.077,43.358z"/>
		</g>
		<g>
			<path fill="#FEFFFF" d="M81.642,71.209c-0.164-0.058-0.178-0.147-0.343-0.206C81.192,71.275,81.697,71.356,81.642,71.209z"/>
		</g>
		<g>
			<path fill="#FEFFFF" d="M79.944,71.311c0,0.111,0.023,0.11,0.023,0.221C80.292,71.695,80.269,71.148,79.944,71.311z"/>
		</g>
		<g>
			<path fill="#FEFFFF" d="M81.774,90.398c-0.339,0.376,0.413,0.397,0.001,0.059C81.76,90.445,81.774,90.398,81.774,90.398z"/>
		</g>
		<g>
			<path fill="#FEFFFF" d="M79.969,18.527c-0.031-0.031-0.28,0.166-0.223,0.223C79.777,18.781,80.027,18.585,79.969,18.527z"/>
		</g>
		<g>
			<path fill="#FEFFFF" d="M78.356,17.134c-0.143-0.007-0.146-0.115-0.326-0.084C77.857,17.324,78.4,17.35,78.356,17.134z"/>
		</g>
		<g>
			<path fill="#FEFFFF" d="M78.022,45.309c-0.086,0.025-0.167-0.05-0.169,0.057C77.938,45.341,78.019,45.417,78.022,45.309z"/>
		</g>
		<g>
			<path fill="#FEFFFF" d="M78.193,39.457c-0.031-0.031-0.181,0.067-0.124,0.124C78.1,39.612,78.251,39.515,78.193,39.457z"/>
		</g>
		<g>
			<path fill="#FEFFFF" d="M74.148,15.854c0.178-0.193,0.436-0.265,0.826-0.246c0-0.148,0.005-0.119,0.005-0.267
				c-0.596-0.001-0.919,0.153-1.398,0.269C73.85,15.704,74.008,15.47,74.148,15.854z"/>
		</g>
		<g>
			<path fill="#FEFFFF" d="M78.604,14.405c0.082-0.304-0.256-0.271-0.257-0.493c-0.751,0.083-0.899-0.399-1.43-0.537
				c0.105,0.549-0.173,0.682-0.723,0.577c-0.084,0.418,0.468,0.328,0.488,0.643c-0.475-0.102-0.802,0.142-0.62-0.402
				c-0.46,0.282-0.705-0.493-0.992,0.04c0.132,0.018,0.433,0.047,0.451,0.178c-0.13,0.019-0.188,0.214-0.179,0.372
				c-0.142-0.152-0.51-0.337-0.521-0.054c0.493-0.017-0.099,0.408,0.177,0.539c0.603,0.116,0.702-0.786,1.265-0.34
				c-0.487,0.003,0.262,0.457-0.198,0.543c0.462,0.261,0.668-0.549,1.286-0.489c0.212,0.048,0.303,0.327,0.581,0.31
				c0.01-0.176,0.321-0.143,0.259-0.39c-0.032-0.232-0.362,0.191-0.394-0.197C78.337,14.875,78.243,14.416,78.604,14.405z"/>
		</g>
		<g>
			<path fill="#FEFFFF" d="M77.183,36.124c-0.031-0.031-0.255,0.14-0.197,0.198C77.016,36.352,77.241,36.181,77.183,36.124z"/>
		</g>
		<g>
			<path fill="#FEFFFF" d="M79.371,15.004c-0.031-0.031-0.247,0.132-0.189,0.189C79.213,15.224,79.429,15.061,79.371,15.004z"/>
		</g>
		<g>
			<path fill="#FEFFFF" d="M78.124,45.875c-0.086,0.025-0.19-0.026-0.193,0.082C78.018,45.932,78.122,45.983,78.124,45.875z"/>
		</g>
		<g>
			<path fill="#FEFFFF" d="M79.192,45.772c-0.001,0.061,0.049,0.121,0.07-0.005C79.262,45.705,79.213,45.645,79.192,45.772z"/>
		</g>
		<g>
			<path fill="#FEFFFF" d="M78.691,12.567c0.244-0.02,0.298,0.038,0.278,0.281c-0.254-0.031-0.353,0.03-0.379,0.227
				c0.371-0.077,0.156,0.236,0.088,0.34c0.711-0.146,0.104,0.407,0.678,0.398c0.046-0.268-0.265-0.306-0.173-0.62
				c0.278-0.094,0.706-0.086,1.111-0.052c-0.373-0.228-0.766-0.548-1.145-0.766C79.009,12.375,78.707,12.247,78.691,12.567z"/>
		</g>
		<g>
			<path fill="#FEFFFF" d="M79.467,32.283c-0.03-0.031-0.186,0.07-0.128,0.128C79.37,32.442,79.525,32.34,79.467,32.283z"/>
		</g>
		<g>
			<path fill="#FEFFFF" d="M79.513,14.498c-0.112,0-0.163-0.003-0.274-0.003C78.59,14.494,79.543,14.797,79.513,14.498z"/>
		</g>
		<g>
			<path fill="#FEFFFF" d="M66.893,66.34c-0.074,0-0.226-0.021-0.3-0.021c0,0.074,0.083,0.164,0.083,0.237
				c0.074,0,0.134,0.054,0.207,0.054C66.884,66.536,66.893,66.414,66.893,66.34z"/>
		</g>
		<g>
			<path fill="#FEFFFF" d="M66.944,7.72c-0.38-0.084-0.376,0.423-0.053,0.443C66.866,7.952,66.958,7.919,66.944,7.72z"/>
		</g>
		<g>
			<path fill="#FEFFFF" d="M66.305,8.007c-0.269,0.373,0.425-0.2,0.051,0.07C66.354,8.078,66.305,8.007,66.305,8.007z"/>
		</g>
		<g>
			<path fill="#FEFFFF" d="M66.475,18.087c0.192,0.006,0.266-0.066,0.315-0.203C66.599,17.878,66.524,17.95,66.475,18.087z"/>
		</g>
		<g>
			<path fill="#FEFFFF" d="M67.413,15.48c-0.086,0.025-0.142-0.075-0.145,0.034C67.354,15.489,67.41,15.588,67.413,15.48z"/>
		</g>
		<g>
			<path fill="#FEFFFF" d="M66.385,49.697c0.087-0.025,0.247-0.031,0.25-0.139C66.548,49.583,66.388,49.588,66.385,49.697z"/>
		</g>
		<g>
			<path fill="#FEFFFF" d="M65.928,10.992c0.175-0.011,0.505-0.112,0.453-0.349c-0.074,0-0.214,0.045-0.288,0.045
				C66.093,10.799,65.949,10.902,65.928,10.992z"/>
		</g>
		<g>
			<path fill="#FEFFFF" d="M66.294,75.808c0-0.149,0.029-0.279,0.029-0.427c-0.129-0.093-0.252-0.103-0.511-0.068
				C65.876,75.62,65.855,75.875,66.294,75.808z"/>
		</g>
		<g>
			<path fill="#FEFFFF" d="M68.406,92.56c-0.086,0.025-0.197-0.02-0.2,0.088C68.293,92.624,68.403,92.669,68.406,92.56z"/>
		</g>
		<g>
			<path fill="#FEFFFF" d="M64.417,43.421c-0.074,0-0.107,0.05-0.181,0.05c0,0.074-0.033,0.09-0.033,0.164
				c0.074,0,0.198,0.075,0.272,0.075C64.475,43.637,64.417,43.495,64.417,43.421z"/>
		</g>
		<g>
			<path fill="#FEFFFF" d="M67.335,66.984c-0.396-0.013-0.407-0.329-0.894-0.251c-0.06,0.302-0.116,0.246-0.25,0.638
				c0.129,0.247,1.076,0.244,1.169,0.159C67.032,67.435,67.401,67.182,67.335,66.984z"/>
		</g>
		<g>
			<path fill="#FEFFFF" d="M68.834,36.049c-0.269,0.373,0.377-0.302,0.002-0.032C68.817,36.028,68.834,36.049,68.834,36.049z"/>
		</g>
		<g>
			<path fill="#FEFFFF" d="M67.578,24.114c-0.075,0-0.146-0.133-0.221-0.133c0,0.074,0.107,0.172,0.107,0.246
				c0.075,0,0.048-0.017,0.122-0.017C67.586,24.136,67.578,24.188,67.578,24.114z"/>
		</g>
		<g>
			<path fill="#FEFFFF" d="M69.504,30.611c-0.001-0.112-0.231-0.079-0.258,0.061C69.371,30.661,69.454,30.773,69.504,30.611z"/>
		</g>
		<g>
			<path fill="#FEFFFF" d="M65.533,56.005c0.086-0.025,0.235-0.019,0.239-0.127C65.684,55.903,65.535,55.896,65.533,56.005z"/>
		</g>
		<g>
			<path fill="#FEFFFF" d="M63.524,63.475c-0.269,0.373,0.367-0.276-0.007-0.007C63.515,63.469,63.524,63.475,63.524,63.475z"/>
		</g>
		<g>
			<path fill="#FEFFFF" d="M63.634,91.095c0,0.074-0.045,0.212-0.045,0.286c0.111,0,0.221,0.047,0.311,0.069
				C63.889,91.275,63.871,91.043,63.634,91.095z"/>
		</g>
		<g>
			<path fill="#FEFFFF" d="M63.607,79.039c0.02-0.243-0.085-0.348-0.329-0.328C63.258,78.953,63.364,79.059,63.607,79.039z"/>
		</g>
		<g>
			<path fill="#FEFFFF" d="M64.191,31.729c-0.087,0.025-0.267,0.05-0.27,0.158C64.008,31.863,64.188,31.838,64.191,31.729z"/>
		</g>
		<g>
			<path fill="#FEFFFF" d="M64.062,84.43c-0.222-0.001-0.117-0.308-0.42-0.227c0,0.111-0.042,0.266-0.042,0.377
				C63.767,84.561,64.028,84.581,64.062,84.43z"/>
		</g>
		<g>
			<path fill="#FEFFFF" d="M63.187,73.551c-0.087,0.078-0.226,0.727,0.022,0.774C63.302,74.114,63.599,73.64,63.187,73.551z"/>
		</g>
		<g>
			<path fill="#FEFFFF" d="M62.622,33.847c0,0.061,0.075,0.125,0.096-0.002C62.719,33.783,62.643,33.72,62.622,33.847z"/>
		</g>
		<g>
			<path fill="#FEFFFF" d="M75.843,13.518c-0.031-0.031-0.074-0.042-0.016,0.015C75.858,13.564,75.9,13.575,75.843,13.518z"/>
		</g>
		<g>
			<path fill="#FEFFFF" d="M63.003,45.614c-0.087,0.025-0.233,0.015-0.236,0.124C62.854,45.712,62.999,45.721,63.003,45.614z"/>
		</g>
		<g>
			<path fill="#FEFFFF" d="M63.15,93.373c-0.149,0-0.381,0.041-0.53,0.041c0,0.074,0,0.202,0,0.277
				C62.817,93.665,63.262,93.708,63.15,93.373z"/>
		</g>
		<g>
			<path fill="#FEFFFF" d="M63.254,88.352c-0.074,0-0.199,0.085-0.273,0.085c0,0.074-0.051,0.166-0.051,0.24
				c0.074,0,0.162-0.055,0.237-0.055C63.166,88.548,63.254,88.426,63.254,88.352z"/>
		</g>
		<g>
			<path fill="#FEFFFF" d="M62.623,32.628c0.031,0.031,0.161-0.046,0.103-0.103C62.696,32.494,62.566,32.57,62.623,32.628z"/>
		</g>
		<g>
			<path fill="#FEFFFF" d="M62.722,52.799c0.031,0.031,0.196-0.081,0.138-0.138C62.829,52.63,62.664,52.742,62.722,52.799z"/>
		</g>
		<g>
			<path fill="#FEFFFF" d="M71.485,88.154c-0.375-0.339-0.233,0.378,0.105-0.033C71.619,88.085,71.485,88.154,71.485,88.154z"/>
		</g>
		<g>
			<path fill="#FEFFFF" d="M78.232,12.026c-0.098-0.054-0.151-0.196-0.25-0.25c0,0.093,0.03,0.262,0.03,0.355
				C78.124,12.052,78.147,12.039,78.232,12.026z"/>
		</g>
		<g>
			<path fill="#FEFFFF" d="M73.279,71.543c-0.086,0.025-0.23,0.013-0.234,0.122C73.132,71.639,73.276,71.651,73.279,71.543z"/>
		</g>
		<g>
			<path fill="#FEFFFF" d="M72.272,51.499c0.075,0,0.18-0.078,0.254-0.078c0-0.075-0.028-0.073-0.028-0.147
				c-0.074,0-0.049-0.004-0.123-0.004C72.375,51.344,72.272,51.424,72.272,51.499z"/>
		</g>
		<g>
			<path fill="#FEFFFF" d="M72.606,86.462c-0.143-0.007-0.066-0.152-0.246-0.121C72.187,86.616,72.65,86.678,72.606,86.462z"/>
		</g>
		<g>
			<path fill="#FEFFFF" d="M71.237,33.897c0,0.074,0.002,0.058,0.002,0.132c0.112,0,0.273,0.089,0.384,0.089
				C71.637,33.919,71.461,33.859,71.237,33.897z"/>
		</g>
		<g>
			<path fill="#FEFFFF" d="M72.311,14.151c0.086-0.025,0.199,0.018,0.202-0.091C72.427,14.085,72.314,14.042,72.311,14.151z"/>
		</g>
		<g>
			<path fill="#FEFFFF" d="M78.461,55.451c0.03,0.031,0.236-0.121,0.179-0.178C78.609,55.241,78.404,55.394,78.461,55.451z"/>
		</g>
		<g>
			<path fill="#FEFFFF" d="M78.464,22.164c0,0.075-0.039,0.188-0.039,0.262c0.111,0,0.207-0.081,0.319-0.081
				C78.758,22.145,78.687,22.127,78.464,22.164z"/>
		</g>
		<g>
			<path fill="#FEFFFF" d="M79.622,14.052c-0.149,0-0.289-0.058-0.438-0.058C79.107,14.435,79.645,14.417,79.622,14.052z"/>
		</g>
		<g>
			<path fill="#FEFFFF" d="M79.024,13.903c-0.031-0.031-0.111-0.005-0.053,0.053C79.002,13.987,79.082,13.961,79.024,13.903z"/>
		</g>
		<g>
			<path fill="#FEFFFF" d="M78.646,15.289c0,0.075,0.063,0.176,0.063,0.251c0.112,0,0.224,0.061,0.335,0.061
				C79.059,15.4,78.869,15.252,78.646,15.289z"/>
		</g>
		<g>
			<path fill="#FEFFFF" d="M70.967,18.808c0.001,0.112,0.278,0.098,0.306-0.042C71.147,18.778,71.017,18.646,70.967,18.808z"/>
		</g>
		<g>
			<path fill="#FEFFFF" d="M71.717,18.085c-0.031-0.031-0.123,0.008-0.066,0.065C71.683,18.181,71.775,18.142,71.717,18.085z"/>
		</g>
		<g>
			<path fill="#FEFFFF" d="M71.494,19.421c-0.031-0.031-0.163,0.048-0.105,0.106C71.419,19.558,71.552,19.479,71.494,19.421z"/>
		</g>
		<g>
			<path fill="#FEFFFF" d="M71.848,16.832c-0.126,0.011-0.089-0.178-0.139-0.016C71.711,16.929,71.821,16.973,71.848,16.832z"/>
		</g>
		<g>
			<path fill="#FEFFFF" d="M70.675,17.01c0.031,0.031,0.107,0.008,0.05-0.05C70.694,16.93,70.617,16.953,70.675,17.01z"/>
		</g>
		<g>
			<path fill="#FEFFFF" d="M69.931,48.603c-0.086,0.025-0.243,0.027-0.246,0.135C69.771,48.713,69.928,48.711,69.931,48.603z"/>
		</g>
		<g>
			<path fill="#FEFFFF" d="M72.119,18.129c-0.074,0-0.183-0.005-0.257-0.005c0,0.075,0.021,0.167,0.021,0.241
				c0.074,0,0.151,0.004,0.224,0.004C72.107,18.295,72.119,18.204,72.119,18.129z"/>
		</g>
		<g>
			<path fill="#FEFFFF" d="M70.671,90.833c0.155-0.153,0.098-0.727-0.231-0.725C70.2,90.346,70.406,90.771,70.671,90.833z"/>
		</g>
		<g>
			<path fill="#FEFFFF" d="M70.954,62.172c0.031,0.031,0.197-0.081,0.139-0.138C71.061,62.003,70.896,62.114,70.954,62.172z"/>
		</g>
		<g>
			<path fill="#FEFFFF" d="M70.715,24.63c-0.039,0.297-0.303,0.529-0.359,0.807c0.379,0.18,0.983,0,1.362-0.128
				C71.702,24.843,71.249,24.579,70.715,24.63z"/>
		</g>
		<g>
			<path fill="#FEFFFF" d="M70.376,88.031c-0.031-0.031-0.075-0.04-0.017,0.017C70.389,88.079,70.433,88.088,70.376,88.031z"/>
		</g>
		<g>
			<path fill="#FEFFFF" d="M69.584,56.078c-0.031-0.031-0.151,0.035-0.094,0.093C69.521,56.202,69.641,56.136,69.584,56.078z"/>
		</g>
		<g>
			<path fill="#FEFFFF" d="M70.679,16.681c0.3,0.263,0.725-0.15,0.422-0.41C71.066,16.533,70.597,16.303,70.679,16.681z"/>
		</g>
		<g>
			<path fill="#FEFFFF" d="M29.858,18.699c-0.075,0-0.194-0.042-0.269-0.042c0,0.074,0.103,0.133,0.103,0.208
				c0.075,0,0.022-0.009,0.097-0.009C29.788,18.781,29.858,18.773,29.858,18.699z"/>
		</g>
		<g>
			<path fill="#FEFFFF" d="M13.912,33.405c-0.031-0.031-0.223,0.108-0.166,0.166C13.777,33.602,13.969,33.463,13.912,33.405z"/>
		</g>
		<g>
			<path fill="#FEFFFF" d="M13.533,34.339c0.031,0.031,0.227-0.111,0.169-0.169C13.671,34.14,13.475,34.282,13.533,34.339z"/>
		</g>
		<g>
			<path fill="#FEFFFF" d="M14.571,55.8c-0.086,0.025-0.202-0.015-0.206,0.094C14.452,55.869,14.568,55.909,14.571,55.8z"/>
		</g>
		<g>
			<path fill="#FEFFFF" d="M13.801,33.739c-0.087,0.025-0.178-0.039-0.182,0.07C13.705,33.784,13.798,33.847,13.801,33.739z"/>
		</g>
		<g>
			<path fill="#FEFFFF" d="M11.303,59.845c-0.031-0.031-0.052-0.063,0.005-0.006C11.339,59.869,11.361,59.902,11.303,59.845z"/>
		</g>
		<g>
			<path fill="#FEFFFF" d="M12.294,51.326c0,0.061,0.169,0.135,0.19,0.009C12.485,51.273,12.315,51.2,12.294,51.326z"/>
		</g>
		<g>
			<path fill="#FEFFFF" d="M11.067,67.654c0.031,0.031,0.261-0.146,0.204-0.204C11.24,67.42,11.009,67.596,11.067,67.654z"/>
		</g>
		<g>
			<path fill="#FEFFFF" d="M17.187,53.135c-0.148-0.145-0.401-0.151-0.432,0.107C16.903,53.388,17.156,53.393,17.187,53.135z"/>
		</g>
		<g>
			<path fill="#FEFFFF" d="M15.232,80.72c-0.27,0.374,0.396-0.252,0.021,0.016C15.243,80.743,15.232,80.72,15.232,80.72z"/>
		</g>
		<g>
			<path fill="#FEFFFF" d="M14.158,76.482c0.086-0.025,0.252-0.035,0.256-0.144C14.327,76.363,14.16,76.374,14.158,76.482z"/>
		</g>
		<g>
			<path fill="#FEFFFF" d="M17.008,37.216c-0.087,0.025-0.193-0.023-0.196,0.084C16.898,37.276,17.005,37.325,17.008,37.216z"/>
		</g>
		<g>
			<path fill="#FEFFFF" d="M14.769,70.303c0.031,0.031,0.141-0.025,0.083-0.083C14.821,70.189,14.712,70.245,14.769,70.303z"/>
		</g>
		<g>
			<path fill="#FEFFFF" d="M14.478,66.029c-0.087,0.025-0.19-0.027-0.193,0.081C14.371,66.085,14.475,66.136,14.478,66.029z"/>
		</g>
		<g>
			<path fill="#FEFFFF" d="M15.552,75.758c-0.086,0.025-0.145-0.072-0.148,0.037C15.491,75.769,15.55,75.866,15.552,75.758z"/>
		</g>
		<g>
			<path fill="#FEFFFF" d="M8.778,48.086c-0.006,0.068-0.013,0.14-0.108,0.118c0,0.075,0.037,0.123,0.037,0.197
				C8.982,48.575,8.995,48.042,8.778,48.086z"/>
		</g>
		<g>
			<path fill="#FEFFFF" d="M8.229,49.439c0,0.062,0.008,0.117,0.029-0.01C8.259,49.368,8.25,49.313,8.229,49.439z"/>
		</g>
		<g>
			<path fill="#FEFFFF" d="M9.178,42.589c-0.086,0.025-0.219,0.001-0.221,0.109C9.043,42.673,9.176,42.697,9.178,42.589z"/>
		</g>
		<g>
			<path fill="#FEFFFF" d="M10.911,35.4c0.031,0.031,0.145-0.03,0.088-0.087C10.968,35.282,10.853,35.343,10.911,35.4z"/>
		</g>
		<g>
			<path fill="#FEFFFF" d="M17.625,48.067c-0.375-0.338-0.307,0.5,0.031,0.088C17.671,48.136,17.625,48.067,17.625,48.067z"/>
		</g>
		<g>
			<path fill="#FEFFFF" d="M7.693,46.639c0.002,0.112,0.213,0.211,0.241,0.07C7.809,46.721,7.743,46.478,7.693,46.639z"/>
		</g>
		<g>
			<path fill="#FEFFFF" d="M8.904,65.048c0.007-0.068,0.062-0.112,0.157-0.091C9.048,64.821,8.99,64.67,8.8,64.711
				C8.817,64.842,8.773,65.03,8.904,65.048z"/>
		</g>
		<g>
			<path fill="#FEFFFF" d="M10.294,52.487c-0.126,0.011-0.172-0.211-0.222-0.049C10.074,52.55,10.267,52.627,10.294,52.487z"/>
		</g>
		<g>
			<path fill="#FEFFFF" d="M9.519,66.697c-0.001,0.062,0.047,0.122,0.068-0.005C9.588,66.63,9.54,66.57,9.519,66.697z"/>
		</g>
		<g>
			<path fill="#FEFFFF" d="M46.079,47.389c-0.125,0.011-0.324-0.132-0.374,0.03C45.707,47.531,46.052,47.529,46.079,47.389z"/>
		</g>
		<g>
			<path fill="#FEFFFF" d="M10.272,66.973c0.348,0.051,0.411-0.22,0.388-0.539c-0.131,0.017-0.375-0.022-0.393,0.108
				C10.601,66.615,10.165,66.765,10.272,66.973z"/>
		</g>
		<g>
			<path fill="#FEFFFF" d="M10.086,66c-0.338,0.375,0.449,0.373,0.037,0.035C10.103,66.019,10.086,66,10.086,66z"/>
		</g>
		<g>
			<path fill="#FEFFFF" d="M16.306,52.508c-0.075,0-0.163,0.087-0.238,0.087c0,0.074-0.037,0.113-0.037,0.187
				c0.075,0,0.202,0.05,0.277,0.05C16.307,52.757,16.306,52.581,16.306,52.508z"/>
		</g>
		<g>
			<path fill="#FEFFFF" d="M21.445,33.409c0-0.063-0.166-0.136-0.187-0.009C21.257,33.462,21.423,33.535,21.445,33.409z"/>
		</g>
		<g>
			<path fill="#FEFFFF" d="M21.311,20.555c0.086-0.025,0.27-0.053,0.273-0.162C21.498,20.418,21.314,20.446,21.311,20.555z"/>
		</g>
		<g>
			<path fill="#FEFFFF" d="M21.21,39.366c0.031,0.031,0.128-0.013,0.07-0.07C21.249,39.265,21.152,39.309,21.21,39.366z"/>
		</g>
		<g>
			<path fill="#FEFFFF" d="M16.814,50.442c0.001-0.061-0.11-0.129-0.131-0.002C16.683,50.501,16.793,50.569,16.814,50.442z"/>
		</g>
		<g>
			<path fill="#FEFFFF" d="M21.557,30.779c0.074,0,0.025,0.001,0.099,0.001c0-0.075,0.13-0.157,0.13-0.231
				c-0.074,0-0.162,0.124-0.236,0.124C21.55,30.747,21.557,30.704,21.557,30.779z"/>
		</g>
		<g>
			<path fill="#FEFFFF" d="M21.757,35.745c0-0.061-0.147-0.132-0.168-0.006C21.588,35.801,21.736,35.872,21.757,35.745z"/>
		</g>
		<g>
			<path fill="#FEFFFF" d="M21.607,79.872c0.024-0.087,0.169-0.155,0.299-0.137c-0.124-0.21-0.217-0.442-0.506-0.488
				C21.253,79.394,21.36,79.793,21.607,79.872z"/>
		</g>
		<g>
			<path fill="#FEFFFF" d="M23.645,56.905c0-0.063-0.151-0.134-0.172-0.007C23.472,56.96,23.623,57.032,23.645,56.905z"/>
		</g>
		<g>
			<path fill="#FEFFFF" d="M23.452,24.246c-0.187-0.314-0.833,0.171-0.514,0.329C22.968,24.346,23.5,24.553,23.452,24.246z"/>
		</g>
		<g>
			<path fill="#FEFFFF" d="M22.646,27.709c0.001,0.112,0.327,0.11,0.355-0.03C22.876,27.69,22.696,27.547,22.646,27.709z"/>
		</g>
		<g>
			<path fill="#FEFFFF" d="M23.218,80.128c-0.031-0.031-0.18,0.065-0.122,0.122C23.126,80.281,23.276,80.186,23.218,80.128z"/>
		</g>
		<g>
			<path fill="#FEFFFF" d="M23.212,59.954c-0.019,0.279,0.175,0.353,0.339,0.449C23.582,60.112,23.506,59.92,23.212,59.954z"/>
		</g>
		<g>
			<path fill="#FEFFFF" d="M23.577,76.873c-0.192-0.006-0.225,0.025-0.274,0.163C23.495,77.041,23.528,77.01,23.577,76.873z"/>
		</g>
		<g>
			<path fill="#FEFFFF" d="M21.625,44.223c-0.339,0.375,0.425,0.281,0.013-0.057C21.629,44.158,21.625,44.223,21.625,44.223z"/>
		</g>
		<g>
			<path fill="#FEFFFF" d="M18.229,58.935c-0.341-0.081-0.288,0.173-0.628,0.091c-0.084,0.418,0.287,0.392,0.442,0.572
				C18.131,59.391,18.192,59.196,18.229,58.935z"/>
		</g>
		<g>
			<path fill="#FEFFFF" d="M16.665,57.984c0.107-0.41-0.474-0.431-0.484-0.099C16.444,58.048,16.315,58.108,16.665,57.984z"/>
		</g>
		<g>
			<path fill="#FEFFFF" d="M17.901,63.722c-0.031-0.031-0.1-0.016-0.042,0.041C17.89,63.794,17.959,63.779,17.901,63.722z"/>
		</g>
		<g>
			<path fill="#FEFFFF" d="M17.716,72.482c0.031,0.031,0.104,0.012,0.045-0.045C17.73,72.406,17.658,72.424,17.716,72.482z"/>
		</g>
		<g>
			<path fill="#FEFFFF" d="M17.732,24.817c0.229,0.231,0.504,0.04,0.496-0.294C17.878,24.471,17.834,24.623,17.732,24.817z"/>
		</g>
		<g>
			<path fill="#FEFFFF" d="M15.975,67.748c0.142,0.006,0.17,0.269,0.351,0.238c0.006-0.192-0.147-0.325-0.285-0.373
				C16.042,67.724,15.996,67.658,15.975,67.748z"/>
		</g>
		<g>
			<path fill="#FEFFFF" d="M20.571,47.444c-0.001,0.061,0.015,0.118,0.036-0.009C20.607,47.373,20.592,47.317,20.571,47.444z"/>
		</g>
		<g>
			<path fill="#FEFFFF" d="M20.828,82.626c-0.087,0.025-0.167-0.051-0.17,0.057C20.745,82.659,20.825,82.735,20.828,82.626z"/>
		</g>
		<g>
			<path fill="#FEFFFF" d="M20.891,79.728c-0.001,0.061,0.161,0.134,0.183,0.008C21.074,79.674,20.913,79.601,20.891,79.728z"/>
		</g>
		<g>
			<path fill="#FEFFFF" d="M19.684,55.894c-0.001-0.112-0.118-0.174-0.146-0.034C19.664,55.849,19.635,56.056,19.684,55.894z"/>
		</g>
		<g>
			<path fill="#FEFFFF" d="M19.638,44.723c-0.074,0-0.172,0.054-0.246,0.054c0,0.074-0.072,0.19-0.072,0.264
				c0.074,0,0.206-0.057,0.279-0.057C19.6,44.911,19.638,44.797,19.638,44.723z"/>
		</g>
		<g>
			<path fill="#FEFFFF" d="M20.194,52.381c-0.095,0.227,0.106,0.639,0.232,0.281C20.242,52.66,20.354,52.407,20.194,52.381z"/>
		</g>
		<g>
			<path fill="#FEFFFF" d="M93.608,26.037c0,0.149,0.045,0.239,0.045,0.388c0.284-0.013,0.503,0.09,0.487-0.224
				C93.871,26.247,93.923,25.945,93.608,26.037z"/>
		</g>
		<g>
			<path fill="#FEFFFF" d="M97.329,41.127c-0.279-0.013-0.442-0.118-0.539,0.205c0.222,0.002,0.255,0.361,0.559,0.28
				C97.349,41.501,97.329,41.239,97.329,41.127z"/>
		</g>
		<g>
			<path fill="#FEFFFF" d="M96.595,35.656c-0.151-0.034-0.189-0.196-0.422-0.149C95.995,35.817,96.631,35.853,96.595,35.656z"/>
		</g>
		<g>
			<path fill="#FEFFFF" d="M98.721,41.328c0.125-0.011,0.114,0.128,0.164-0.034C98.883,41.182,98.749,41.188,98.721,41.328z"/>
		</g>
		<g>
			<path fill="#FEFFFF" d="M97.303,72.488c-0.031-0.031-0.125,0.009-0.067,0.067C97.267,72.585,97.361,72.545,97.303,72.488z"/>
		</g>
		<g>
			<path fill="#FEFFFF" d="M95.537,29.828c-0.001,0.061,0.184,0.137,0.205,0.011C95.742,29.777,95.558,29.701,95.537,29.828z"/>
		</g>
		<g>
			<path fill="#FEFFFF" d="M87.494,59.117c-0.088-0.207-0.514-0.333-0.548,0.003c0.242,0.063,0.824,0.277,1.026,0.01
				C87.759,58.922,87.771,59.106,87.494,59.117z"/>
		</g>
		<g>
			<path fill="#FEFFFF" d="M95.833,58.81c-0.031-0.031-0.207,0.091-0.149,0.149C95.714,58.99,95.89,58.868,95.833,58.81z"/>
		</g>
		<g>
			<path fill="#FEFFFF" d="M100.599,58.28c0.031,0.031,0.236-0.121,0.178-0.178C100.747,58.071,100.542,58.223,100.599,58.28z"/>
		</g>
		<g>
			<path fill="#FEFFFF" d="M100.707,55.167c-0.031-0.032-0.145,0.029-0.087,0.087C100.651,55.284,100.764,55.223,100.707,55.167z"/>
		</g>
		<g>
			<path fill="#FEFFFF" d="M99.28,35.208c0.014,0.014,0.067-0.024,0.097-0.044c-0.012-0.027-0.013-0.12-0.025-0.148
				C99.311,35.04,99.245,35.174,99.28,35.208z"/>
		</g>
		<g>
			<path fill="#FEFFFF" d="M81.908,14.365c0.066-0.005,0.195-0.021,0.251-0.036c-0.053-0.036-0.171-0.163-0.224-0.198
				C81.919,14.168,81.903,14.308,81.908,14.365z"/>
		</g>
		<g>
			<path fill="#FEFFFF" d="M99.376,37.598c-0.097,0.422,0.33,0.524,0.517,0.335C99.945,37.585,99.696,37.576,99.376,37.598z"/>
		</g>
		<g>
			<path fill="#FEFFFF" d="M100.74,50.009c-0.031-0.03-0.206,0.09-0.148,0.148C100.623,50.188,100.798,50.067,100.74,50.009z"/>
		</g>
		<g>
			<path fill="#FEFFFF" d="M95.939,47.121c-0.031-0.031-0.214,0.098-0.157,0.156C95.813,47.308,95.997,47.179,95.939,47.121z"/>
		</g>
		<g>
			<path fill="#FEFFFF" d="M92.904,32.28c0.002,0.112,0.269,0.127,0.297-0.013C93.075,32.278,92.954,32.118,92.904,32.28z"/>
		</g>
		<g>
			<path fill="#FEFFFF" d="M91.242,79.658c0.087-0.026,0.287-0.071,0.29-0.18C91.445,79.504,91.245,79.549,91.242,79.658z"/>
		</g>
		<g>
			<path fill="#FEFFFF" d="M92.632,27.372c-0.087,0.025-0.212-0.005-0.215,0.103C92.503,27.45,92.628,27.48,92.632,27.372z"/>
		</g>
		<g>
			<path fill="#FEFFFF" d="M91.509,33.171c-0.031-0.031-0.236,0.12-0.178,0.179C91.362,33.38,91.567,33.228,91.509,33.171z"/>
		</g>
		<g>
			<path fill="#FEFFFF" d="M90.173,64.921c-0.001,0.062,0.082,0.125,0.103-0.001C90.276,64.858,90.194,64.795,90.173,64.921z"/>
		</g>
		<g>
			<path fill="#FEFFFF" d="M89.434,60.86c-0.087,0.025-0.094-0.124-0.096-0.016C89.424,60.819,89.431,60.968,89.434,60.86z"/>
		</g>
		<g>
			<path fill="#FEFFFF" d="M95.301,41.299c-0.031-0.031-0.219,0.103-0.161,0.161C95.171,41.491,95.359,41.356,95.301,41.299z"/>
		</g>
		<g>
			<path fill="#FEFFFF" d="M94.542,78.114c0.084-0.379-0.378-0.363-0.397-0.041C94.295,78.109,94.309,78.162,94.542,78.114z"/>
		</g>
		<g>
			<path fill="#FEFFFF" d="M93.236,26.768c-0.031-0.031-0.158,0.043-0.1,0.101C93.167,26.899,93.293,26.826,93.236,26.768z"/>
		</g>
		<g>
			<path fill="#FEFFFF" d="M95.098,43.144c-0.27,0.373,0.472-0.175,0.098,0.095C95.15,43.26,95.098,43.144,95.098,43.144z"/>
		</g>
		<g>
			<path fill="#FEFFFF" d="M94.531,28.949c0.001-0.061-0.115-0.129-0.136-0.003C94.394,29.008,94.51,29.076,94.531,28.949z"/>
		</g>
		<g>
			<path fill="#FEFFFF" d="M22.648,38.562c0.149,0,0.349-0.048,0.497-0.048C23.169,38.15,22.571,38.123,22.648,38.562z"/>
		</g>
		<g>
			<path fill="#FEFFFF" d="M18.725,58.234c-0.196,0.064-0.64-0.211-0.654,0.036C18.493,58.189,18.655,58.861,18.725,58.234z"/>
		</g>
		<g>
			<path fill="#FEFFFF" d="M83.231,32.75c-0.118,0.647,0.398-0.041-0.085-0.087C83.1,32.659,83.231,32.75,83.231,32.75z"/>
		</g>
		<g>
			<path fill="#FEFFFF" d="M83.531,55.51c0-0.075,0.076-0.115,0.076-0.189c-0.075,0-0.131,0.06-0.205,0.06
				c0,0.074-0.046,0.116-0.046,0.191C83.43,55.572,83.456,55.51,83.531,55.51z"/>
		</g>
		<g>
			<path fill="#FEFFFF" d="M83.015,25.579c0,0.074,0.006,0.186,0.006,0.26c0.112,0,0.267,0.013,0.379,0.013
				C83.415,25.652,83.239,25.541,83.015,25.579z"/>
		</g>
		<g>
			<path fill="#FEFFFF" d="M83.254,44.649c-0.086,0.025-0.167-0.05-0.17,0.058C83.17,44.682,83.251,44.757,83.254,44.649z"/>
		</g>
		<g>
			<path fill="#FEFFFF" d="M82.853,33.625c0.024,0.134,0.076,0.067,0.176-0.001C83.027,33.512,82.88,33.485,82.853,33.625z"/>
		</g>
		<g>
			<path fill="#FEFFFF" d="M82.837,74.578c0.086-0.025,0.137,0.08,0.14-0.028C82.891,74.575,82.841,74.47,82.837,74.578z"/>
		</g>
		<g>
			<path fill="#FEFFFF" d="M55.24,64.135c-0.002-0.112-0.213-0.098-0.241,0.043C55.125,64.166,55.191,64.297,55.24,64.135z"/>
		</g>
		<g>
			<path fill="#FEFFFF" d="M17.873,57.466c-0.016,0.117-0.037,0.27-0.011,0.094C17.879,57.444,17.899,57.29,17.873,57.466z"/>
		</g>
		<g>
			<path fill="#FEFFFF" d="M87.709,76.391c0.001-0.061-0.008-0.117-0.029,0.009C87.679,76.463,87.688,76.518,87.709,76.391z"/>
		</g>
		<g>
			<path fill="#FEFFFF" d="M18.321,70.652c-0.031-0.031-0.27,0.155-0.213,0.213C18.139,70.896,18.379,70.71,18.321,70.652z"/>
		</g>
		<g>
			<path fill="#FEFFFF" d="M18.069,39.026c0.111,0,0.32-0.047,0.431-0.047c0.031-0.254-0.037-0.419-0.234-0.446
				C18.232,38.684,18.022,38.793,18.069,39.026z"/>
		</g>
		<g>
			<path fill="#FEFFFF" d="M17.928,23.824c-0.045-0.005-0.077,0.006-0.117,0.006c-0.088,0.107-0.172,0.196-0.259,0.304
				C17.751,24.098,17.959,24.089,17.928,23.824z"/>
		</g>
		<g>
			<path fill="#FEFFFF" d="M54.599,102.103c-0.014,0.118-0.185,0.288-0.073,0.368c0.018,0,0.135-0.015,0.153-0.015
				C54.713,102.335,54.785,102.179,54.599,102.103z"/>
		</g>
		<g>
			<path fill="#FEFFFF" d="M86.256,79.275c0,0.149,0.065,0.26,0.065,0.409c0.151,0.035,0.127,0.233,0.36,0.186
				c-0.125,0.16-0.076,0.301,0.156,0.363C86.884,80.077,86.803,79.19,86.256,79.275z"/>
		</g>
		<g>
			<path fill="#FEFFFF" d="M85.683,78.862c0.086-0.025,0.224-0.007,0.228-0.116C85.824,78.771,85.686,78.754,85.683,78.862z"/>
		</g>
		<g>
			<path fill="#FEFFFF" d="M86.862,67.773c0.074,0,0.062,0,0.136,0c0-0.075,0.047-0.111,0.047-0.184
				c-0.074,0-0.216-0.059-0.29-0.059C86.756,67.604,86.862,67.698,86.862,67.773z"/>
		</g>
		<g>
			<path fill="#FEFFFF" d="M87.11,62.923c0.001-0.061-0.061-0.123-0.082,0.003C87.028,62.989,87.089,63.05,87.11,62.923z"/>
		</g>
		<g>
			<path fill="#FEFFFF" d="M86.78,82.701c0.006-0.192-0.035-0.235-0.173-0.283C86.601,82.609,86.643,82.652,86.78,82.701z"/>
		</g>
		<g>
			<path fill="#FEFFFF" d="M86.246,80.528c0.075,0,0.161-0.019,0.235-0.019c0-0.074-0.048-0.093-0.048-0.167
				c-0.075,0-0.129-0.084-0.203-0.084C86.23,80.332,86.246,80.454,86.246,80.528z"/>
		</g>
		<g>
			<path fill="#FEFFFF" d="M82.099,19.637c-0.221,0.21-0.045,0.628,0.008,0.881c0.275,0.015,0.617-0.007,0.748-0.135
				c-0.037-0.26-0.174-0.483-0.263-0.691C82.444,19.692,82.248,19.637,82.099,19.637z"/>
		</g>
		<g>
			<path fill="#FEFFFF" d="M84.312,33.474c-0.27,0.373,0.453-0.185,0.079,0.085C84.362,33.575,84.312,33.474,84.312,33.474z"/>
		</g>
		<g>
			<path fill="#FEFFFF" d="M82.157,77.432c0,0.074,0.005,0.072,0.005,0.146c0.112,0,0.098,0.123,0.189,0.144
				C82.34,77.548,82.395,77.38,82.157,77.432z"/>
		</g>
		<g>
			<path fill="#FEFFFF" d="M85.128,32.975c-0.03-0.031-0.131,0.015-0.073,0.073C85.086,33.079,85.186,33.032,85.128,32.975z"/>
		</g>
		<g>
			<path fill="#FEFFFF" d="M84.7,33.403c0.031,0.031,0.103,0.013,0.045-0.045C84.714,33.327,84.642,33.346,84.7,33.403z"/>
		</g>
		<g>
			<path fill="#FEFFFF" d="M84.818,87.433c-0.16,0.163-0.16,0.429,0.227,0.332C85.051,87.574,84.956,87.482,84.818,87.433z"/>
		</g>
		<g>
			<path fill="#FEFFFF" d="M10.026,41.422c0,0.062,0.17,0.136,0.191,0.009C10.218,41.37,10.047,41.296,10.026,41.422z"/>
		</g>
		<g>
			<path fill="#FEFFFF" d="M40.808,36.225c0.006-0.192-0.131-0.369-0.268-0.418C40.38,35.97,40.421,36.322,40.808,36.225z"/>
		</g>
		<g>
			<path fill="#FEFFFF" d="M38.61,93.426c-0.001,0.061,0.126,0.13,0.148,0.004C38.758,93.368,38.631,93.299,38.61,93.426z"/>
		</g>
		<g>
			<path fill="#FEFFFF" d="M38.896,46.419c-0.408,0-0.845-0.039-1.254-0.039c-0.21,0.197,0.184,0.338-0.192,0.438
				c-0.025-0.197,0.057-0.567-0.278-0.454c-0.218,0.208,0.106,0.483,0.141,0.744c-0.062,0.272-0.495,0.202-0.398,0.633
				c0.368,0.14,0.701,0.375,0.446,0.828c0.358-0.023,0.244,0.443,0.62,0.402c0.137-0.197,0.328-0.348,0.428-0.582
				c0.021,0.164,0.25,0.094,0.427,0.104c0.147-0.279-0.387-0.243-0.057-0.34c0.159,0.044,0.234,0.095,0.38-0.04
				c-0.033-0.661,0.504-0.744,0.451-1.144C39.413,46.755,38.939,46.784,38.896,46.419z"/>
		</g>
		<g>
			<path fill="#FEFFFF" d="M38.768,78.848c-0.075,0-0.142-0.004-0.216-0.004c0,0.074,0.057,0.088,0.057,0.162
				c0.074,0,0.032,0,0.107,0C38.716,78.932,38.768,78.922,38.768,78.848z"/>
		</g>
		<g>
			<path fill="#FEFFFF" d="M37.81,89.048c0.031,0.032,0.155-0.04,0.098-0.098C37.877,88.919,37.753,88.99,37.81,89.048z"/>
		</g>
		<g>
			<path fill="#FEFFFF" d="M38.285,65.117c0.159,0.027,0.172,0.277,0.319,0.316C38.701,65.204,38.33,64.84,38.285,65.117z"/>
		</g>
		<g>
			<path fill="#FEFFFF" d="M40.907,21.91c-0.142-0.006-0.177-0.131-0.357-0.1c0,0.111,0.043,0.207,0.043,0.319
				c0.074,0,0.141,0.043,0.215,0.043C40.808,22.06,40.886,22.001,40.907,21.91z"/>
		</g>
		<g>
			<path fill="#FEFFFF" d="M40.991,85.647c-0.087,0.025-0.155-0.062-0.158,0.046C40.919,85.669,40.988,85.756,40.991,85.647z"/>
		</g>
		<g>
			<path fill="#FEFFFF" d="M39.213,61.586c0.325,0.164,0.336-0.499,0.011-0.336C39.224,61.362,39.213,61.475,39.213,61.586z"/>
		</g>
		<g>
			<path fill="#FEFFFF" d="M36.127,48.048c0.005,0.153-0.114,0.198-0.173,0.289c0.132,0.127,0.44,0.125,0.714,0.11
				C36.648,48.134,36.49,48.019,36.127,48.048z"/>
		</g>
		<g>
			<path fill="#FEFFFF" d="M40.665,74.94c-0.339,0.375,0.417,0.339,0.005,0.001C40.668,74.94,40.665,74.94,40.665,74.94z"/>
		</g>
		<g>
			<path fill="#FEFFFF" d="M39.819,41.155c0.086-0.025,0.202,0.015,0.205-0.093C39.937,41.087,39.822,41.047,39.819,41.155z"/>
		</g>
		<g>
			<path fill="#FEFFFF" d="M39.898,81.738c-0.001,0.061,0.111,0.129,0.132,0.002C40.03,81.679,39.919,81.612,39.898,81.738z"/>
		</g>
		<g>
			<path fill="#FEFFFF" d="M39.5,60.853c-0.074,0-0.265-0.001-0.339-0.001c0,0.074-0.008,0.275-0.008,0.348
				c0.074,0,0.263-0.018,0.338-0.018C39.491,61.109,39.5,60.927,39.5,60.853z"/>
		</g>
		<g>
			<path fill="#FEFFFF" d="M35.718,26.333c-0.351,0.128-0.249-0.298-0.424-0.345c0,0.111,0.032,0.268,0.032,0.38
				C35.605,26.381,35.621,26.657,35.718,26.333z"/>
		</g>
		<g>
			<path fill="#FEFFFF" d="M39.647,26.068c-0.117,0.647,0.392-0.004-0.091-0.051C39.509,26.014,39.647,26.068,39.647,26.068z"/>
		</g>
		<g>
			<path fill="#FEFFFF" d="M34.085,47.102c-0.219-0.295-0.715-0.184-0.726,0.288C33.662,47.201,33.938,47.501,34.085,47.102z"/>
		</g>
		<g>
			<path fill="#FEFFFF" d="M35.016,89.49c0.006-0.143,0.178-0.085,0.146-0.264c-0.075,0-0.084-0.014-0.159-0.014
				c-0.006,0.142-0.24,0.187-0.209,0.367C34.869,89.578,34.942,89.49,35.016,89.49z"/>
		</g>
		<g>
			<path fill="#FEFFFF" d="M35.574,56.087c0.031,0.031,0.124-0.008,0.066-0.065C35.61,55.991,35.517,56.03,35.574,56.087z"/>
		</g>
		<g>
			<path fill="#FEFFFF" d="M38.637,15.887c0,0.111-0.007,0.29-0.007,0.401C38.955,16.452,38.962,15.723,38.637,15.887z"/>
		</g>
		<g>
			<path fill="#FEFFFF" d="M38.26,21.108c-0.031-0.031-0.163,0.047-0.106,0.105C38.185,21.243,38.317,21.166,38.26,21.108z"/>
		</g>
		<g>
			<path fill="#FEFFFF" d="M36.237,39.388c0.112,0,0.056,0.069,0.147,0.09c0-0.111,0.106-0.05,0.127-0.14
				c-0.112,0-0.067-0.091-0.158-0.112C36.353,39.337,36.258,39.298,36.237,39.388z"/>
		</g>
		<g>
			<path fill="#FEFFFF" d="M36.885,38.425c0-0.148,0.037-0.342,0.037-0.49c-0.111,0-0.33,0.002-0.442,0.002
				C36.449,38.229,36.592,38.459,36.885,38.425z"/>
		</g>
		<g>
			<path fill="#FEFFFF" d="M36.498,82.289c-0.001,0.062,0.073,0.125,0.094-0.002C36.592,82.225,36.519,82.163,36.498,82.289z"/>
		</g>
		<g>
			<path fill="#FEFFFF" d="M36.669,58.222c0.375,0.338,0.297-0.418-0.041-0.006C36.622,58.224,36.669,58.222,36.669,58.222z"/>
		</g>
		<g>
			<path fill="#FEFFFF" d="M37.316,64.465c0.179-0.31-0.489-0.285-0.454-0.088C37.013,64.412,37.083,64.513,37.316,64.465z"/>
		</g>
		<g>
			<path fill="#FEFFFF" d="M39.354,18.571c-0.254-0.032-0.407,0.032-0.434,0.228C39.085,18.974,39.406,18.917,39.354,18.571z"/>
		</g>
		<g>
			<path fill="#FEFFFF" d="M43.85,89.813c0.339,0.304-0.211-0.423,0.094-0.085C43.965,89.761,43.85,89.813,43.85,89.813z"/>
		</g>
		<g>
			<path fill="#FEFFFF" d="M44.507,72.431c0.067-0.289-0.079-0.436-0.369-0.369C44.062,72.362,44.403,72.312,44.507,72.431z"/>
		</g>
		<g>
			<path fill="#FEFFFF" d="M44.575,52.218c-0.031-0.031-0.244,0.129-0.186,0.186C44.42,52.435,44.633,52.275,44.575,52.218z"/>
		</g>
		<g>
			<path fill="#FEFFFF" d="M43.753,85.533c0.334,0.073-0.122,0.301-0.015,0.509C44.189,86.237,43.942,85.027,43.753,85.533z"/>
		</g>
		<g>
			<path fill="#FEFFFF" d="M43.543,52.042c-0.006,0.143-0.082,0.203-0.051,0.384c0.074,0,0.118,0.029,0.192,0.029
				C43.809,52.293,43.774,52.104,43.543,52.042z"/>
		</g>
		<g>
			<path fill="#FEFFFF" d="M43.197,44.17c0,0.111,0.034,0.258,0.034,0.369c0.075,0,0.115-0.02,0.19-0.02
				c0.006-0.143,0.256-0.198,0.225-0.377C43.535,44.143,43.309,44.17,43.197,44.17z"/>
		</g>
		<g>
			<path fill="#FEFFFF" d="M43.709,32.433c-0.037-0.09-0.226-0.171-0.264-0.037C43.371,32.654,43.81,32.674,43.709,32.433z"/>
		</g>
		<g>
			<path fill="#FEFFFF" d="M44.642,39.71c0-0.111-0.135-0.231-0.135-0.342c-0.111,0-0.179-0.083-0.29-0.083
				c0,0.111,0.087,0.175,0.087,0.286C44.414,39.571,44.53,39.71,44.642,39.71z"/>
		</g>
		<g>
			<path fill="#FEFFFF" d="M45.104,74.967c0.031,0.031,0.254-0.139,0.197-0.196C45.27,74.74,45.047,74.909,45.104,74.967z"/>
		</g>
		<g>
			<path fill="#FEFFFF" d="M45.308,71.854c-0.074,0-0.061-0.003-0.135-0.003c-0.006,0.142-0.218,0.153-0.186,0.332
				c0.112,0,0.296,0.019,0.407,0.019C45.393,72.09,45.308,71.965,45.308,71.854z"/>
		</g>
		<g>
			<path fill="#FEFFFF" d="M44.199,14.835c0.001,0.112-0.038,0.191-0.059,0.282c0.142,0.007,0.096,0.127,0.275,0.095
				C44.421,15.021,44.337,14.884,44.199,14.835z"/>
		</g>
		<g>
			<path fill="#FEFFFF" d="M44.959,81.237c0.031,0.031,0.14-0.024,0.082-0.082C45.01,81.124,44.902,81.179,44.959,81.237z"/>
		</g>
		<g>
			<path fill="#FEFFFF" d="M41.988,51.685c-0.111,0-0.256-0.069-0.367-0.069c0,0.111,0.109,0.216,0.109,0.328
				c0.111,0,0.155,0.047,0.266,0.047C41.995,51.879,41.988,51.796,41.988,51.685z"/>
		</g>
		<g>
			<path fill="#FEFFFF" d="M41.954,42.08c0.001,0.112,0.318,0.095,0.346-0.045C42.174,42.046,42.004,41.918,41.954,42.08z"/>
		</g>
		<g>
			<path fill="#FEFFFF" d="M42.413,76.14c0.084-0.38-0.471-0.375-0.491-0.052C42.072,76.123,42.18,76.187,42.413,76.14z"/>
		</g>
		<g>
			<path fill="#FEFFFF" d="M41.834,39.031c0.086-0.025,0.2,0.017,0.203-0.091C41.951,38.964,41.837,38.922,41.834,39.031z"/>
		</g>
		<g>
			<path fill="#FEFFFF" d="M41.62,34.567c0.074,0,0.197-0.055,0.271-0.055c0-0.074-0.053-0.089-0.053-0.164
				c-0.075,0-0.132-0.094-0.206-0.094C41.633,34.329,41.62,34.493,41.62,34.567z"/>
		</g>
		<g>
			<path fill="#FEFFFF" d="M42.522,47.466c-0.125,0.011-0.173-0.201-0.223-0.039C42.3,47.54,42.495,47.606,42.522,47.466z"/>
		</g>
		<g>
			<path fill="#FEFFFF" d="M40.628,74.093c-0.254-0.032-0.479,0.086-0.506,0.282C40.32,74.35,40.74,74.428,40.628,74.093z"/>
		</g>
		<g>
			<path fill="#FEFFFF" d="M42.159,45.161c0.375,0.339,0.24-0.411-0.098,0.001C42.042,45.186,42.159,45.161,42.159,45.161z"/>
		</g>
		<g>
			<path fill="#FEFFFF" d="M42.405,11.428c-0.012-0.136,0.051-0.193-0.139-0.152c0.018,0.131-0.085,0.202,0.046,0.22
				C42.319,11.428,42.31,11.407,42.405,11.428z"/>
		</g>
		<g>
			<path fill="#FEFFFF" d="M41.281,73.495c0.023,0.134,0.261,0.113,0.36,0.045C41.64,73.428,41.309,73.355,41.281,73.495z"/>
		</g>
		<g>
			<path fill="#FEFFFF" d="M41.72,67.99c-0.031-0.031-0.206,0.091-0.148,0.148C41.602,68.169,41.778,68.048,41.72,67.99z"/>
		</g>
		<g>
			<path fill="#FEFFFF" d="M40.5,76.567c-0.376-0.338-0.307,0.326,0.031-0.085C40.558,76.448,40.5,76.567,40.5,76.567z"/>
		</g>
		<g>
			<path fill="#FEFFFF" d="M42.996,48.646c0.031-0.254,0.024-0.369-0.172-0.396C42.849,48.448,42.66,48.758,42.996,48.646z"/>
		</g>
		<g>
			<path fill="#FEFFFF" d="M27.671,61.166c-0.27,0.373,0.377-0.249,0.003,0.02C27.654,61.204,27.671,61.166,27.671,61.166z"/>
		</g>
		<g>
			<path fill="#FEFFFF" d="M27.415,39.083c-0.001,0.062,0.143,0.132,0.164,0.006C27.578,39.027,27.436,38.957,27.415,39.083z"/>
		</g>
		<g>
			<path fill="#FEFFFF" d="M27.269,20.611c0.126-0.012,0.17,0.141,0.219-0.022C27.487,20.477,27.297,20.471,27.269,20.611z"/>
		</g>
		<g>
			<path fill="#FEFFFF" d="M27.07,41.198c-0.001,0.062,0.129,0.131,0.15,0.004C27.22,41.141,27.091,41.072,27.07,41.198z"/>
		</g>
		<g>
			<path fill="#FEFFFF" d="M26.215,66.392c-0.233-0.318-0.759,0.313-0.471,0.49C25.832,66.636,26.181,66.692,26.215,66.392z"/>
		</g>
		<g>
			<path fill="#FEFFFF" d="M27.339,38.366c-0.112,0-0.262,0.052-0.373,0.052c-0.02,0.244,0.035,0.263,0.278,0.243
				C27.244,38.549,27.339,38.477,27.339,38.366z"/>
		</g>
		<g>
			<path fill="#FEFFFF" d="M26.521,38.738c0.031,0.031,0.168-0.052,0.11-0.111C26.6,38.597,26.463,38.68,26.521,38.738z"/>
		</g>
		<g>
			<path fill="#FEFFFF" d="M25.633,74.376c-0.001,0.061,0.184,0.137,0.205,0.011C25.838,74.324,25.654,74.249,25.633,74.376z"/>
		</g>
		<g>
			<path fill="#FEFFFF" d="M29.186,87.751c0.024,0.135,0.077,0.044,0.177-0.025C29.362,87.615,29.214,87.611,29.186,87.751z"/>
		</g>
		<g>
			<path fill="#FEFFFF" d="M29.174,87.937c-0.006,0.142-0.19,0.227-0.159,0.407c0.074,0,0.221-0.02,0.296-0.02
				C29.435,88.163,29.406,87.999,29.174,87.937z"/>
		</g>
		<g>
			<path fill="#FEFFFF" d="M29.18,93.994c-0.175,0.011-0.333-0.068-0.281,0.169C29.091,94.169,29.132,94.131,29.18,93.994z"/>
		</g>
		<g>
			<path fill="#FEFFFF" d="M27.406,66.156c-0.339,0.166-0.403,0.092-0.639,0.24c-0.19,0.358,0.072,1.052,0.764,0.885
				C27.509,66.932,27.593,66.34,27.406,66.156z"/>
		</g>
		<g>
			<path fill="#FEFFFF" d="M27.841,62.589c-0.031-0.031-0.139,0.023-0.081,0.081C27.791,62.701,27.899,62.647,27.841,62.589z"/>
		</g>
		<g>
			<path fill="#FEFFFF" d="M22.823,41.654c-0.075,0-0.193-0.065-0.267-0.065c0,0.074,0.009,0.247,0.009,0.322
				c0.075,0,0.172-0.066,0.246-0.066C22.811,41.77,22.823,41.728,22.823,41.654z"/>
		</g>
		<g>
			<path fill="#FEFFFF" d="M24.928,80.444c-0.433-0.024-0.688,0.083-0.769,0.41c0.334,0.032,0.225,0.215,0.463,0.311
				c0.001,0,0.24-0.079,0.501-0.03C25.134,80.789,25.015,80.691,24.928,80.444z"/>
		</g>
		<g>
			<path fill="#FEFFFF" d="M25.799,24.219c-0.339,0.375,0.347,0.273-0.065-0.065C25.698,24.126,25.799,24.219,25.799,24.219z"/>
		</g>
		<g>
			<path fill="#FEFFFF" d="M26.053,49.225c-0.125,0.011-0.183-0.174-0.232-0.013C25.822,49.325,26.026,49.365,26.053,49.225z"/>
		</g>
		<g>
			<path fill="#FEFFFF" d="M25.673,23.514c-0.038-0.09-0.178-0.142-0.217-0.007C25.382,23.765,25.774,23.755,25.673,23.514z"/>
		</g>
		<g>
			<path fill="#FEFFFF" d="M25.276,66.479c0,0.061,0.012,0.118,0.033-0.009C25.309,66.407,25.297,66.352,25.276,66.479z"/>
		</g>
		<g>
			<path fill="#FEFFFF" d="M29.294,29.825c0-0.075-0.079-0.097-0.079-0.171C29.009,29.284,28.75,29.936,29.294,29.825z"/>
		</g>
		<g>
			<path fill="#FEFFFF" d="M22.975,54.736c-0.006,0.068-0.034,0.094-0.129,0.073c0,0.075-0.071,0.19-0.071,0.264
				C23.049,55.246,23.191,54.691,22.975,54.736z"/>
		</g>
		<g>
			<path fill="#FEFFFF" d="M26.076,27.71c0.001-0.062-0.091-0.126-0.112,0C25.964,27.773,26.055,27.837,26.076,27.71z"/>
		</g>
		<g>
			<path fill="#FEFFFF" d="M25.41,81.389c-0.086,0.025-0.25,0.033-0.253,0.142C25.244,81.506,25.408,81.497,25.41,81.389z"/>
		</g>
		<g>
			<path fill="#FEFFFF" d="M24.486,90.517c0.031-0.254-0.038-0.43-0.234-0.457C24.277,90.258,24.15,90.629,24.486,90.517z"/>
		</g>
		<g>
			<path fill="#FEFFFF" d="M24.871,81.482c0.031,0.031,0.105,0.01,0.048-0.047C24.888,81.404,24.814,81.424,24.871,81.482z"/>
		</g>
		<g>
			<path fill="#FEFFFF" d="M25.013,53.164c-0.031-0.031-0.165,0.05-0.107,0.107C24.936,53.302,25.071,53.222,25.013,53.164z"/>
		</g>
		<g>
			<path fill="#FEFFFF" d="M24.831,72.278c0.031,0.031,0.197-0.081,0.139-0.139C24.939,72.108,24.774,72.221,24.831,72.278z"/>
		</g>
		<g>
			<path fill="#FEFFFF" d="M33.079,65.261c-0.125,0.012-0.191-0.174-0.24-0.011C32.84,65.362,33.052,65.401,33.079,65.261z"/>
		</g>
		<g>
			<path fill="#FEFFFF" d="M33.404,64.714c-0.001-0.113-0.284-0.16-0.312-0.02C33.217,64.683,33.355,64.875,33.404,64.714z"/>
		</g>
		<g>
			<path fill="#FEFFFF" d="M32.808,81.461c-0.031-0.031-0.095-0.02-0.038,0.037C32.801,81.529,32.866,81.518,32.808,81.461z"/>
		</g>
		<g>
			<path fill="#FEFFFF" d="M32.366,81.731c0,0.061,0.211,0.14,0.232,0.014C32.599,81.684,32.387,81.605,32.366,81.731z"/>
		</g>
		<g>
			<path fill="#FEFFFF" d="M32.832,24.643c0,0.112-0.024,0.163-0.045,0.253c0.142,0.007,0.059,0.132,0.239,0.101
				C33.032,24.806,32.97,24.692,32.832,24.643z"/>
		</g>
		<g>
			<path fill="#FEFFFF" d="M29.026,37.683c0.031,0.031,0.121-0.006,0.064-0.063C29.058,37.589,28.968,37.626,29.026,37.683z"/>
		</g>
		<g>
			<path fill="#FEFFFF" d="M32.571,40.824c-0.031-0.031-0.06-0.056-0.002,0.002C32.599,40.856,32.629,40.881,32.571,40.824z"/>
		</g>
		<g>
			<path fill="#FEFFFF" d="M32.787,69.935c0-0.061-0.057-0.122-0.078,0.004C32.709,70.002,32.766,70.062,32.787,69.935z"/>
		</g>
		<g>
			<path fill="#FEFFFF" d="M33.584,22.103c-0.031-0.031-0.275,0.159-0.217,0.217C33.399,22.35,33.642,22.161,33.584,22.103z"/>
		</g>
		<g>
			<path fill="#FEFFFF" d="M34.189,35.185c0.023,0.134-0.06,0.02,0.039-0.048C34.227,35.025,34.216,35.045,34.189,35.185z"/>
		</g>
		<g>
			<path fill="#FEFFFF" d="M34.086,22.938c-0.086,0.025-0.242,0.025-0.246,0.134C33.927,23.047,34.083,23.047,34.086,22.938z"/>
		</g>
		<g>
			<path fill="#FEFFFF" d="M34.266,39.129c-0.074,0-0.158-0.105-0.232-0.105c0,0.074,0.068,0.195,0.068,0.269
				c0.074,0,0.113-0.014,0.187-0.014C34.289,39.205,34.266,39.203,34.266,39.129z"/>
		</g>
		<g>
			<path fill="#FEFFFF" d="M34.247,68.44c-0.086,0.025-0.192-0.024-0.195,0.084C34.138,68.498,34.244,68.548,34.247,68.44z"/>
		</g>
		<g>
			<path fill="#FEFFFF" d="M33.68,48.218c0,0.063-0.019,0.114,0.003-0.013C33.684,48.144,33.701,48.092,33.68,48.218z"/>
		</g>
		<g>
			<path fill="#FEFFFF" d="M28.667,87.534c-0.09,0.674,0.481,0.017-0.03-0.058C28.618,87.473,28.667,87.534,28.667,87.534z"/>
		</g>
		<g>
			<path fill="#FEFFFF" d="M28.322,61.774c0.075,0,0.133,0.039,0.208,0.039c0-0.074,0.01-0.181,0.01-0.256
				c-0.075,0-0.16,0.032-0.234,0.032C28.305,61.664,28.322,61.7,28.322,61.774z"/>
		</g>
		<g>
			<path fill="#FEFFFF" d="M29.137,84.605c0.057-0.325-0.442-0.564-0.599-0.307C28.707,84.478,28.879,84.851,29.137,84.605z"/>
		</g>
		<g>
			<path fill="#FEFFFF" d="M29.999,35.486c-0.031-0.031-0.163,0.047-0.105,0.104C29.925,35.621,30.056,35.543,29.999,35.486z"/>
		</g>
		<g>
			<path fill="#FEFFFF" d="M28.92,65.203c-0.125,0.012-0.208-0.104-0.257,0.058C28.665,65.372,28.893,65.343,28.92,65.203z"/>
		</g>
		<g>
			<path fill="#FEFFFF" d="M28.464,30.003c-0.031-0.031-0.074-0.042-0.017,0.016C28.478,30.05,28.521,30.061,28.464,30.003z"/>
		</g>
		<g>
			<path fill="#FEFFFF" d="M29.561,87.088c0,0.061-0.043,0.111-0.022-0.015C29.54,87.011,29.582,86.961,29.561,87.088z"/>
		</g>
		<g>
			<path fill="#FEFFFF" d="M30.751,70.373c-0.031-0.031-0.225,0.11-0.167,0.167C30.615,70.571,30.809,70.431,30.751,70.373z"/>
		</g>
		<g>
			<path fill="#FEFFFF" d="M31.605,53.585c0.124-0.011,0.137,0.124,0.186-0.038C31.791,53.435,31.633,53.445,31.605,53.585z"/>
		</g>
		<g>
			<path fill="#FEFFFF" d="M32.144,79.516c-0.001,0.062,0.107,0.129,0.128,0.002C32.272,79.457,32.165,79.391,32.144,79.516z"/>
		</g>
		<g>
			<path fill="#FEFFFF" d="M29.659,54.869c-0.031-0.031-0.231,0.116-0.174,0.173C29.516,55.074,29.717,54.927,29.659,54.869z"/>
		</g>
		<g>
			<path fill="#FEFFFF" d="M30.736,65.822c-0.074,0-0.206-0.077-0.279-0.077c0,0.075,0.067,0.215,0.067,0.29
				c0.074,0,0.095-0.054,0.169-0.054C30.693,65.906,30.736,65.897,30.736,65.822z"/>
		</g>
	</g>
	<g>
		<g>
			<path fill="#FFFFFF" d="M53.969,52.595c0.099,0.872-0.024,0.633-0.049,1.748c-0.011,0.496,0.041,1.087,0.026,1.757
				c-0.012,0.537-0.004,1.125-0.018,1.756c-0.012,0.554-0.002,1.141-0.015,1.757c-0.012,0.562-0.063,1.147-0.076,1.752
				c-0.012,0.568-0.087,1.153-0.1,1.754c-0.012,0.573,0.024,1.161,0.011,1.757c-0.012,0.577,0.008,1.164-0.004,1.758
				c-0.013,0.579-0.02,1.166-0.033,1.757c-0.013,0.582-0.08,1.168-0.092,1.757c-0.013,0.585,0.001,1.173-0.011,1.761
				c-0.013,0.587,0.011,1.175-0.002,1.761c-0.013,0.59-0.039,1.177-0.052,1.76c-0.013,0.593-0.087,1.179-0.099,1.76
				c-0.013,0.596-0.023,1.184-0.035,1.763c-0.013,0.599-0.029,1.188-0.041,1.764c-0.013,0.603,0.022,1.193,0.01,1.763
				c-0.013,0.607,0.013,1.195,0.001,1.759c-0.013,0.617-0.028,1.206-0.04,1.761c-0.013,0.632-0.053,1.22-0.064,1.758
				c-0.014,0.669-0.068,1.258-0.078,1.754c-0.022,1.052-0.015,1.683-0.015,1.753c0,0.646,0.277,1.389,0.792,1.977
				c0.437,0.499,1.026,0.928,1.902,0.928c0.596,0,1.104-0.15,1.514-0.377c0.481-0.266,0.843-0.664,1.079-1.114
				c0.245-0.466,0.369-1.001,0.365-1.514c-0.001-0.068-0.008-0.7-0.047-1.753c-0.018-0.495-0.111-1.081-0.135-1.749
				c-0.02-0.535-0.021-1.123-0.044-1.752c-0.02-0.552-0.025-1.139-0.048-1.753c-0.02-0.561-0.084-1.144-0.106-1.748
				c-0.02-0.567,0.012-1.154-0.009-1.753c-0.02-0.572-0.117-1.154-0.138-1.75c-0.02-0.576,0.079-1.165,0.059-1.758
				c-0.02-0.578-0.033-1.163-0.054-1.753c-0.02-0.581-0.077-1.165-0.097-1.753c-0.02-0.584-0.032-1.17-0.052-1.756
				c-0.019-0.586-0.102-1.17-0.121-1.753c-0.019-0.588-0.011-1.175-0.029-1.757c-0.019-0.591-0.065-1.177-0.083-1.757
				c-0.018-0.595-0.049-1.182-0.066-1.76c-0.018-0.598,0.039-1.188,0.023-1.762c-0.017-0.602-0.026-1.189-0.041-1.759
				c-0.016-0.606-0.067-1.191-0.081-1.753c-0.014-0.616-0.073-1.202-0.084-1.756c-0.012-0.631-0.043-1.218-0.05-1.754
				c-0.009-0.668,0.079-1.257,0.079-1.751c0-1.032-0.059-1.691-0.01-1.773c0.101-0.166,0.74-0.438,1.511-1.033
				c0.41-0.316,0.819-0.775,1.319-1.241c0.406-0.378,0.82-0.812,1.245-1.302c0.374-0.431,0.822-0.847,1.184-1.371
				c0.327-0.474,0.631-1,0.928-1.557c0.273-0.511,0.463-1.086,0.696-1.671c0.215-0.539,0.471-1.086,0.64-1.691
				c0.156-0.56,0.257-1.156,0.365-1.775c0.1-0.573,0.205-1.167,0.257-1.793c0.048-0.581,0.121-1.185,0.121-1.814
				c0-0.593-0.135-1.165-0.162-1.722c-0.029-0.593-0.01-1.168-0.069-1.72c-0.063-0.592-0.109-1.167-0.203-1.713
				c-0.102-0.588-0.187-1.162-0.323-1.697c-0.147-0.579-0.318-1.133-0.502-1.652c-0.2-0.565-0.455-1.086-0.695-1.581
				c-0.262-0.54-0.598-1.01-0.901-1.469c-0.331-0.5-0.607-1.016-0.98-1.421c-0.404-0.438-0.917-0.727-1.362-1.058
				c-0.474-0.352-0.932-0.692-1.441-0.926c-0.529-0.243-1.088-0.358-1.642-0.478c-0.561-0.122-1.118-0.285-1.693-0.285
				c-0.611,0-1.235,0.084-1.832,0.268c-0.571,0.175-1.084,0.536-1.627,0.866c-0.507,0.308-1.074,0.579-1.545,1.01
				c-0.437,0.4-0.776,0.928-1.173,1.425c-0.371,0.465-0.712,0.97-1.04,1.513c-0.31,0.512-0.686,1.008-0.951,1.584
				c-0.251,0.544-0.428,1.137-0.634,1.733c-0.196,0.568-0.392,1.153-0.542,1.764c-0.144,0.585-0.315,1.182-0.413,1.803
				c-0.094,0.597-0.08,1.22-0.128,1.846c-0.046,0.603-0.155,1.217-0.155,1.844c0,0.609,0.132,1.198,0.197,1.777
				c0.068,0.604,0.169,1.186,0.298,1.756c0.133,0.592,0.301,1.158,0.488,1.712c0.194,0.576,0.42,1.122,0.66,1.655
				c0.249,0.555,0.428,1.132,0.712,1.639c0.3,0.534,0.675,1.004,0.996,1.482c0.346,0.515,0.663,1.022,1.014,1.469
				c0.393,0.5,0.845,0.901,1.214,1.31c0.451,0.499,0.775,1.023,1.14,1.38C53.375,52.097,53.869,52.47,53.969,52.595z"/>
		</g>
		<g>
			<path fill="#FFFFFF" d="M72.721,62.082c-0.087,0.87-0.268,0.61-0.688,1.629c-0.189,0.459-0.502,0.968-0.755,1.583
				c-0.204,0.496-0.446,1.03-0.684,1.609c-0.211,0.513-0.349,1.089-0.582,1.654c-0.215,0.522-0.524,1.028-0.753,1.584
				c-0.217,0.528-0.318,1.118-0.545,1.669c-0.219,0.532-0.511,1.045-0.735,1.592c-0.219,0.535-0.42,1.084-0.642,1.626
				c-0.222,0.541-0.401,1.101-0.623,1.642c-0.223,0.544-0.468,1.077-0.688,1.615c-0.224,0.548-0.529,1.057-0.747,1.591
				c-0.225,0.552-0.326,1.145-0.541,1.674c-0.227,0.557-0.466,1.092-0.678,1.616c-0.23,0.567-0.506,1.089-0.714,1.604
				c-0.235,0.581-0.414,1.143-0.614,1.642c-0.247,0.616-0.515,1.143-0.697,1.606c-0.36,0.912-0.588,1.497-0.622,1.633
				c-0.112,0.328-0.232,0.908-0.259,1.537c-0.022,0.507,0.051,1.047,0.229,1.53c0.177,0.479,0.449,0.946,0.949,1.208
				c0.526,0.276,1.118,0.353,1.652,0.258c0.544-0.097,1.015-0.464,1.45-0.802c0.464-0.36,0.933-0.739,1.137-1.204
				c0.072-0.116,0.143-0.742,0.431-1.707c0.14-0.47,0.35-1.019,0.538-1.662c0.149-0.51,0.371-1.054,0.549-1.661
				c0.154-0.526,0.211-1.118,0.386-1.71c0.157-0.532,0.433-1.058,0.606-1.64c0.16-0.538,0.331-1.095,0.505-1.672
				c0.163-0.542,0.271-1.119,0.445-1.692c0.166-0.545,0.348-1.1,0.525-1.67c0.169-0.547,0.337-1.107,0.515-1.675
				c0.171-0.548,0.351-1.104,0.53-1.669c0.174-0.548,0.325-1.113,0.506-1.676c0.177-0.549,0.341-1.11,0.525-1.671
				c0.18-0.549,0.416-1.086,0.602-1.645c0.183-0.55,0.328-1.119,0.517-1.677c0.186-0.548,0.447-1.075,0.638-1.631
				c0.19-0.551,0.296-1.134,0.491-1.69c0.193-0.55,0.396-1.101,0.593-1.655c0.203-0.569,0.43-1.136,0.64-1.713
				c0.207-0.567,0.412-1.139,0.624-1.712c0.21-0.568,0.442-1.131,0.657-1.703c0.214-0.568,0.395-1.151,0.613-1.722
				c0.217-0.569,0.531-1.103,0.75-1.673c0.219-0.57,0.425-1.145,0.645-1.713c0.221-0.57,0.343-1.178,0.564-1.746
				c0.222-0.571,0.519-1.111,0.741-1.678c0.223-0.572,0.429-1.148,0.65-1.714c0.224-0.573,0.387-1.165,0.608-1.73
				c0.224-0.574,0.554-1.101,0.774-1.664c0.224-0.575,0.404-1.16,0.623-1.722c0.224-0.577,0.368-1.175,0.584-1.736
				c0.224-0.58,0.494-1.13,0.707-1.691c0.222-0.583,0.455-1.149,0.664-1.709c0.22-0.587,0.417-1.167,0.622-1.725
				c0.217-0.592,0.38-1.182,0.577-1.738c0.212-0.598,0.436-1.166,0.622-1.717c0.206-0.611,0.402-1.189,0.573-1.736
				c0.196-0.631,0.338-1.223,0.481-1.761c0.179-0.674,0.325-1.263,0.409-1.772c0.143-0.866,0.196-1.486,0.014-1.799
				c-0.324-0.213-0.961-0.204-1.769,0.126c-0.464,0.19-0.942,0.57-1.523,0.961c-0.449,0.302-0.92,0.665-1.424,1.095
				c-0.424,0.363-0.896,0.735-1.349,1.194c-0.399,0.404-0.864,0.798-1.28,1.28c-0.375,0.434-0.681,0.962-1.065,1.462
				c-0.352,0.459-0.713,0.94-1.069,1.456c-0.331,0.479-0.686,0.966-1.017,1.495c-0.311,0.495-0.627,1.009-0.937,1.55
				c-0.298,0.516-0.58,1.033-0.844,1.55c-0.271,0.531-0.564,1.044-0.803,1.575c-0.244,0.543-0.432,1.104-0.644,1.645
				c-0.218,0.555-0.453,1.096-0.639,1.646c-0.191,0.565-0.323,1.141-0.483,1.697c-0.165,0.574-0.306,1.144-0.44,1.706
				c-0.139,0.582-0.264,1.156-0.373,1.722c-0.114,0.591-0.172,1.177-0.256,1.747c-0.089,0.598-0.216,1.175-0.276,1.745
				c-0.064,0.604-0.098,1.192-0.135,1.76c-0.039,0.609-0.045,1.197-0.058,1.759c-0.015,0.62,0.005,1.208,0.015,1.763
				c0.011,0.634-0.017,1.223,0.015,1.758c0.04,0.67,0.142,1.251,0.195,1.744C72.578,61.443,72.809,61.21,72.721,62.082z"/>
		</g>
		<g>
			<path fill="#FFFFFF" d="M50.816,88.793c0.228,0.653,0.333,1.287,0.4,1.859c0.084,0.715,0.033,1.343-0.161,1.868
				c-0.225,0.608-0.622,1.082-1.263,1.333c-0.632,0.247-1.234,0.386-1.791,0.318c-0.57-0.069-1.097-0.364-1.588-0.853
				c-0.365-0.364-0.756-0.832-1.077-1.472c-0.121-0.198-0.244-0.827-0.557-1.712c-0.17-0.481-0.408-1.036-0.624-1.683
				c-0.174-0.521-0.406-1.077-0.606-1.69c-0.176-0.538-0.3-1.129-0.493-1.727c-0.176-0.547-0.405-1.102-0.592-1.691
				c-0.176-0.554-0.341-1.13-0.526-1.714c-0.177-0.559-0.395-1.118-0.578-1.699c-0.177-0.562-0.304-1.151-0.486-1.73
				c-0.177-0.565-0.328-1.146-0.508-1.723c-0.178-0.568-0.409-1.124-0.589-1.699c-0.178-0.571-0.339-1.15-0.518-1.723
				c-0.179-0.573-0.299-1.164-0.477-1.735c-0.179-0.575-0.451-1.12-0.629-1.689c-0.18-0.578-0.339-1.158-0.516-1.725
				c-0.182-0.581-0.406-1.141-0.583-1.705c-0.183-0.584-0.309-1.175-0.486-1.736c-0.185-0.588-0.329-1.173-0.505-1.729
				c-0.187-0.591-0.401-1.153-0.576-1.701c-0.192-0.602-0.342-1.186-0.516-1.726c-0.199-0.615-0.41-1.179-0.583-1.701
				c-0.215-0.65-0.363-1.236-0.529-1.714c-0.348-0.999-0.632-1.586-0.714-1.642c-0.208-0.142-0.814-0.247-1.602-0.354
				c-0.484-0.066-1.042-0.107-1.616-0.247c-0.512-0.125-1.047-0.268-1.556-0.503c-0.487-0.225-0.952-0.518-1.373-0.886
				c-0.394-0.345-0.71-0.78-0.993-1.285c-0.21-0.373-0.487-0.934-0.75-1.671c-0.183-0.512-0.341-1.11-0.541-1.756
				c-0.17-0.549-0.384-1.127-0.563-1.749c-0.163-0.567-0.334-1.158-0.5-1.769c-0.157-0.578-0.364-1.159-0.522-1.763
				c-0.154-0.587-0.217-1.206-0.369-1.805c-0.151-0.595-0.384-1.172-0.531-1.767c-0.149-0.602-0.18-1.229-0.323-1.817
				c-0.147-0.61-0.379-1.188-0.517-1.77c-0.147-0.621-0.31-1.217-0.443-1.79c-0.148-0.638-0.215-1.257-0.34-1.812
				c-0.153-0.676-0.351-1.268-0.464-1.781c-0.226-1.027-0.336-1.691-0.35-1.803c0.011-0.198,0.249-0.741,0.758-0.239
				c0.097,0.096,0.379,0.67,0.729,1.579c0.181,0.47,0.388,1.025,0.613,1.639c0.188,0.511,0.328,1.085,0.536,1.664
				c0.191,0.53,0.417,1.073,0.619,1.637c0.194,0.543,0.387,1.097,0.584,1.651c0.197,0.554,0.473,1.08,0.667,1.625
				c0.201,0.563,0.359,1.13,0.549,1.663c0.207,0.579,0.371,1.145,0.558,1.661c0.221,0.609,0.431,1.162,0.61,1.64
				c0.293,0.781,0.52,1.358,0.651,1.624c0.391,0.637,1.622,0.544,1.401-0.663c-0.046-0.249-0.213-0.85-0.484-1.673
				c-0.158-0.481-0.375-1.03-0.586-1.642c-0.177-0.515-0.37-1.067-0.572-1.645c-0.186-0.531-0.379-1.084-0.578-1.647
				c-0.192-0.542-0.398-1.091-0.595-1.643c-0.197-0.552-0.405-1.1-0.599-1.642c-0.202-0.563-0.35-1.133-0.541-1.663
				c-0.208-0.579-0.468-1.11-0.653-1.623c-0.221-0.613-0.454-1.158-0.624-1.634c-0.308-0.857-0.461-1.473-0.522-1.663
				c-0.09-0.437,0.477-0.85,0.858-0.23c0.111,0.196,0.342,0.773,0.686,1.593c0.195,0.466,0.522,0.969,0.768,1.571
				c0.206,0.504,0.392,1.06,0.622,1.628c0.211,0.522,0.365,1.093,0.588,1.646c0.215,0.534,0.417,1.085,0.636,1.629
				c0.219,0.545,0.565,1.038,0.781,1.572c0.224,0.555,0.359,1.134,0.571,1.657c0.231,0.571,0.497,1.098,0.704,1.602
				c0.247,0.605,0.437,1.166,0.632,1.629c0.387,0.922,0.675,1.498,0.743,1.565c0.357,0.352,1.68,0.906,1.425-0.552
				c-0.042-0.241-0.254-0.836-0.546-1.655c-0.169-0.474-0.433-1.003-0.66-1.608c-0.19-0.507-0.368-1.063-0.586-1.633
				c-0.2-0.524-0.467-1.046-0.682-1.6c-0.207-0.535-0.374-1.096-0.586-1.639c-0.213-0.544-0.38-1.106-0.59-1.64
				c-0.218-0.555-0.441-1.095-0.647-1.618c-0.225-0.571-0.438-1.116-0.638-1.621c-0.239-0.605-0.499-1.135-0.682-1.602
				c-0.356-0.906-0.569-1.512-0.602-1.627c-0.077-0.265,0.281-1.063,0.877-0.414c0.05,0.055,0.358,0.642,0.785,1.583
				c0.21,0.463,0.423,1.022,0.693,1.625c0.224,0.502,0.498,1.029,0.75,1.596c0.231,0.521,0.466,1.065,0.711,1.618
				c0.236,0.533,0.512,1.06,0.752,1.602c0.24,0.543,0.37,1.135,0.606,1.669c0.245,0.554,0.584,1.054,0.816,1.576
				c0.253,0.57,0.504,1.11,0.729,1.614c0.269,0.604,0.408,1.198,0.618,1.662c0.424,0.938,0.78,1.496,0.828,1.553
				c0.255,0.302,1.474,0.379,1.168-0.627c-0.055-0.179-0.191-0.802-0.528-1.659c-0.185-0.469-0.49-0.983-0.731-1.588
				c-0.201-0.505-0.424-1.047-0.652-1.616c-0.21-0.523-0.443-1.06-0.666-1.615c-0.215-0.534-0.41-1.087-0.629-1.631
				c-0.219-0.545-0.44-1.089-0.655-1.625c-0.223-0.554-0.346-1.137-0.556-1.661c-0.229-0.57-0.539-1.079-0.742-1.586
				c-0.242-0.604-0.455-1.155-0.642-1.626c-0.325-0.822-0.521-1.417-0.597-1.638c-0.08-0.235,0.421-0.924,0.867-0.346
				c0.091,0.118,0.382,0.684,0.852,1.551c0.241,0.445,0.542,0.961,0.854,1.553c0.255,0.484,0.54,1.006,0.83,1.567
				c0.259,0.501,0.571,1.009,0.85,1.558c0.26,0.511,0.509,1.05,0.78,1.591c0.261,0.52,0.522,1.053,0.787,1.59
				c0.26,0.527,0.486,1.077,0.745,1.612c0.258,0.534,0.574,1.042,0.826,1.576c0.256,0.541,0.484,1.091,0.728,1.621
				c0.253,0.55,0.444,1.116,0.679,1.645c0.25,0.564,0.552,1.084,0.774,1.61c0.244,0.577,0.488,1.121,0.688,1.637
				c0.237,0.611,0.387,1.192,0.548,1.69c0.231,0.715,0.417,1.295,0.45,1.709c0.053,0.657,0.022,1.261-0.072,1.799
				c-0.112,0.646-0.329,1.212-0.569,1.705c-0.292,0.599-0.663,1.082-0.996,1.484c-0.575,0.692-1.033,1.129-1.075,1.375
				c-0.013,0.076,0.155,0.682,0.543,1.705c0.182,0.481,0.332,1.078,0.584,1.724c0.202,0.518,0.516,1.05,0.756,1.658
				c0.211,0.533,0.388,1.115,0.624,1.706c0.216,0.541,0.405,1.119,0.638,1.702c0.219,0.547,0.494,1.091,0.726,1.668
				c0.222,0.552,0.403,1.134,0.634,1.707c0.224,0.555,0.534,1.085,0.764,1.655c0.226,0.557,0.366,1.156,0.596,1.723
				c0.227,0.559,0.51,1.099,0.739,1.663c0.229,0.564,0.512,1.107,0.741,1.671c0.23,0.565,0.458,1.129,0.687,1.689
				c0.231,0.567,0.382,1.164,0.61,1.721c0.233,0.571,0.459,1.136,0.686,1.692c0.234,0.574,0.522,1.115,0.748,1.667
				c0.236,0.578,0.466,1.142,0.69,1.69c0.238,0.582,0.486,1.138,0.707,1.679c0.242,0.591,0.375,1.196,0.594,1.728
				c0.248,0.605,0.488,1.166,0.7,1.681c0.263,0.641,0.573,1.174,0.769,1.649C50.562,88.178,50.494,87.943,50.816,88.793z"/>
		</g>
	</g>
</g>
</svg>
